<svg xmlns="http://www.w3.org/2000/svg" width="354.33" height="70.541"><path d="M31.582 70.03l-12.77-30.007h-6.048L0 70.03h6.682l2.724-6.682h12.6l2.724 6.682h6.853zM19.665 57.56h-7.918l3.958-9.663zM61.7 65.22l-4.17-4.214c-2.34 2.13-4.427 3.5-7.832 3.5-5.108 0-8.64-4.255-8.64-9.363v-.085c0-5.108 3.618-9.278 8.64-9.278 2.98 0 5.32 1.277 7.62 3.363l4.17-4.8c-2.767-2.725-6.13-4.6-11.748-4.6A15.14 15.14 0 0 0 34.214 55.13v.085a15.04 15.04 0 0 0 15.28 15.322 15.23 15.23 0 0 0 12.215-5.32m31.836 0l-4.17-4.214c-2.34 2.13-4.427 3.5-7.832 3.5-5.107 0-8.64-4.255-8.64-9.363v-.085c0-5.108 3.618-9.278 8.64-9.278 2.98 0 5.32 1.277 7.62 3.363l4.17-4.8c-2.767-2.725-6.13-4.6-11.747-4.6a15.14 15.14 0 0 0-11.058 4.386 15.15 15.15 0 0 0-4.478 11.02v.085a15.04 15.04 0 0 0 15.28 15.322 15.23 15.23 0 0 0 12.216-5.32m36.007-10.088v-.085c0-8.47-6.6-15.322-15.8-15.322s-15.876 6.938-15.876 15.407v.085c0 8.47 6.6 15.322 15.8 15.322s15.876-6.936 15.876-15.408m-6.853.085c0 5.107-3.66 9.277-8.94 9.277a9.05 9.05 0 0 1-9.024-9.363v-.085c0-5.108 3.66-9.278 8.94-9.278a9.05 9.05 0 0 1 9.024 9.363v.086zm39.7 14.812l-7.277-10.642a9.25 9.25 0 0 0 6.384-9.236v-.085c0-6.128-4.214-9.83-11.236-9.83h-13.62v29.795h6.554V60.5h5.15l6.384 9.534h7.66zm-7.534-19.536c0 2.5-1.83 4.214-5.023 4.214h-6.64v-8.556h6.512c3.193 0 5.15 1.447 5.15 4.256v.085m-.7-24.824c0 .393 1.667.36 3.335.36a80.12 80.12 0 0 0 18.444-1.96c7.88-1.865 10.008-4.643 14.42-7.13 8.994-5.068 20.374-4.186 20.374-5.036 0-.23-.164-.294-3.335-1.112-.295-1.2-1.865-1.994-3.435-1.994-3.694 0-9.746 4.284-15.174 4.284-.582-.006-1.162-.06-1.734-.164-2.2-4.087-7.194-7.718-13.374-8.5a164.45 164.45 0 0 1-8.143-1.242C158.38 1.867 156.518.004 155.7.004c-.164 0-.23.164-.23.294 0 1.373 2.452 5.232 6.344 9.582 2.55 2.844 6.77 6.964 6.77 8.927 0 1.08-2.386 2.388-6.932 4.317-5.3 2.257-7.488 2.224-7.488 2.55m49.162 44.356V40.237h-6.555v11.8h-14.906v-11.79h-6.554V70.03h6.554V58.07h14.9v11.96zm38.775-14.9v-.085c0-8.47-6.6-15.322-15.8-15.322s-15.874 6.938-15.874 15.407v.085c0 8.47 6.6 15.322 15.8 15.322S242.1 63.602 242.1 55.13m-6.854.085c0 5.107-3.66 9.277-8.937 9.277a9.05 9.05 0 0 1-9.024-9.363v-.085c0-5.108 3.663-9.278 8.94-9.278a9.05 9.05 0 0 1 9.02 9.363v.085zm35.242-8.938v-6.044H245.8v6.044h9.063v23.75h6.555v-23.75zm28.984 23.75v-5.833H283.3V57.94h14.047V52.1H283.3v-6.043h15.965v-5.832H276.8V70.03h22.685zm27.108 0v-5.96h-13.445V40.233h-6.552v29.794zm27.75-8.8v-.085c0-5.193-3.4-7.363-9.45-8.938-5.15-1.318-6.427-1.958-6.427-3.916v-.084c0-1.447 1.32-2.6 3.832-2.6s5.108 1.106 7.744 2.937l3.406-4.937c-3.137-2.512-7.053-3.85-11.07-3.782-6.085 0-10.427 3.576-10.427 8.98v.085c0 5.917 3.874 7.575 9.875 9.1 4.98 1.277 6 2.13 6 3.8v.083c0 1.748-1.616 2.8-4.3 2.8-3.4 0-6.214-1.4-8.895-3.618l-3.874 4.64a18.96 18.96 0 0 0 12.641 4.766c6.426 0 10.938-3.32 10.938-9.236"/></svg>