<svg xmlns="http://www.w3.org/2000/svg" width="199.998" height="65.488"><path d="M167.106 55.846l-.618.55c-.88.786-1.785 1.628-2.877 1.207a1.1 1.1 0 0 1-.565-.824c-.05-2.25.964-4.336 1.947-6.366l.252-.53c2.827-4.72 6.113-10.282 10.94-14.142a2.72 2.72 0 0 1 2.627-.7c.264.23.43.552.464.9a1.5 1.5 0 0 1-.154.494c-1.348 2.178-2.632 4.465-3.88 6.66-2.358 4.466-5.08 8.73-8.134 12.753zm-26.15-11.124c-2.002-.452-3.578-1.995-4.07-3.988-.535-2.6 1.255-4.63 2.987-5.653a3 3 0 0 1 2.684-.495c.713.588 1.078 1.498.97 2.415-.014.6-.064 1.2-.15 1.793l-.016.13a24.36 24.36 0 0 1-2.4 5.8zM128.503 57c-.31-.482-.467-1.046-.454-1.618-.064-3.588 3.8-10.012 6.52-13.512h.006a10.6 10.6 0 0 0 5.288 4.784c-1.94 4.318-8.587 13.566-11.36 10.346zm47.054.637c-.645.44-1.552.1-1.213-.9.844-2.562 4.2-7.78 4.2-7.78l9.35-16.582h-6.4c-.3.5-.955 1.648-.955 1.648a8.79 8.79 0 0 0-1.552-1.833c-1.564-.99-3.86-.52-5.443.375-6.885 4.026-11.908 11.98-15.87 18.182 0 0-4.17 6.9-6.485 7.408-1.807.146-1.62-2.288-1.542-2.855.807-4 2.137-7.875 3.956-11.527a88.56 88.56 0 0 0 10.569-8.636c7.484-7.154 13.794-15.26 14.716-17.07-.72.134-1.446.213-2.177.238-5.758 8.032-17.54 19.706-21.113 21.443 1.583-3.806 11.807-21.974 20.508-30.664l1.37-1.318c2.117-2.068 4.31-4.2 6.02-4.537.18-.018.413 0 .614.422a7.9 7.9 0 0 1-1.21 4.153l-.964 1.976a22.33 22.33 0 0 0 2.261-.55c1.04-1.957 2.192-4.153 1.767-6.77-.118-.816-.738-1.468-1.547-1.628-2.6-.494-5.424 1.426-7.7 2.982l-.092.055c-11.7 9.167-21.58 22.377-30.218 40.417-.626.475-3.045 1.043-3.456.768 1.09-2.118 1.917-4.36 2.464-6.678.106-.734.166-1.473.18-2.214.136-1.576-.538-3.113-1.79-4.08a6.18 6.18 0 0 0-5.076.183c-6.174 2.562-10.79 8.893-14.12 14.106-1.79 3.313-3.577 6.86-4.07 10.923-.348 3.183.36 5.232 2.17 6.257 1.86.95 4.2-.037 5.124-.513 6.255-3.293 10.626-9.9 14.07-15.936 1.157-.047 2.31-.194 3.44-.44.02-.001.042.006.06.02-.08.273-.817 2.47-.817 2.47-2.184 6.4-3.193 10.758-1.13 13.338 2.947 3.64 7.826-.127 11.8-5.1-.852 5.965 2.24 6.9 4.6 6.44 2.707-.73 5.723-3.623 7.123-5.1-.45 1.738-.327 4.85 2.135 5.16 1.688.312 2.95-.606 4.412-1.393 5.242-2.854 11.518-12.366 13.147-15.116h-2.136c-2.316 3.5-5.263 8.1-8.97 10.268zm-80.76-35.522h6l3.386-5.5h-6zm95.84-14.607c-4.575 2.6-9.317 4.28-15.058 3.7-1.59 1.793-3.14 3.64-4.568 5.544 8.057 2.05 16.6-2.507 21.363-6.842a33.63 33.63 0 0 0 7.624-9.88 40.04 40.04 0 0 1-9.361 7.482zm-50.45-1.393c-.954 10.94-9.46 17.364-11.563 17.875-1.275.256-3.45-.31-1.51-4.9 2.862-6.185 7.746-11.435 12.986-14.125a2.8 2.8 0 0 1 .086 1.15zm-16.57 27.575a3.72 3.72 0 0 0-3.6-2.068c-5.006.458-9.9 4.574-12.473 10.484a30.1 30.1 0 0 0-2.568 9.532 26.37 26.37 0 0 1 8.335-6.348c.433-2.605 1.456-5.077 3-7.227.946-1.41 2.84-3.678 4.965-3.074 1.857.623 1.2 5.764-1.264 10.74a34.5 34.5 0 0 1-7.45 9.844c-2.5 2.123-6.2 4.684-9.436 2.708-2.038-1.207-3.078-3.732-2.858-6.99.974-9.24 5.18-17.107 11.2-26.072 6.206-8.325 13.047-16.87 22.263-21.426a6.22 6.22 0 0 1 5.125-.585s-8.65 4.757-12.775 13.558c-1.05 2.233-2.508 5.25-1.04 7.922a3.09 3.09 0 0 0 3.228 1.427c5.055-1.17 8.32-5.892 10.99-10.21 1.547-3.275 2.922-6.532 2.922-10.155 0-.44-.023-1.024-.06-1.464 2.415-1.28 7.367.988 7.367.988 3.87 1.28 12.1 7.594 14.89 8.8 1.356-1.573 3.584-3.95 4.838-5.14l-1.817-1.12c-2.908-1.775-5.98-3.458-9.006-5.123-4.636-2.732-10.25-3.25-15.308-1.408l-2.14.75c-2.11-2.302-5.573-2.083-8.125-1.46-9.178 2.635-17.7 9.056-26.836 20.2-6.717 8.726-10.884 16.265-13.104 23.71-1.712 5.013-2.232 12.386 1.946 16.76 3.552 3.713 8.262 2.91 11.59 1.574 7.207-3.55 13.684-11.2 16.912-20 .78-2.616 1.643-6.312.3-9.13zM43.73 25.2c-.012.037-1.224 2.814-1.224 2.814-.175.146-.452.073-.77 0l-.544-.092c-1.56-.387-2.828-1.515-3.394-3.018-.548-2.635 1.7-4.7 2.694-5.452.95-.66 2.43-1.007 3.3-.33.513.656.772 1.474.73 2.306-.065 1.29-.33 2.56-.783 3.77zm-2.6 5.287s-.055.165-.082.22c-.007 0-2.755 4.482-2.755 4.482-1.66 2.214-3.73 5-6.318 6.33-.767.256-1.828.42-2.368-.255-1.146-1.373-.555-3.275-.076-4.812l.17-.55a45.54 45.54 0 0 1 5.682-10.082.28.28 0 0 1 .107-.036c.01.017.015.036.017.055a9.12 9.12 0 0 0 5.7 4.3c.01 0 .023.018.023.055a.9.9 0 0 1-.1.292zm34.376-2.945c1.77-2.44 3.667-4.785 5.68-7.028 2.934-2.58 4.106-1.445 4.207-.64a584.29 584.29 0 0 1-9.007 15.57c.006-.018-.95 1.445-.95 1.445a14.01 14.01 0 0 1-4.9 5.031 1.42 1.42 0 0 1-1.177-.128c-.393-.268-.6-.737-.532-1.208C68.958 39 70.56 34.2 75.502 27.54zM45.038 16.414c-3.792-2.488-11.415 2.27-17.52 10.428-5.583 7.32-7.994 15.826-5.37 19.76 3.9 4.63 11.148-2.1 14.23-5.708l.4-.42a44.92 44.92 0 0 0 5.281-7.557c0 0 1.44-2.378 1.51-2.49a33.91 33.91 0 0 0 3.17-.768c-.017.055-4.622 7.794-4.152 11.636.146 1.172.035 5.453 4.215 6.752 5.57.934 10.02-3.385 13.944-7.227l1.047-1.005-.22.895c-1.63 5.672.568 6.862 1.943 7.3 4.156 1.208 9.12-4.83 9.137-4.83-.13 1.9-.505 3.476 1.5 4.738 1.893.678 3.808-.355 5.263-1.325 5.244-3.7 9.468-9.48 12.88-14.48h-2.18c-.026 0-5.37 7.747-8.84 9.43 0 0-.637.324-1 .068-.45-.384-.273-1.183 0-1.75.018-.037 13.4-23.25 13.4-23.25h-6.314l-.746 1.2c-.043-.037-.144-.23-.214-.32-3.912-5.41-12.78 2.92-19.457 12.58-2.657 3.975-5.755 7.637-9.234 10.916 0 0-5.026 4.607-7.173 1.3a6.39 6.39 0 0 1-.1-4.759c2.5-7.117 6.808-13.576 11.71-17.474 1.384-1.08 2.888-1.39 3.635-.933.693.505.86 1.47.376 2.177-1.048-.076-2.074.32-2.8 1.08-1.465 1.537-1.974 3.02-1.508 4.4 2.263 3.22 6.775-3.147 6.557-7.026-.055-1.365-.775-2.616-1.927-3.35-1.84-.87-3.977-.85-5.8.056-2.18.823-5.633 3.7-7.65 5.928-2.537 2.8-6.888 5.9-8.25 5.562.446-1.2 4.12-8.71.255-11.526zM76.8 57.127c-7.442-4.794-17.542-5.635-33.83-1.113-17.364 4.08-23.154 6.7-30.757 1.445-2.92-2.58-3.968-6.733-3.186-12.715 1.814-9.752 6.715-19.138 15.422-29.548 4.86-5.416 9.367-10.063 15.32-11.93 4.562-1.17 4.135 2.415 3.583 2.927-.81-.022-1.613.18-2.317.585a6 6 0 0 0-2.389 4.08c-.13 3.165 3.145 2.506 4.558.77 1.523-1.958 3.773-5.708 2-9.2a5.2 5.2 0 0 0-3.616-2.4C36.14-.286 31.064 2.314 26.38 5.185A66.47 66.47 0 0 0 3.303 32.959C.63 39.472-1.79 48.802 1.835 56.396c2.8 5.27 8.625 8.068 15.57 7.482a122.73 122.73 0 0 0 14.722-3.036c3.96-.952 24.238-7.922 30.9 4.21a9 9 0 0 1 7.752-4.393c4.552-.42 11.12 1.318 15.9 4.83-1.593-2.4-6.1-5.927-9.88-8.36z"/></svg>