<svg xmlns="http://www.w3.org/2000/svg" xmlns:xlink="http://www.w3.org/1999/xlink" width="600.105" height="164.02"><path d="M121.305 162.9h-16.3V65.6h16.3v11.9c5.8-8.3 15.5-13 26.8-13a37.7 37.7 0 0 1 5.8.4l1.2.2v17.4l-1.7-.4c-2.862-.596-5.777-.898-8.7-.9-13.7 0-23.3 10.1-23.3 24.6zm189.5-.2c16.1 0 27.7-5 37.7-16.2l.9-1-10.4-10.8-1 1c-7.4 7.8-14.2 12.4-27.1 12.4-18.1 0-30-11.7-31.2-30.5h73.5l.1-1.3c.2-2.7.2-5.7.2-5.8 0-13.3-4.1-25.4-11.6-34.2-7.9-9.3-18.7-14.2-31.3-14.2-27.9 0-47.3 21.2-47.3 51.6v.7c-.1 28.9 19 48.3 47.5 48.3zm-30.2-59.5c1.6-14.2 14.7-25.6 29.9-25.6 14.1 0 25.6 11.3 26.3 25.6zm-109.6-37.7h16.3v97.4h-16.3zm72.3 98.5c-5 0-12.4-.5-18.2-5-6.4-4.8-9.6-13.3-9.6-25.1v-91h16.3v22.5h21.2v15.4h-21.2v53.1c0 12.3 4.3 14.7 11.3 14.7a45.72 45.72 0 0 0 8.3-.5l1.6-.3v15l-1 .3a31.78 31.78 0 0 1-8.7.9zm170.4 0c13.187.103 25.866-5.084 35.2-14.4 19.6-20.387 19.6-52.613 0-73-19.54-19.2-50.86-19.2-70.4 0-19.505 20.48-19.46 52.675.1 73.1a48.79 48.79 0 0 0 35.1 14.3zm0-86.4a32.71 32.71 0 0 1 24 10.1c6.1 6.5 9.5 15.5 9.5 25.4s-3.4 18.9-9.5 25.4c-12.94 13.216-34.13 13.484-47.4.6l-.6-.6c-6.1-6.5-9.5-15.5-9.5-25.4s3.4-18.9 9.5-25.4a32.71 32.71 0 0 1 24-10.1zM50.205 164a50.15 50.15 0 0 1-35.5-14.4c-19.6-20.387-19.6-52.613 0-73a49.98 49.98 0 0 1 35.5-14.4c14.2 0 26.6 5 35.7 14.4l.9.9-10 11.9-1-1.1c-6.6-7-15.4-10.7-25.6-10.7a33.32 33.32 0 0 0-24.2 10.1c-6.2 6.5-9.6 15.5-9.6 25.4s3.4 18.9 9.6 25.4c6.32 6.572 15.083 10.23 24.2 10.1a34.39 34.39 0 0 0 25.5-10.6l1-1.1 10 11.8-.9.9c-9 9.5-21.3 14.4-35.6 14.4z"/><use xlink:href="#B"/><use xlink:href="#B" x="408.5" y="138.8"/><path d="M552.005 145.5h-33.2c-4.125-.01-8.078-1.66-10.985-4.585s-4.532-6.89-4.515-11.015V32.1a25.37 25.37 0 0 0-25.4-25.4h-263V18h261.5c8.557.007 15.493 6.943 15.5 15.5h0v97.8c-.024 14.054 11.346 25.47 25.4 25.5h34.6v-11.3z"/><defs ><path id="B" d="M179.105 25.2c-6.958.055-12.644-5.54-12.7-12.5s5.54-12.644 12.5-12.7 12.644 5.54 12.7 12.5v.1c.02 3.33-1.288 6.532-3.633 8.896s-5.536 3.697-8.867 3.704z"/></defs></svg>