<svg xmlns="http://www.w3.org/2000/svg" width="400" height="33.906"><path d="M120.75 19.706h17.135V13.73H120.75V6.783h19.66V.235h-25.892v33.032H140.4v-6.432h-19.66zm-94.656-6.262H6.238V.235H0v33h6.238v-13.2H26.1v13.208h6.232v-33h-6.238zM194.915.235h-6.232v33.032h25.778v-6.432h-19.538zM234.83 0c-9.3 0-16.3 7.288-16.3 16.952a17.33 17.33 0 0 0 4.626 12.091 15.95 15.95 0 0 0 11.671 4.862c9.3 0 16.3-7.288 16.3-16.952S244.13 0 234.83 0zm9.778 16.952h0c0 6.337-3.943 10.3-9.778 10.3s-9.778-3.958-9.778-10.3h0c0-6.337 3.943-10.3 9.778-10.3s9.783 3.965 9.783 10.3zM273.142 0c-9.3 0-16.3 7.288-16.3 16.952a17.33 17.33 0 0 0 4.626 12.09 15.95 15.95 0 0 0 11.671 4.862c9.3 0 16.3-7.288 16.3-16.952S282.433 0 273.142 0zm9.78 16.952h0c0 6.337-3.943 10.3-9.78 10.3s-9.778-3.958-9.778-10.3h0c0-6.337 3.943-10.3 9.778-10.3s9.778 3.965 9.778 10.3zM314.448.234h-18.154v33.032h6.232v-9.82h11.928c7.846-.05 11.4-6.08 11.385-11.665S322.248.234 314.448.234zm4.965 11.618a5.43 5.43 0 0 1-1.191 3.5 4.61 4.61 0 0 1-3.58 1.572h-12.118V6.783h12.113c1.368-.033 2.68.543 3.582 1.572a5.43 5.43 0 0 1 1.191 3.5zM96.332.234H78.178v33.032h6.228v-9.82h11.928c7.846-.05 11.4-6.08 11.385-11.665S104.133.234 96.332.234zm4.965 11.618a5.43 5.43 0 0 1-1.192 3.5c-.9 1.03-2.214 1.606-3.582 1.572H84.406V6.783H96.53a4.61 4.61 0 0 1 3.582 1.572 5.43 5.43 0 0 1 1.192 3.5zM62.8.234h7.635l-14 22.628v10.37H50.1v-10.37L36.1.234h7.635l9.538 15.922zm282.695 12.84h6.232v20.183h-6.232zm-171.87 13.76c-.762-.01-1.463-.418-1.846-1.077l-1.658-2.78c4.9-1.482 8.15-6.095 7.915-11.2C178.022 6.218 174.45.24 166.652.24h-18.154v33.023h6.232v-10h8.142l3.23 5.445c1.335 2.208 2.383 4.538 6.726 4.538h9.018v-6.4zm-6.8-9.914H154.72V6.783h12.117a4.6 4.6 0 0 1 3.582 1.572c1.592 2.062 1.592 4.938 0 7a4.6 4.6 0 0 1-3.582 1.57zM333.305.234h30.814v6.232h-30.814zm48.072 12.84h6.232v20.183h-6.232zM369.186.234H400v6.232h-30.814z"/></svg>