<svg xmlns="http://www.w3.org/2000/svg" width="344.131" height="73.51"><path d="M121.492 42.34l-2.05 5.814h-.17c-.525-1.946-1.2-3.85-1.994-5.7l-11-27.638h-10.77v44.05h7.123v-27.18l-.057-6.04-.228-2.792h.17a26.69 26.69 0 0 0 1.026 3.76l13.22 32.14h5.015l13.107-32.424a34.52 34.52 0 0 0 .855-3.476h.168l-.342 7.92v27.92h7.58V14.702h-10.37zm28.834-15.215h7.408v31.57h-7.408zm3.76-13.334a4.44 4.44 0 0 0-3.134 1.254 4.2 4.2 0 0 0 0 6.1 4.39 4.39 0 0 0 3.134 1.2c1.16.015 2.28-.415 3.134-1.2a4.01 4.01 0 0 0 1.311-3.02 4.23 4.23 0 0 0-1.31-3.077 4.16 4.16 0 0 0-3.134-1.254m29.92 13.046c-1.368-.292-2.76-.445-4.16-.456a17.88 17.88 0 0 0-9 2.222c-2.527 1.414-4.586 3.534-5.926 6.1a19.38 19.38 0 0 0-2.051 9.118 16.91 16.91 0 0 0 1.994 8.149 13.66 13.66 0 0 0 5.584 5.641 16.44 16.44 0 0 0 8.149 1.994 17.91 17.91 0 0 0 8.947-2.108l.057-.057v-6.84l-.285.228a12.62 12.62 0 0 1-3.6 1.88 10.98 10.98 0 0 1-3.533.684c-2.963 0-5.3-.855-6.952-2.735a10.51 10.51 0 0 1-2.564-7.465 10.77 10.77 0 0 1 2.621-7.693c1.802-1.902 4.334-2.94 6.952-2.85a12.13 12.13 0 0 1 7.066 2.393l.285.228v-7.238l-.057-.057a17.18 17.18 0 0 0-3.533-1.14m24.446-.228c-1.827-.015-3.6.6-5.015 1.767-1.287 1.17-2.267 2.638-2.855 4.275h-.057v-5.53h-7.408v31.57h7.408V42.568c-.133-2.362.507-4.702 1.824-6.667a5.71 5.71 0 0 1 4.787-2.564 18.44 18.44 0 0 1 2.222.285 5.85 5.85 0 0 1 1.767.74l.285.228v-7.4l-.17-.057a5.63 5.63 0 0 0-2.792-.513m20.173-.17c-5.186 0-9.345 1.54-12.252 4.56-2.963 3.02-4.388 7.18-4.388 12.423 0 4.9 1.482 8.9 4.33 11.8 2.85 2.85 6.724 4.33 11.568 4.33 5.072 0 9.118-1.54 12.024-4.616 2.963-3.077 4.388-7.18 4.388-12.252 0-5.015-1.368-9-4.16-11.9-2.678-2.906-6.6-4.33-11.5-4.33m5.926 24.276a7.47 7.47 0 0 1-6.211 2.621 7.78 7.78 0 0 1-6.382-2.735c-1.54-1.767-2.28-4.33-2.28-7.58 0-3.362.8-5.926 2.28-7.75a7.83 7.83 0 0 1 6.325-2.735 7.58 7.58 0 0 1 6.154 2.62c1.482 1.767 2.28 4.33 2.28 7.693-.114 3.42-.74 6.1-2.165 7.864m26.27-10.485c-1.604-.56-3.12-1.346-4.5-2.336-.6-.648-.908-1.512-.855-2.393-.02-.916.432-1.778 1.2-2.28a5.49 5.49 0 0 1 3.241-.861 14.75 14.75 0 0 1 3.818.57c1.188.302 2.3.824 3.305 1.54l.285.228v-6.95l-.17-.057a20.64 20.64 0 0 0-3.362-.97 22.99 22.99 0 0 0-3.647-.342 13.2 13.2 0 0 0-8.719 2.735 8.42 8.42 0 0 0-3.362 6.952 9.08 9.08 0 0 0 .74 3.875 8.62 8.62 0 0 0 2.28 2.963c1.4 1.052 2.933 1.914 4.56 2.564 1.7.74 3.02 1.3 3.818 1.767.632.373 1.208.833 1.7 1.368a3.24 3.24 0 0 1 .456 1.767c0 2.108-1.6 3.134-4.844 3.134a12.79 12.79 0 0 1-4.1-.741c-1.483-.494-2.885-1.204-4.16-2.108l-.285-.228v7.237l.17.057a22.1 22.1 0 0 0 3.989 1.254c1.408.3 2.837.463 4.274.513 3.818 0 6.952-.855 9.175-2.735 2.25-1.693 3.543-4.366 3.476-7.18a7.99 7.99 0 0 0-1.823-5.414 23.1 23.1 0 0 0-6.667-3.932m28.036-13.8c-5.186 0-9.346 1.54-12.252 4.56s-4.388 7.18-4.388 12.423c0 4.9 1.482 8.9 4.33 11.8 2.85 2.85 6.724 4.33 11.568 4.33 5.072 0 9.118-1.54 12.024-4.616 2.963-3.077 4.388-7.18 4.388-12.252 0-5.015-1.368-9-4.16-11.9-2.678-2.906-6.6-4.33-11.5-4.33m5.87 24.276a7.47 7.47 0 0 1-6.211 2.621 7.71 7.71 0 0 1-6.382-2.735c-1.54-1.767-2.28-4.33-2.28-7.58 0-3.362.8-5.926 2.28-7.75a7.83 7.83 0 0 1 6.325-2.735 7.66 7.66 0 0 1 6.154 2.62c1.482 1.767 2.28 4.33 2.28 7.693 0 3.42-.74 6.1-2.165 7.864m49.406-17.494v-6.1h-7.467v-9.35l-.228.057-7.066 2.108-.17.057v7.123h-11.17v-3.988a6.25 6.25 0 0 1 1.254-4.16c.9-.947 2.172-1.447 3.476-1.368 1.14.02 2.266.273 3.304.746l.285.17v-6.45l-.17-.057a14.25 14.25 0 0 0-10.086.8 9.88 9.88 0 0 0-4.046 4.046 11.66 11.66 0 0 0-1.482 5.869v4.388h-5.186v6.04h5.186v25.527h7.465v-25.47h11.17v16.24c0 6.667 3.134 10.03 9.4 10.03a19.53 19.53 0 0 0 3.134-.342c.805-.153 1.6-.402 2.336-.74l.057-.057v-6.098l-.285.228a4.92 4.92 0 0 1-1.54.684c-.48.147-.98.224-1.482.228a3.95 3.95 0 0 1-3.248-1.2c-.684-.8-1.026-2.108-1.026-4.046V33.222h7.58zM0 0h34.932v34.932H0zm38.58 0H73.5v34.932H38.58zM0 38.58h34.932V73.5H0zm38.58 0H73.5V73.5H38.58z"/></svg>