<svg xmlns="http://www.w3.org/2000/svg" width="464.2" height="464.3"><path d="M219.7 24.8V82c3.8-.3 7.7-.5 11.6-.5V64.1h14.5l12.5 19.8a142.68 142.68 0 0 1 14.7 3.4l-15-24c8.6-2.3 15.7-9.9 15.7-18.9 0-10.8-10.2-19.6-21.1-19.6zM231.3 35h21.3a9.5 9.5 0 1 1 0 19h-21.3V35zm-74.7 3.7l-4.3 65.1c3.9-2.4 7.8-4.5 11.9-6.5l.6-15.2a157.54 157.54 0 0 1 24.5-8.5l10 11.5c4.4-.9 8.8-1.7 13.4-2.3l-44-48.3a114.9 114.9 0 0 0-12.1 4.2m9.6 8.3l16.2 18.5a175.04 175.04 0 0 0-17.2 6zm117.6 43.9a133.95 133.95 0 0 1 11 4.6l22-53c-3.6-1.6-7.3-3.1-11-4.5zM101.5 66.7L77.6 93l41.7 38a158.54 158.54 0 0 1 8.2-8.2l-13-11.9 16.1-17.7c7.3-8 7.3-20.9-.7-28.2a19.59 19.59 0 0 0-13.1-4.9 20.16 20.16 0 0 0-15.3 6.6m-8.6 24.5l15.6-17.1a9.45 9.45 0 1 1 14 12.7L106.9 104l-14-12.8zm241.8-24.5c-7.5 7.1-3.2 18 3.3 24.8l6.3 6.7c6.5 6.8 12.1 13.6 6.9 17.9-5.5 4.5-21-6.9-30.4-26.6l-8.4 6.3a63 63 0 0 0 12.6 19.1c6.8 7.2 14.3 11.9 21 13.2 5.3 1 10.5.3 13.9-3 8.6-8 5.5-19.6-8-33.9l-5.6-5.9c-6.2-6.6-3.7-10.3-1.3-10.8 8.6-2 24.4 13.6 27.4 24.3l8.1-6C375.3 77.9 357.8 63 344.4 63a14.02 14.02 0 0 0-9.7 3.7M232.2 96.1c-75.5 0-136.9 61.4-136.9 136.9s61.4 136.9 136.9 136.9S369.1 308.5 369.1 233c-.04-75.6-61.3-136.86-136.9-136.9zm-.3 9.2a111.23 111.23 0 0 1 11.6.6c.9 48.4 12.7 89.7 32.7 124.7h-88.6c20-35 31.8-76.4 32.7-124.7a108.43 108.43 0 0 1 11.6-.6zM104.5 232.9c-.002-63.57 46.764-117.454 109.7-126.4-5.6 82.1-39.8 141.6-96.1 183.8a126.79 126.79 0 0 1-13.6-57.4zM278 352.2a127.64 127.64 0 0 1-91.6 0h0a49.21 49.21 0 0 1-8.2-27.2c0-28.3 24.2-51.3 54-51.3s54 23 54 51.3a49.21 49.21 0 0 1-8.2 27.2zm21.1-10.6a58.98 58.98 0 0 0 .9-10.3c0-35.2-30.5-63.7-68.1-63.7-37.7 0-68.1 28.5-68.1 63.7a58.03 58.03 0 0 0 .9 10.3 128.42 128.42 0 0 1-39.5-38.5c23.7-19.1 43.9-41.5 59.5-67.5h94.4c15.7 26 35.9 48.4 59.6 67.5h0a129.86 129.86 0 0 1-39.6 38.5zm47.2-51.3c-56.2-42.2-90.4-101.7-96-183.8a127.74 127.74 0 0 1 96 183.8z"/><path d="M396.2 68C352.687 24.462 293.655 0 232.1 0S111.513 24.462 68 68h0C1.608 134.376-18.26 234.2 17.662 320.947S138.22 464.24 232.1 464.24s178.516-56.555 214.438-143.292S462.592 134.376 396.2 68zM232 455.1c-123.1 0-222.9-99.8-222.9-222.9S108.9 9.3 232 9.3s223 99.8 223 222.9-99.8 222.9-223 222.9zM109.9 350.3c-1.7-6.5-8.4-12.9-13.4-12.9a5.29 5.29 0 0 0-3 .9 4.74 4.74 0 0 0-1.8 3 9.29 9.29 0 0 0 2 6.4l2.3 3.1c1.7 2.3 3.5 4.8 3.1 6.8a2.78 2.78 0 0 1-1.3 1.9 2.3 2.3 0 0 1-1.4.4c-3.1 0-8.3-5.5-10.9-13.4v-.2l-2.3 2.1v.1c.824 2.973 2.216 5.757 4.1 8.2 2.4 3.2 5.1 5.4 7.7 6.2a10.04 10.04 0 0 0 2.4.4 5.47 5.47 0 0 0 2.9-.8c1.17-.783 1.964-2.013 2.2-3.4.4-2.5-.9-5.9-4-9.9l-2-2.7c-1.6-2.1-1.6-3.5-1.2-4.3a2.1 2.1 0 0 1 1.7-1.3h.4c3.7 0 8.9 6.1 10.2 10.8v.1l.1-.1c.8-.4 1.6-.9 2.2-1.2v-.2zm10.8 13.6l-7.4 3.5 5.1 4.3zm-2.7 20.8l-2.7-2 2.3-7.6-7.3-6.2-7.3 3.5-2.5-2.3 21.4-10.1 2.6 2.2-6.5 22.5zm21.1-11.8l-12 18.2-2.6-1.7 12-18.1zm9.4 6l3.7 20.3 7.6-14.4 2.7 1.5-9.9 19-2.7-1.3-3.7-20.5-.1-.1-7.7 14.6-2.7-1.5 10-19 2.8 1.4zm37.1 15.8l-1 2.9-7.1-2.5-6.1 17.5-2.9-1 6.1-17.5-7.1-2.5 1-2.9 17.1 6zm47 16l9.8.2-.1 5.7c-.1 3.8-4.3 6.4-9.7 6.2-5.7-.1-11.6-4.1-11.5-11.4.1-6.1 5.1-11 11.9-10.9a12.54 12.54 0 0 1 9 4l-2.2 2.2a8.56 8.56 0 0 0-6.5-3.1c-5.7-.1-9 3.5-9.1 8-.1 4.2 3.2 8 8.6 8.1 3.7 0 6.4-1.6 6.4-3.5v-2.4l-6.7-.1.1-3zm33.4-13l.5 3.1-14.3 2 .8 5.6 7.2-1 .4 3.1-7.2 1 .9 6.5 14.8-2.1.4 3-17.9 2.5-3-21.2 17.4-2.5z"/><path d="M277.2 398.1l1.8 6 9.2-2.7c2.2-.7 3.1-2.2 2.5-4.2-.7-2.3-2.7-2.4-4.4-1.8l-9.1 2.7zm8.2-5.7c3.3-1 6.9-.3 8.2 3.9 1.3 4.5-1.2 6.8-2.9 7.4l6.7 7.2-3.2 1.2-6.7-7.3-7.6 2.3 2.6 8.6-3 .8-6.2-20.5 12.1-3.6zm32-14.5l-2.8 1.4-.5 15.2-12.6-8.5-2.8 1.4 9.4 19.2 2.8-1.2-6.5-13.7 12.5 8.4.5-15h.1l7.3 13.3 2.7-1.5-10.1-19zm15.1-5.6l1.6 8.1 5.5-3.9-7.1-4.2zm19.3 7.7l-2.7 2.2-6.6-4-7.8 5.5 1.5 7.8-2.7 1.7-4.5-23 2.8-2 20 11.8zm-6.6-22.5l14.6 15.7-2.3 2-14.6-15.7 2.3-2zm8.5-8.4l20.6 1.4-12.1-10.9 2.1-2.3 15.9 14.3-1.8 2.3-20.8-1.4 12.2 11-2.2 2.2-16-14.4 2.1-2.2zM204 411.6l-7.6-1.7.7-3 7.6 1.7-.7 3zm-90.5-44.5l7.6-4-2.5 8.3zm8.4-7.6l-21.6 10.3 2.4 2.1.4-.1 7.1-3.5 7.7 6.5-2.4 7.5.1.1-.1.2 2.3 1.6.1-.2 6.7-22.2-2.7-2.3zm17.4 13.2l-2.8-1.8-12.1 18.4 2.7 1.7.1-.2 12.1-18.1zm20.5 11.8l-7.6 14.5-3.7-20.4-2.5-1.4-.2-.1-10.1 19.3 2.3 1.3.3.1.1-.3v-.1l.1.1.1-.2h.1l7.6-14.5 3.8 19.9 2.7 1.2v-.1h.1l.1-.1h.1l9.7-17.8-3-1.4zm70.6-48.4c-.448 1.696-1.52 3.16-3 4.1-.3.1-.3.3-.2.5a16.86 16.86 0 0 0 4.3 5.5.62.62 0 0 0 .4.2s.1 0 .4-.2a16.86 16.86 0 0 0 4.3-5.5c.1-.2.1-.4-.2-.5a6.58 6.58 0 0 1-3-4.1 1.5 1.5 0 0 0-1.5-1.1 1.53 1.53 0 0 0-1.5 1.1zm.9-45.8c-2.5 2-8.4 16.4-8.4 21.3 0 3.9 7.9 14.1 7.9 19.7-.016.27.084.534.275.725a.95.95 0 0 0 .725.275 1 1 0 0 0 1-1h0c0-5.6 7.8-15.8 7.8-19.7 0-5.2-6.8-21.5-8.9-21.5l-.4.2zm-29.6 34.6c-.004 2.406.956 4.712 2.667 6.404s4.028 2.627 6.433 2.596a5.16 5.16 0 0 0 3.8-1.6c.84-.877 1.178-2.12.9-3.3-.1-.3-.5-.2-.6-.2h-.5a3.1 3.1 0 0 1-3.1-3 3.03 3.03 0 0 1 3.1-3c3 0 8.2 2.9 11 9v.1c.223.344.592.565 1 .6a1.11 1.11 0 0 0 1.1-1.1.9.9 0 0 0-.1-.5c-3.7-9.7-10.1-15.1-16.7-15.1a9.05 9.05 0 0 0-9 9.1zm34.3 6a.75.75 0 0 0-.1.5 1.11 1.11 0 0 0 1.1 1.1c.408-.035.777-.256 1-.6v-.1c2.8-6.1 8.1-9 11-9a2.95 2.95 0 0 1 2.138.862c.566.565.877 1.338.862 2.138a3.01 3.01 0 0 1-3 3h-.5c-.2 0-.5-.1-.6.2-.278 1.18.06 2.423.9 3.3a5.79 5.79 0 0 0 3.8 1.6 9.05 9.05 0 1 0 0-18.1c-6.5 0-12.9 5.3-16.6 15.1z"/></svg>