<svg xmlns="http://www.w3.org/2000/svg" width="184" height="63.876"><path d="M10.586 45.62a15.73 15.73 0 0 0 3.23 5.293 13.9 13.9 0 0 0 4.889 3.364 15.95 15.95 0 0 0 6.145 1.166 15.22 15.22 0 0 0 6.056-1.21 14.9 14.9 0 0 0 4.934-3.409c1.434-1.5 2.548-3.296 3.275-5.248a18.96 18.96 0 0 0 1.166-6.818V0h9.42v62.8h-9.33v-5.832a21.62 21.62 0 0 1-7.4 5.114 23.49 23.49 0 0 1-9.2 1.794 24.9 24.9 0 0 1-9.37-1.749 21.95 21.95 0 0 1-7.536-4.979c-2.172-2.228-3.88-4.866-5.024-7.76A26.6 26.6 0 0 1 0 39.294V0h9.42v38.756a19.33 19.33 0 0 0 1.166 6.863zM65.94 0v22.877a24 24 0 0 1 7.267-4.979 21.77 21.77 0 0 1 8.97-1.84 23.66 23.66 0 0 1 9.42 1.884 23.73 23.73 0 0 1 12.739 12.739 23.44 23.44 0 0 1 1.884 9.33 23.12 23.12 0 0 1-1.884 9.285 23.85 23.85 0 0 1-12.739 12.695 23.66 23.66 0 0 1-9.42 1.884 22.1 22.1 0 0 1-9.016-1.839 23.83 23.83 0 0 1-7.312-4.979V62.8h-8.97V0zm1.032 46.2a15.61 15.61 0 0 0 3.364 5.024 16.24 16.24 0 0 0 5.02 3.412c1.953.845 4.062 1.273 6.2 1.256 2.1.01 4.176-.417 6.1-1.256a15.68 15.68 0 0 0 4.98-3.41A16.64 16.64 0 0 0 96 46.202a15.27 15.27 0 0 0 1.256-6.19A15.59 15.59 0 0 0 96 33.777a16.49 16.49 0 0 0-3.364-5.069 15.1 15.1 0 0 0-4.979-3.364c-5.893-2.472-12.695-1.143-17.225 3.364-1.45 1.457-2.607 3.177-3.4 5.07a15.59 15.59 0 0 0-1.256 6.235 15.76 15.76 0 0 0 1.216 6.187zm44.362-15.428c1.158-2.812 2.83-5.384 4.934-7.58 6.776-6.85 17.02-8.923 25.927-5.248a21.7 21.7 0 0 1 7.267 4.979 22.76 22.76 0 0 1 4.755 7.536 25.72 25.72 0 0 1 1.7 9.465v2.96H118.7c.285 1.813.892 3.56 1.794 5.158a15.55 15.55 0 0 0 3.364 4.127c1.354 1.17 2.902 2.097 4.575 2.736a14.94 14.94 0 0 0 5.428.987 15.7 15.7 0 0 0 13.188-6.729l6.55 4.844a23.9 23.9 0 0 1-19.737 9.779c-3.27.026-6.515-.583-9.554-1.794-2.88-1.144-5.504-2.852-7.715-5.024-2.194-2.17-3.946-4.744-5.16-7.58a24.48 24.48 0 0 1-.09-18.615zm12.6-3.544a15.29 15.29 0 0 0-5.069 8.478h27.9a14.84 14.84 0 0 0-4.979-8.478 14.1 14.1 0 0 0-17.853 0zm48.942 1.032q-2.87 3.14-2.87 8.523V62.8h-9.06V17.046h8.97v5.652c1.092-1.812 2.62-3.325 4.44-4.4a12.57 12.57 0 0 1 6.5-1.615h3.14v8.433h-3.768a9.52 9.52 0 0 0-7.352 3.144z"/></svg>