<svg xmlns="http://www.w3.org/2000/svg" viewBox="0 0 48 48" width="32" height="32"><title>trophy</title><g class="nc-icon-wrapper" stroke-linecap="round" stroke-linejoin="round" stroke-width="2" fill="#ffffff" stroke="#ffffff"><path data-cap="butt" data-color="color-2" d="M11.347,24C6,24,3,20,3,14V6h7" fill="none" stroke-miterlimit="10"/> <path data-cap="butt" data-color="color-2" d="M38,6h7v8c0,6-3,10-8.347,10" fill="none" stroke-miterlimit="10"/> <line data-cap="butt" data-color="color-2" x1="24" y1="40" x2="24" y2="32" fill="none" stroke-miterlimit="10"/> <path d="M24,32h0A14,14,0,0,1,10,18V2H38V18A14,14,0,0,1,24,32Z" fill="none" stroke="#ffffff" stroke-miterlimit="10"/> <path d="M35,46H13a6,6,0,0,1,6-6H29a6,6,0,0,1,6,6Z" fill="none" stroke="#ffffff" stroke-miterlimit="10"/></g></svg>