<svg xmlns="http://www.w3.org/2000/svg" viewBox="0 0 48 48" width="32" height="32"><title>projector</title><g class="nc-icon-wrapper" stroke-linecap="round" stroke-linejoin="round" stroke-width="2" fill="#ffffff" stroke="#ffffff"><circle cx="18" cy="24" r="8" fill="none" stroke="#ffffff" stroke-miterlimit="10"/><path d="M11.079,20H6a4,4,0,0,0-4,4V36a4,4,0,0,0,4,4H42a4,4,0,0,0,4-4V24a4,4,0,0,0-4-4H24.921" fill="none" stroke="#ffffff" stroke-miterlimit="10" data-cap="butt"/><circle cx="18" cy="24" r="2" fill="none" stroke-miterlimit="10" data-color="color-2"/><line x1="33" y1="27" x2="39" y2="27" fill="none" stroke="#ffffff" stroke-miterlimit="10"/><line x1="33" y1="33" x2="39" y2="33" fill="none" stroke="#ffffff" stroke-miterlimit="10"/><line x1="10" y1="40" x2="10" y2="43" fill="none" stroke="#ffffff" stroke-miterlimit="10"/><line x1="38" y1="40" x2="38" y2="43" fill="none" stroke="#ffffff" stroke-miterlimit="10"/><line x1="18" y1="10" x2="18" y2="5" fill="none" stroke-miterlimit="10" data-color="color-2"/><line x1="27.899" y1="14.101" x2="31.435" y2="10.565" fill="none" stroke-miterlimit="10" data-color="color-2"/><line x1="8.101" y1="14.101" x2="4.565" y2="10.565" fill="none" stroke-miterlimit="10" data-color="color-2"/></g></svg>