<svg xmlns="http://www.w3.org/2000/svg" width="49.474" height="43" viewBox="0 0 49.474 43"><g transform="translate(-1 -4)"><circle cx="8.5" cy="8.5" r="8.5" transform="translate(11 17)" fill="none" stroke="#fff" stroke-linecap="round" stroke-linejoin="round" stroke-miterlimit="10" stroke-width="2"/><path d="M11.8,20H6.316A4.316,4.316,0,0,0,2,24.316V37.263a4.316,4.316,0,0,0,4.316,4.316H45.158a4.316,4.316,0,0,0,4.316-4.316V24.316A4.316,4.316,0,0,0,45.158,20H26.731" transform="translate(0 1.184)" fill="none" stroke="#fff" stroke-linecap="round" stroke-linejoin="round" stroke-miterlimit="10" stroke-width="2"/><ellipse cx="2" cy="2.5" rx="2" ry="2.5" transform="translate(17 23)" stroke-width="2" stroke="#fff" stroke-linecap="round" stroke-linejoin="round" stroke-miterlimit="10" fill="none"/><line x2="7" transform="translate(35 29)" stroke-width="2" stroke="#fff" stroke-linecap="round" stroke-linejoin="round" stroke-miterlimit="10" fill="none"/><line x2="7" transform="translate(35 35)" stroke-width="2" stroke="#fff" stroke-linecap="round" stroke-linejoin="round" stroke-miterlimit="10" fill="none"/><line y2="3" transform="translate(11 43)" stroke-width="2" stroke="#fff" stroke-linecap="round" stroke-linejoin="round" stroke-miterlimit="10" fill="none"/><line y2="3" transform="translate(41 43)" stroke-width="2" stroke="#fff" stroke-linecap="round" stroke-linejoin="round" stroke-miterlimit="10" fill="none"/><line y1="5" transform="translate(19 5)" stroke-width="2" stroke="#fff" stroke-linecap="round" stroke-linejoin="round" stroke-miterlimit="10" fill="none"/><line y1="3.815" x2="3.815" transform="translate(29.944 11.004)" stroke-width="2" stroke="#fff" stroke-linecap="round" stroke-linejoin="round" stroke-miterlimit="10" fill="none"/><line x1="3.815" y1="3.815" transform="translate(4.767 11.004)" stroke-width="2" stroke="#fff" stroke-linecap="round" stroke-linejoin="round" stroke-miterlimit="10" fill="none"/></g></svg>