<svg xmlns="http://www.w3.org/2000/svg" width="367" height="117" overflow="hidden"><defs><clipPath id="A"><path d="M824-131h367v117H824z" fill-rule="evenodd" clip-rule="evenodd"/></clipPath></defs><g clip-path="url(#A)" transform="translate(-824 131)" fill="#fff" fill-rule="evenodd"><path d="M913.948-65.78l-38.636-28.675a5.76 5.76 0 0 0-6.824 0L850.926-81.4c-3.1 2.3-7.326 2.3-10.437 0l-4.717-3.485c-3.412-2.6-4.114-7.368-1.505-10.753.4-.597 1.003-1.095 1.505-1.493l30.608-22.7a9.55 9.55 0 0 1 11.14 0l30.608 22.7c3.412 2.5 4.114 7.368 1.605 10.753-.4.597-1.003 1.095-1.605 1.593l6.623 4.978c6.222-5.178 7.025-14.338 1.806-20.4-.702-.896-1.505-1.593-2.408-2.3l-33.117-24.494c-5.32-3.983-12.645-3.983-17.963 0l-33.117 24.494c-6.423 4.78-7.828 13.84-2.9 20.3.803 1.095 1.807 2.1 2.9 2.888l38.736 28.675a5.76 5.76 0 0 0 6.824 0l17.562-13.043c3.1-2.3 7.326-2.3 10.437 0l4.717 3.485c3.412 2.5 4.114 7.268 1.606 10.654-.402.597-1.004 1.095-1.606 1.593l-30.608 22.7a9.55 9.55 0 0 1-11.139 0l-30.6-22.7c-3.412-2.5-4.114-7.368-1.505-10.753.402-.598 1.004-1.095 1.505-1.494l-6.623-4.978c-6.222 5.177-7.025 14.337-1.806 20.4.702.896 1.505 1.593 2.408 2.3l33.117 24.493a15 15 0 0 0 17.964 0l33.12-24.493c6.422-4.78 7.827-13.84 3-20.312-1.003-1.095-2.007-2.1-3.1-2.987zm-43.855 6.373L852.33-72.55l17.762-13.143c1.004-.697 2.4-.697 3.412 0l17.763 13.143-17.763 13.143c-1.003.796-2.408.796-3.412 0zM1009-109v72h-10v-72h10zm12 22h10v50h-10zm70-22v71.998h-9.66v-7.9c-3.8 5.093-9.76 8-16.14 7.9-14.14 0-24.2-11.184-24.2-25.064s10.06-25.064 24.2-25.064c6.38-.1 12.35 2.796 16.14 7.9V-109h9.66zm-9.66 46.933c0-8.488-6.87-15.378-15.34-15.378s-15.34 6.9-15.34 15.378 6.87 15.378 15.34 15.378c8.47-.1 15.34-7 15.34-15.378h0zM1151-62a25 25 0 1 1-50 0 25 25 0 1 1 50 0h0zm-9.76 0a15.35 15.35 0 0 0-15.34-15.34c-8.47 0-15.34 6.873-15.34 15.34s6.87 15.34 15.34 15.34c8.47-.1 15.34-6.972 15.34-15.34zM1190-87v10.558c-2.9-.797-5.98-.598-8.87.398-6.38 2.4-10.46 7.77-10.46 16.634V-37H1161v-50h9.67v11.255C1173.96-82.717 1180.93-87 1190-87zM973.08-66.042c-11.045-2.794-13.234-4.092-13.234-7.186 0-3.593 3.78-5.888 9.254-5.7 5.77.3 9.552 2.994 10.347 7.485h9.453c0-1.098-.1-2.096-.398-3.194h0C986.7-82.2 979.247-87 969-87c-10.945 0-18.308 5.6-18.308 14.172 0 6.886 4.08 10.38 16.22 13.573 11.044 2.994 12.636 3.892 12.636 7.585 0 3.992-3.383 6.587-9.154 6.587-6.268 0-10.746-3.094-11.84-7.984H949c0 .898.2 1.896.498 2.794l.597 1.996C952.78-41.09 959.845-37 969.795-37c11.94 0 19.203-5.7 19.203-14.97.1-7.385-4.08-10.978-15.92-14.072zM1032-103.5a5.5 5.5 0 1 1-11 0 5.5 5.5 0 1 1 11 0z"/></g></svg>