<svg xmlns="http://www.w3.org/2000/svg" width="366" height="117" overflow="hidden"><defs><clipPath id="A"><path d="M363-116h366V1H363z" fill-rule="evenodd" clip-rule="evenodd"/></clipPath></defs><g clip-path="url(#A)" transform="translate(-363 116)" fill-rule="evenodd"><path d="M452.948-50.78l-38.636-28.675a5.76 5.76 0 0 0-6.824 0L389.926-66.41c-3.11 2.3-7.326 2.3-10.437 0l-4.717-3.485c-3.412-2.59-4.114-7.368-1.505-10.753.4-.597 1.003-1.095 1.505-1.493l30.608-22.7a9.55 9.55 0 0 1 11.14 0l30.608 22.7c3.412 2.49 4.114 7.368 1.605 10.753-.4.597-1.003 1.095-1.605 1.593l6.623 4.978c6.222-5.177 7.025-14.338 1.806-20.41-.702-.896-1.505-1.593-2.408-2.3l-33.117-24.494c-5.32-3.983-12.645-3.983-17.963 0L368.952-87.52c-6.423 4.78-7.828 13.84-2.91 20.312.803 1.095 1.807 2.09 2.91 2.888l38.736 28.675a5.76 5.76 0 0 0 6.824 0l17.562-13.043c3.11-2.3 7.326-2.3 10.437 0l4.717 3.485c3.412 2.49 4.114 7.268 1.606 10.654-.402.597-1.004 1.095-1.606 1.593l-30.608 22.7a9.55 9.55 0 0 1-11.139 0l-30.61-22.7c-3.412-2.49-4.114-7.368-1.505-10.753.402-.597 1.004-1.095 1.505-1.494l-6.623-4.978c-6.222 5.177-7.025 14.337-1.806 20.41.702.896 1.505 1.593 2.408 2.3l33.117 24.493a15 15 0 0 0 17.964 0L453.05-27.48c6.422-4.78 7.827-13.84 3-20.312-1.003-1.095-2.007-2.09-3.11-2.987zm-43.855 6.373L391.33-57.55l17.762-13.143c1.004-.697 2.41-.697 3.412 0l17.763 13.143-17.763 13.143c-1.003.796-2.408.796-3.412 0z" fill="#ff4835"/><g fill="#170f34"><path d="M548-94v72h-10v-72h10zm12 22h10v50h-10zm70-22v71.998h-9.66v-7.9c-3.785 5.093-9.76 8-16.136 7.9C590.06-22.002 580-33.186 580-47.067s10.06-25.064 24.203-25.064c6.375-.1 12.35 2.796 16.136 7.9V-94H630zm-9.66 46.933c0-8.488-6.873-15.378-15.34-15.378s-15.34 6.9-15.34 15.378S596.534-31.7 605-31.7c8.466-.1 15.34-7 15.34-15.378h0zM690-47c0 13.845-11.155 25-25 25s-25-11.155-25-25 11.155-25 25-25 25 11.155 25 25h0zm-9.76 0a15.35 15.35 0 0 0-15.34-15.339 15.35 15.35 0 0 0-15.338 15.34 15.35 15.35 0 0 0 15.338 15.34c8.467-.1 15.34-6.972 15.34-15.34zM729-72v10.558c-2.9-.797-5.98-.598-8.87.398-6.378 2.4-10.464 7.77-10.464 16.633V-22H700v-50h9.667v11.255C712.955-67.717 719.93-72 729-72zM512.08-51.042c-11.045-2.794-13.234-4.092-13.234-7.186 0-3.593 3.78-5.888 9.254-5.7 5.77.3 9.552 2.994 10.347 7.485h9.453c0-1.098-.1-2.096-.398-3.194h0C525.7-67.2 518.247-72 508-72c-10.945 0-18.308 5.6-18.308 14.172 0 6.886 4.08 10.38 16.22 13.573 11.044 2.994 12.636 3.892 12.636 7.585 0 3.992-3.383 6.587-9.154 6.587-6.268 0-10.746-3.094-11.84-7.984H488c0 .898.2 1.896.498 2.794l.597 1.996C491.78-26.09 498.845-22 508.795-22c11.94 0 19.203-5.7 19.203-14.97.1-7.385-4.08-10.978-15.92-14.072zM571-88.5a5.5 5.5 0 1 1-11 0 5.5 5.5 0 1 1 11 0z"/></g></g></svg>