<svg xmlns="http://www.w3.org/2000/svg" viewBox="0 0 240.66 72.06" fill="#fff"><path d="M59.67 0v72.06H50V0zm12.58 21.85h9.7v50.2h-9.7zM142 0v72.06h-9.72v-7.9a19.78 19.78 0 0 1-16.28 7.9c-14.17 0-24.3-11.24-24.3-25.1s10.12-25.1 24.3-25.1a19.74 19.74 0 0 1 16.19 7.89V0zm-9.72 47a15.38 15.38 0 1 0-15.38 15.38A15.39 15.39 0 0 0 132.23 47zm69.52 0a25.1 25.1 0 1 1-25.1-25.1A25.1 25.1 0 0 1 201.8 47zm-9.7 0a15.39 15.39 0 1 0-15.4 15.38h0A15.52 15.52 0 0 0 192.09 47zm48.56-25.14v10.62a15.18 15.18 0 0 0-8.9.41c-6.38 2.43-10.53 7.8-10.53 16.7v22.47h-9.72V21.83h9.72V33.1c3.34-6.98 10.32-11.23 19.43-11.23zM24.16 42.8C13 40 10.9 38.68 10.9 35.6c0-3.6 3.77-5.88 9.3-5.7 5.8.26 9.65 3 10.36 7.54H40a11.41 11.41 0 0 0-.36-3.19h0C37.82 26.7 30.4 21.83 20.1 21.83c-11 0-18.42 5.62-18.42 14.22C1.7 43 5.82 46.4 18 49.65c11.14 3 12.72 4 12.72 7.55 0 4-3.42 6.58-9.2 6.58-6.32 0-10.8-3.07-11.93-8H0a11 11 0 0 0 .48 2.79 17.06 17.06 0 0 0 .6 2h0c2.67 7.2 9.78 11.3 19.83 11.3 12 0 19.3-5.7 19.3-15 0-7.38-4.12-10.98-16.06-14.05z"/><circle cx="77.09" cy="5.55" r="5.55"/></svg>