<svg version="1.1" width="800" height="261.953" viewBox="0 0 800 261.953" xmlns="http://www.w3.org/2000/svg" xmlns:xlink="http://www.w3.org/1999/xlink" id="Layer_1" overflow="hidden"><defs id="defs12"></defs><g id="g3"><path d=" M 307.209 228.509 C 277.441 209.333 237.042 205.968 171.889 224.044 C 102.432 240.366 79.274 250.829 48.861 229.825 C 37.177 219.507 32.988 202.894 36.116 178.964 C 43.371 139.954 62.977 102.413 97.802 60.771 C 117.241 39.109 135.272 20.519 159.082 13.054 C 177.33 8.371 175.624 22.712 173.416 24.763 C 171.086 24.763 167.172 25.13 164.147 27.104 C 161.692 29.008 154.953 35.156 154.591 43.426 C 154.069 56.086 167.171 53.451 172.822 46.5 C 178.913 38.667 187.915 23.667 180.834 9.687 C 177.866 4.711 172.738 1.272 166.371 0.101 C 144.569 -1.145 124.264 9.248 105.525 20.738 C 64.543 49.207 31.76 88.655 13.21 131.835 C 2.515 157.888 -7.157 195.208 7.341 225.583 C 18.556 246.659 41.84 257.854 69.619 255.513 C 89.102 253.466 112.661 247.169 128.506 243.367 C 144.351 239.559 225.46 211.678 252.11 260.203 C 252.11 260.203 260.972 243 283.119 242.633 C 301.327 240.953 327.594 247.904 346.723 261.953 C 340.35 252.369 322.282 238.244 307.209 228.509 L 307.209 228.509 Z" id="path5" stroke="none" stroke-width="1" stroke-linecap="butt" fill="#FFFFFF" fill-opacity="1"/><path d=" M 180.16 65.674 C 164.99 55.721 134.5 74.749 110.079 107.388 C 87.747 136.665 78.104 170.692 88.598 186.427 C 104.209 204.942 133.189 178.011 145.513 163.596 L 147.103 161.911 C 155.484 152.909 161.959 142.077 168.226 131.684 C 168.226 131.684 173.986 122.17 174.261 121.73 C 177.821 121.074 182.109 120.049 186.941 118.658 C 186.872 118.876 168.454 149.834 170.333 165.2 C 170.918 169.888 170.471 187.013 187.191 192.208 C 209.475 195.943 227.269 178.669 242.967 163.3 C 242.967 163.3 245.642 160.741 247.155 159.28 C 246.772 160.813 246.273 162.858 246.273 162.858 C 239.749 185.546 248.543 190.306 254.044 192.063 C 270.669 196.896 290.53 172.743 290.594 172.743 C 290.079 180.351 288.573 186.645 296.593 191.695 C 304.163 194.405 311.824 190.274 317.647 186.395 C 338.622 171.612 355.52 148.475 369.169 128.475 L 360.463 128.475 C 360.36 128.475 338.98 159.463 325.097 166.198 C 325.075 166.198 322.549 167.495 321.093 166.469 C 319.291 164.931 320.002 161.735 321.115 159.471 C 321.185 159.323 374.718 66.475 374.718 66.475 L 349.442 66.475 C 349.442 66.475 346.681 70.942 346.456 71.235 C 346.286 71.089 345.881 70.321 345.6 69.953 C 329.94 48.291 294.477 81.611 267.778 120.251 C 257.499 135.109 244.412 151.838 230.842 163.913 C 230.842 163.913 210.739 182.341 202.149 169.101 C 199.009 163.538 199.975 155.405 201.746 150.064 C 211.747 121.595 228.98 95.758 248.59 80.168 C 254.126 75.853 260.143 74.605 263.129 76.435 C 265.974 78.121 266.433 82.289 264.633 85.144 C 260.066 84.998 256.407 86.386 253.432 89.46 C 247.572 95.608 245.536 101.537 247.399 107.1 C 256.45 119.98 274.501 94.511 273.628 78.996 C 273.316 73.433 270.348 68.165 265.919 65.601 C 259.318 61.651 249.248 62.674 242.731 65.823 C 234.007 69.115 220.197 80.604 212.136 89.534 C 201.988 100.733 184.584 113.173 179.141 111.78 C 180.924 107.021 195.625 76.943 180.16 65.674 L 180.16 65.674 Z M 302.021 110.17 C 306.938 103.365 321.249 85.141 324.738 82.068 C 336.472 71.745 341.162 76.287 341.568 79.505 C 330.617 99.118 317.692 121.587 305.54 141.787 C 305.565 141.715 301.737 147.568 301.737 147.568 C 296.37 155.763 290.966 162.789 282.151 167.692 C 280.894 168.06 278.822 168.207 277.443 167.179 C 275.783 166.081 275.128 164.251 275.315 162.347 C 275.843 156.055 282.25 136.811 302.021 110.17 L 302.021 110.17 Z M 164.516 121.952 C 164.516 121.952 164.296 122.613 164.187 122.829 C 164.159 122.829 153.167 140.757 153.167 140.757 C 146.533 149.614 138.25 160.741 127.896 166.081 C 124.827 167.106 120.585 167.766 118.423 165.06 C 113.84 159.57 116.202 151.959 118.121 145.812 L 118.8 143.616 C 124.302 128.688 133.032 115.512 141.529 103.29 C 141.635 103.218 141.873 103.145 141.959 103.145 C 141.979 103.218 142.013 103.218 142.028 103.365 C 147.36 113.609 157.358 118.364 164.835 120.563 C 164.88 120.563 164.928 120.636 164.928 120.783 C 164.929 121.001 164.807 121.296 164.516 121.952 L 164.516 121.952 Z M 174.93 100.804 C 174.882 100.95 170.034 112.073 170.034 112.073 C 169.333 112.658 168.225 112.366 166.955 112.073 L 164.779 111.705 C 157.946 109.584 152.792 105.046 151.203 99.631 C 149.011 89.092 158.014 80.822 161.981 77.823 C 165.787 75.186 171.704 73.796 175.14 76.505 C 177.259 78.994 178.062 82.213 178.062 85.728 C 178.063 90.484 176.595 95.826 174.93 100.804 L 174.93 100.804 Z" id="path7" stroke="none" stroke-width="1" stroke-linecap="butt" fill="#FFFFFF" fill-opacity="1"/><path d=" M 494.47 134.759 C 492.033 129.491 486.247 126.124 480.081 126.489 C 460.058 128.32 440.473 144.786 430.19 168.423 C 424.794 180.573 421.849 190.598 419.918 206.552 C 426.144 199.382 438.844 187.6 453.256 181.159 C 453.256 181.159 455.217 165.864 465.217 152.251 C 469.001 146.614 476.574 137.54 485.077 139.954 C 492.506 142.444 489.895 163.009 480.021 182.911 C 472.715 197.55 461.535 212.191 450.223 222.288 C 440.222 230.778 425.425 241.023 412.479 233.12 C 404.325 228.292 400.166 218.19 401.045 205.163 C 404.941 168.206 421.764 136.736 445.839 100.876 C 470.663 67.577 498.027 33.4 534.89 15.174 C 542.409 11.369 549.372 10.491 555.391 12.833 C 555.391 12.833 520.787 31.861 504.292 67.064 C 500.096 75.994 494.26 88.066 500.137 98.752 C 503.208 104.313 508.661 104.753 513.051 104.46 C 533.27 99.775 546.333 80.894 557.006 63.624 C 563.194 50.524 568.694 37.497 568.694 23.006 C 568.694 21.25 568.603 18.909 568.454 17.151 C 578.114 12.03 597.922 21.103 597.922 21.103 C 613.401 26.228 646.36 51.478 657.478 56.306 C 662.901 50.013 671.813 40.5 676.831 35.742 L 669.567 31.277 C 657.937 24.178 645.644 17.444 633.544 10.785 C 606.065 -4.216 583.698 1.052 572.314 5.151 C 567.84 6.76 563.751 8.151 563.751 8.151 C 555.303 -1.07 541.448 -0.194 531.239 2.296 C 494.525 12.834 460.438 38.521 423.893 83.092 C 397.025 118.002 380.359 148.155 371.476 177.94 C 364.629 197.991 362.548 227.485 379.26 244.977 C 393.469 259.829 412.31 256.612 425.615 251.271 C 454.442 237.073 480.351 206.48 493.261 171.278 C 496.376 160.814 499.834 146.031 494.47 134.759 L 494.47 134.759 Z M 560.756 24.471 C 556.94 68.236 522.921 93.926 514.504 95.972 C 509.403 96.995 500.699 94.728 508.469 76.361 C 519.912 51.622 539.448 30.62 560.409 19.861 C 560.919 21.691 560.906 22.859 560.756 24.471 L 560.756 24.471 Z" id="path9" stroke="none" stroke-width="1" stroke-linecap="butt" fill="#FFFFFF" fill-opacity="1"/><path d=" M 762.555 30.031 C 744.256 40.425 725.287 47.156 702.324 44.815 C 695.96 51.989 689.764 59.38 684.053 66.99 C 716.282 75.187 750.45 56.964 769.505 39.621 C 789.663 22.129 800 0.102 800 0.102 C 800 0.102 784.89 17.372 762.555 30.031 L 762.555 30.031 Z" id="path11" stroke="none" stroke-width="1" stroke-linecap="butt" fill="#FFFFFF" fill-opacity="1"/><path d=" M 416.729 66.476 L 392.725 66.476 L 379.185 88.476 L 403.184 88.476 Z" id="polygon13" stroke="none" stroke-width="1" stroke-linecap="butt" fill="#FFFFFF" fill-opacity="1"/><path d=" M 702.228 230.546 C 699.647 232.302 696.021 230.952 697.377 226.928 C 700.754 216.682 714.18 195.802 714.18 195.802 L 751.576 129.476 L 725.96 129.476 C 724.743 131.476 722.139 136.069 722.139 136.069 C 720.954 134.095 717.41 129.705 715.951 128.757 C 709.693 124.802 700.511 126.672 694.177 130.257 C 666.638 146.36 646.545 178.175 630.699 202.986 C 630.699 202.986 614.018 230.566 604.758 232.617 C 597.529 233.203 598.275 223.465 598.588 221.196 C 601.383 204.8 607.874 189.213 614.414 175.088 C 627.715 165.867 642.895 153.792 656.69 140.546 C 686.628 111.928 711.867 79.507 715.556 72.262 C 715.556 72.262 711.563 73.068 706.848 73.213 C 683.816 105.341 636.684 152.035 622.395 158.986 C 628.725 143.761 669.622 71.09 704.425 36.328 L 709.902 31.057 C 718.37 22.787 727.145 14.298 733.983 12.907 C 734.705 12.834 735.635 12.907 736.438 14.593 C 736.743 21.032 734.346 25.79 731.596 31.205 L 727.742 39.11 C 727.742 39.11 733.201 38.085 736.786 36.911 C 740.946 29.084 745.553 20.299 743.855 9.836 C 743.288 6.469 740.851 3.908 737.666 3.322 C 727.284 1.346 715.969 9.028 706.865 15.251 L 706.497 15.469 C 659.696 52.135 620.176 104.975 585.625 177.136 C 583.121 179.036 573.446 181.307 571.801 180.208 C 575.213 173.184 579.509 163.741 581.659 153.495 C 582.031 150.567 582.377 147.568 582.377 144.641 C 582.377 138.342 580.865 132.416 575.222 128.319 C 568.606 125.025 560.429 126.563 554.916 129.05 C 530.218 139.296 511.759 164.62 498.439 185.475 C 491.275 198.725 484.132 212.916 482.154 229.166 C 480.761 241.898 483.597 250.095 490.836 254.195 C 498.281 257.998 507.651 254.045 511.332 252.144 C 536.353 238.971 553.835 212.553 567.616 188.4 C 568.164 188.328 575.688 188.11 581.379 186.644 C 581.455 186.644 581.487 186.644 581.613 186.721 C 581.287 187.814 578.346 196.599 578.346 196.599 C 569.612 222.212 565.573 239.632 573.823 249.949 C 585.612 264.514 605.129 249.439 621.006 229.529 C 617.598 253.387 629.963 257.121 639.388 255.293 C 650.215 252.367 662.28 240.801 667.879 234.875 C 666.081 241.826 666.57 254.269 676.419 255.512 C 683.17 256.76 688.222 253.088 694.068 249.94 C 715.037 238.522 740.138 200.475 746.655 189.475 L 738.11 189.475 C 728.846 203.476 717.057 221.833 702.228 230.546 L 702.228 230.546 Z M 514.01 227.998 C 512.68 226.022 512.239 223.861 512.195 221.525 C 511.94 207.175 527.379 181.476 538.277 167.476 C 538.3 167.476 538.3 167.476 538.3 167.476 C 542.867 177.476 553.209 183.904 559.452 186.613 C 551.698 203.886 525.105 240.878 514.01 227.998 L 514.01 227.998 Z M 563.828 178.891 C 563.089 179.406 550.048 175.013 547.528 162.938 C 545.39 152.542 552.549 144.419 559.475 140.324 C 562.448 137.981 566.926 137.178 570.211 138.344 C 573.26 140.396 574.086 144.058 574.086 148.004 C 574.086 150.424 573.765 152.91 573.482 155.178 C 573.482 155.178 573.428 155.619 573.419 155.692 C 571.246 163.813 567.921 171.791 563.828 178.891 L 563.828 178.891 Z M 668.424 223.388 C 668.413 223.388 665.95 225.583 665.95 225.583 C 662.432 228.728 658.812 232.095 654.442 230.411 C 653.235 229.972 652.386 228.364 652.182 227.116 C 651.983 218.114 656.037 209.773 659.968 201.651 L 660.976 199.527 C 672.284 180.646 685.428 158.398 704.732 142.958 C 707.985 140.611 711.515 138.639 715.241 140.177 C 716.098 140.98 717.096 142.372 717.096 143.761 C 717.096 144.202 716.705 145.372 716.479 145.736 C 711.088 154.449 705.953 163.596 700.96 172.377 C 691.202 189.723 681.079 207.651 668.424 223.388 L 668.424 223.388 Z" id="path15" stroke="none" stroke-width="1" stroke-linecap="butt" fill="#FFFFFF" fill-opacity="1"/></g></svg>