<?xml version="1.0" encoding="utf-8"?>
<!-- Generator: Adobe Illustrator 20.0.0, SVG Export Plug-In . SVG Version: 6.00 Build 0)  -->
<svg version="1.1" id="Layer_x5F_1_x5F_1" xmlns="http://www.w3.org/2000/svg" xmlns:xlink="http://www.w3.org/1999/xlink" x="0px"
	 y="0px" viewBox="0 0 673 184" preserveAspectRatio="xMinYMid" style="enable-background:new 0 0 673 184;" xml:space="preserve">
<style type="text/css">
	.st0{fill:#FFFFFF;}
</style>
<path class="st0" d="M136,182.7h-18.3V73.4H136v13.4c6.5-9.2,17.3-14.6,30-14.6c2.3,0,5.1,0.2,6.5,0.4l1.3,0.2v19.5l-1.9-0.5
	c-2.5-0.6-6-1-9.8-1c-15.4,0-26.1,11.4-26.1,27.6L136,182.7L136,182.7z M348.6,182.5c18,0,31.1-5.6,42.3-18.2l1-1.1l-11.7-12.1
	l-1.1,1.2c-8.3,8.8-15.9,13.9-30.4,13.9c-20.3,0-33.6-13.1-35-34.3H396l0.1-1.5c0.2-3.1,0.2-6.4,0.2-6.5c0-14.9-4.6-28.5-13-38.4
	c-8.8-10.4-21-15.9-35.2-15.9c-31.2,0-53,23.8-53,57.9v0.8C295.2,160.7,316.6,182.5,348.6,182.5L348.6,182.5z M314.7,115.7
	c1.8-16,16.5-28.7,33.5-28.7c15.8,0,28.8,12.7,29.5,28.7L314.7,115.7L314.7,115.7z M191.7,73.4h18.3v109.3h-18.3V73.4z M272.8,184
	c-5.6,0-13.8-0.6-20.5-5.6c-7.2-5.4-10.8-14.9-10.8-28.2V48h18.3v25.3h23.8v17.3h-23.8v59.6c0,13.7,4.9,16.5,12.7,16.5
	c2.9,0,5.6,0,9.3-0.6l1.8-0.3v16.9l-1.2,0.3C278.8,183.8,276.1,184,272.8,184z M464,184c15.1,0,29.1-5.8,39.5-16.2
	c10.6-10.6,16.4-25.2,16.4-41c0-15.8-5.8-30.4-16.4-41C493,75.4,479,69.7,464,69.7c-15.1,0-29,5.8-39.5,16.2
	c-10.6,10.6-16.4,25.2-16.4,41s5.8,30.4,16.4,41C434.9,178.2,448.9,184,464,184z M464,87c10.5,0,20,4,26.9,11.4
	c6.9,7.3,10.7,17.4,10.7,28.5s-3.8,21.2-10.7,28.5c-6.9,7.3-16.5,11.4-26.9,11.4c-10.4,0-20-4-26.9-11.4
	c-6.9-7.3-10.7-17.4-10.7-28.5s3.8-21.2,10.7-28.5C444,91,453.5,87,464,87z M56.3,184c-15.2,0-29.3-5.8-39.8-16.2
	C5.9,157.2,0,142.7,0,126.9s5.9-30.4,16.5-41C27,75.5,41.1,69.7,56.3,69.7c16,0,29.8,5.6,40.1,16.1l1,1l-11.2,13.2l-1.2-1.3
	C77.5,91.1,67.6,87,56.3,87C45.7,87,36.1,91,29.1,98.3c-7,7.3-10.8,17.4-10.8,28.5s3.8,21.2,10.8,28.5c7,7.3,16.6,11.4,27.2,11.4
	c11.4,0,21.3-4.1,28.6-11.9l1.2-1.3l11.2,13.3l-1,1C86.1,178.4,72.3,184,56.3,184L56.3,184z"/>
<path class="st0" d="M200.9,28.2c-7.7,0-14-6.3-14-14.1S193.1,0,200.9,0c7.7,0,14,6.3,14,14.1S208.6,28.2,200.9,28.2z M659,184
	c-7.7,0-14-6.3-14-14.1c0-7.8,6.3-14.1,14-14.1c7.7,0,14,6.3,14,14.1C673,177.7,666.7,184,659,184z M619.1,163.2h-37.3
	c-9.6,0-17.4-7.8-17.4-17.4V36c0-15.8-12.8-28.6-28.6-28.6H241v12.7h293.3c9.6,0,17.4,7.8,17.4,17.4v109.7
	c0,15.8,12.8,28.6,28.6,28.6h38.8V163.2z"/>
</svg>
