<svg xmlns="http://www.w3.org/2000/svg" xmlns:xlink="http://www.w3.org/1999/xlink" width="260" height="22.038"><g fill="#fcfdf8"><path d="M78.488 12.812h11.138V8.924H78.488V4.4h12.78V.153h-16.83v21.47h16.83v-4.18h-12.78zM16.96 8.74H4.055V.153H0v21.45h4.055v-8.585h12.9v8.585h4.05V.153H16.96zM126.695.153h-4.05v21.47H139.4v-4.18h-12.7z"/><use xlink:href="#B"/><use xlink:href="#C"/><use xlink:href="#D"/><use xlink:href="#E"/><path d="M40.826.152h4.963l-9.1 14.708v6.74h-4.13v-6.74L23.46.152h4.963l6.2 10.35z"/></g><path d="M216.648.152h20.03v4.05h-20.03zm31.247 8.346h4.05v13.12h-4.05zM239.97.152H260v4.05h-20.03z" fill="#f51e37"/><g fill="#fcfdf8"><path d="M78.488 12.812h11.138V8.924H78.488V4.4h12.78V.153h-16.83v21.47h16.83v-4.18h-12.78zM16.96 8.74H4.055V.153H0v21.45h4.055v-8.585h12.9v8.585h4.05V.153H16.96zM126.695.153h-4.05v21.47H139.4v-4.18h-12.7z"/><use xlink:href="#B"/><use xlink:href="#C"/><use xlink:href="#D"/><use xlink:href="#E"/><path d="M40.826.152h4.963l-9.1 14.708v6.74h-4.13v-6.74L23.46.152h4.963l6.2 10.35z"/></g><path fill="#f51e37" d="M224.572 8.498h4.05v13.12h-4.05z"/><path d="M112.857 17.443a1.41 1.41 0 0 1-1.2-.7l-1.078-1.807a7.26 7.26 0 0 0 5.145-7.278c-.01-3.614-2.33-7.5-7.4-7.5h-11.8v21.465h4.05v-6.5h5.292l2.1 3.54c.868 1.435 1.55 2.95 4.372 2.95h5.862v-4.17zM108.443 11h-7.876v-6.6h7.876c.89-.022 1.742.352 2.328 1.022a3.72 3.72 0 0 1 0 4.547c-.586.67-1.44 1.043-2.328 1.02z" fill="#fcfdf8"/><path d="M216.648.152h20.03v4.05h-20.03zm31.247 8.346h4.05v13.12h-4.05zM239.97.152H260v4.05h-20.03z" fill="#f51e37"/><defs ><path id="B" d="M152.643 0c-6.04 0-10.593 4.737-10.593 11.02-.05 2.9 1.027 5.726 3.007 7.86 1.985 2.053 4.73 3.197 7.586 3.16 6.04 0 10.593-4.737 10.593-11.02S158.686 0 152.643 0zM159 11.02h0c0 4.12-2.563 6.692-6.356 6.692s-6.356-2.573-6.356-6.692h0c0-4.12 2.563-6.692 6.356-6.692S159 6.9 159 11.02z"/><path id="C" d="M177.542 0c-6.04 0-10.593 4.737-10.593 11.02-.05 2.9 1.027 5.726 3.007 7.86 1.985 2.053 4.73 3.197 7.586 3.16 6.04 0 10.593-4.737 10.593-11.02S183.58 0 177.542 0zm6.356 11.02h0c0 4.12-2.563 6.692-6.356 6.692s-6.356-2.573-6.356-6.692h0c0-4.12 2.563-6.692 6.356-6.692s6.356 2.574 6.356 6.692z"/><path id="D" d="M204.39.152h-11.8v21.47h4.05V15.24h7.753c5.1-.032 7.41-3.952 7.4-7.582S209.46.152 204.39.152zm3.227 7.552a3.53 3.53 0 0 1-.774 2.273 3 3 0 0 1-2.328 1.022h-7.876v-6.6h7.876a3 3 0 0 1 2.328 1.022 3.53 3.53 0 0 1 .774 2.273z"/><path id="E" d="M62.616.152h-11.8v21.47h4.05V15.24h7.753c5.1-.032 7.41-3.952 7.4-7.582S67.687.152 62.616.152zm3.227 7.552a3.53 3.53 0 0 1-.775 2.273c-.586.67-1.44 1.044-2.328 1.022h-7.876v-6.6h7.88c.89-.022 1.742.352 2.328 1.022a3.53 3.53 0 0 1 .775 2.273z"/></defs></svg>