<?xml version="1.0" encoding="utf-8"?>
<!-- Generator: Adobe Illustrator 20.0.0, SVG Export Plug-In . SVG Version: 6.00 Build 0)  -->
<svg version="1.1" xmlns="http://www.w3.org/2000/svg" xmlns:xlink="http://www.w3.org/1999/xlink" x="0px" y="0px"
	 viewBox="0 0 510 510" preserveAspectRatio="xMinYMid" style="enable-background:new 0 0 510 510;" xml:space="preserve">
<style type="text/css">
	.st0{display:none;}
	.st1{display:inline;fill:#303030;}
	.st2{display:none;fill:#FFFFFF;stroke:#868485;stroke-width:0.1071;stroke-miterlimit:10;}
	.st3{fill:#FFFFFF;}
</style>
<g id="Calque_2" class="st0">
	<rect class="st1" width="510" height="510"/>
</g>
<g id="svg18516" inkscape:version="0.91 r13725" sodipodi:docname="Logo PSG.svg" xmlns:cc="http://creativecommons.org/ns#" xmlns:dc="http://purl.org/dc/elements/1.1/" xmlns:inkscape="http://www.inkscape.org/namespaces/inkscape" xmlns:rdf="http://www.w3.org/1999/02/22-rdf-syntax-ns#" xmlns:sodipodi="http://sodipodi.sourceforge.net/DTD/sodipodi-0.dtd" xmlns:svg="http://www.w3.org/2000/svg">
	
		<sodipodi:namedview  bordercolor="#666666" borderopacity="1.0" fit-margin-bottom="5" fit-margin-left="5" fit-margin-right="5" fit-margin-top="5" id="base" inkscape:current-layer="layer1" inkscape:cx="42.378536" inkscape:cy="233.56858" inkscape:document-units="px" inkscape:pageopacity="0.0" inkscape:pageshadow="2" inkscape:window-height="987" inkscape:window-maximized="1" inkscape:window-width="1680" inkscape:window-x="-8" inkscape:window-y="-8" inkscape:zoom="1" pagecolor="#ffffff" showgrid="false" units="px">
		</sodipodi:namedview>
	<g id="layer1" transform="translate(-540.24059,-417.3874)" inkscape:groupmode="layer" inkscape:label="Calque 1">
		<path id="path7995" inkscape:connector-curvature="0" class="st2" d="M795.2,895.3c-123.1,0-222.9-99.8-222.9-222.9
			c0-123.1,99.8-222.9,222.9-222.9c123.1,0,223,99.8,223,222.9C1018.2,795.5,918.4,895.3,795.2,895.3L795.2,895.3z M959.4,508.2
			c-43.8-43.9-102.1-68-164.2-68c-62,0-120.3,24.1-164.1,68c-43.9,43.8-68,102.1-68,164.1c0,62,24.1,120.3,68,164.2
			c43.8,43.8,102.1,68,164.1,68c62,0,120.3-24.2,164.2-68c43.8-43.8,68-102.1,68-164.2C1027.4,610.3,1003.2,552.1,959.4,508.2
			L959.4,508.2z M909.5,730.5c-56.2-42.2-90.4-101.7-96-183.8c62,8.8,109.6,62,109.6,126.4C923.1,693.8,918.2,713.2,909.5,730.5
			L909.5,730.5z M841.2,792.4c-14.2,5.5-29.7,8.5-45.8,8.5c-16.2,0-31.6-3-45.8-8.5c-5.2-7.9-8.2-17.2-8.2-27.2
			c0-28.3,24.2-51.3,54-51.3c29.8,0,54,23,54,51.3C849.4,775.2,846.4,784.5,841.2,792.4L841.2,792.4z M681.3,730.5
			c-8.7-17.2-13.6-36.7-13.6-57.4c0-64.4,47.7-117.7,109.7-126.4C771.8,628.8,737.6,688.3,681.3,730.5z M795.4,536.3
			c-75.5,0-136.9,61.4-136.9,136.9c0,75.5,61.4,136.9,136.9,136.9c75.5,0,136.9-61.4,136.9-136.9
			C932.3,597.6,870.9,536.3,795.4,536.3z"/>
		<path id="path9323" inkscape:connector-curvature="0" class="st3" d="M782.9,465v57.2c3.8-0.3,7.7-0.5,11.6-0.5v-17.4H809
			l12.5,19.8c5,0.9,9.9,2,14.7,3.4l-15-24c8.6-2.3,15.7-9.9,15.7-18.9c0-10.8-10.2-19.6-21.1-19.6L782.9,465L782.9,465z
			 M794.5,475.2h21.3c5.2,0,9.5,4.2,9.5,9.5c0,5.2-4.2,9.5-9.5,9.5h-21.3L794.5,475.2L794.5,475.2z M719.8,478.9l-4.3,65.1
			c3.9-2.4,7.8-4.5,11.9-6.5l0.6-15.2c7.9-3.5,16-6.3,24.5-8.5l10,11.5c4.4-0.9,8.8-1.7,13.4-2.3l-44-48.3
			C727.7,475.9,723.7,477.3,719.8,478.9 M729.4,487.2l16.2,18.5c-5.8,1.7-11.6,3.7-17.2,6L729.4,487.2z M847,531.1
			c3.8,1.4,7.4,2.9,11,4.6l22-53c-3.6-1.6-7.3-3.1-11-4.5L847,531.1z M664.7,506.9l-23.9,26.3l41.7,38c2.6-2.8,5.4-5.6,8.2-8.2
			l-13-11.9l16.1-17.7c7.3-8,7.3-20.9-0.7-28.2c-3.7-3.3-8.4-4.9-13.1-4.9C674.3,500.2,668.7,502.5,664.7,506.9 M656.1,531.4
			l15.6-17.1c3.5-3.9,9.5-4.2,13.4-0.7c3.8,3.5,4.1,9.6,0.6,13.4l-15.6,17.2L656.1,531.4L656.1,531.4z M897.9,506.9
			c-7.5,7.1-3.2,18,3.3,24.8l6.3,6.7c6.5,6.8,12.1,13.6,6.9,17.9c-5.5,4.5-21-6.9-30.4-26.6l-8.4,6.3c2,5.2,6.5,12.7,12.6,19.1
			c6.8,7.2,14.3,11.9,21,13.2c5.3,1,10.5,0.3,13.9-3c8.6-8,5.5-19.6-8-33.9l-5.6-5.9c-6.2-6.6-3.7-10.3-1.3-10.8
			c8.6-2,24.4,13.6,27.4,24.3c2.6-1.9,8.1-6,8.1-6c-5.2-14.9-22.7-29.8-36.1-29.8C904,503.2,900.6,504.4,897.9,506.9"/>
		<g>
			<path class="st3" d="M795.4,536.3c-75.5,0-136.9,61.4-136.9,136.9c0,75.5,61.4,136.9,136.9,136.9c75.5,0,136.9-61.4,136.9-136.9
				C932.3,597.6,870.9,536.3,795.4,536.3z M795.1,545.5c3.9,0,7.8,0.2,11.6,0.6c0.9,48.4,12.7,89.7,32.7,124.7h-88.6
				c20-35,31.8-76.4,32.7-124.7C787.2,545.7,791.1,545.5,795.1,545.5z M667.7,673.1c0-64.4,47.7-117.7,109.7-126.4
				c-5.6,82.1-39.8,141.6-96.1,183.8C672.6,713.3,667.7,693.8,667.7,673.1z M841.2,792.4c-14.2,5.5-29.7,8.5-45.8,8.5
				c-16.2,0-31.6-3-45.8-8.5h0c-5.2-7.9-8.2-17.2-8.2-27.2c0-28.3,24.2-51.3,54-51.3c29.8,0,54,23,54,51.3
				C849.4,775.2,846.4,784.5,841.2,792.4z M862.3,781.8c0.6-3.4,0.9-6.8,0.9-10.3c0-35.2-30.5-63.7-68.1-63.7
				c-37.7,0-68.1,28.5-68.1,63.7c0,3.5,0.3,7,0.9,10.3c-15.8-9.8-29.3-23-39.5-38.5c23.7-19.1,43.9-41.5,59.5-67.5h94.4
				c15.7,26,35.9,48.4,59.6,67.5l0,0C891.6,758.8,878.1,772,862.3,781.8z M909.5,730.5c-56.2-42.2-90.4-101.7-96-183.8
				c62,8.8,109.6,62,109.6,126.4C923.1,693.8,918.2,713.2,909.5,730.5z"/>
			<path class="st3" d="M959.4,508.2c-43.8-43.9-102.1-68-164.1-68c-62,0-120.3,24.1-164.1,68l0,0c-43.9,43.8-68,102.1-68,164.1
				c0,62,24.1,120.3,68,164.2c43.8,43.8,102.1,68,164.1,68c62,0,120.3-24.2,164.1-68c43.8-43.8,68-102.1,68-164.2
				C1027.4,610.3,1003.2,552.1,959.4,508.2z M795.2,895.3c-123.1,0-222.9-99.8-222.9-222.9c0-123.1,99.8-222.9,222.9-222.9
				c123.1,0,223,99.8,223,222.9C1018.2,795.5,918.4,895.3,795.2,895.3z"/>
		</g>
		<path id="s" inkscape:connector-curvature="0" class="st3" d="M673.1,790.5c-1.7-6.5-8.4-12.9-13.4-12.9c-1.1,0-2.1,0.3-3,0.9
			c-1,0.8-1.6,1.8-1.8,3c-0.3,1.9,0.5,4.3,2,6.4l2.3,3.1c1.7,2.3,3.5,4.8,3.1,6.8c-0.1,0.8-0.6,1.4-1.3,1.9
			c-0.4,0.3-0.9,0.4-1.4,0.4c-3.1,0-8.3-5.5-10.9-13.4l0-0.2l-2.3,2.1l0,0v0.1c0.5,2,1.8,5.2,4.1,8.2c2.4,3.2,5.1,5.4,7.7,6.2
			c0.8,0.2,1.6,0.4,2.4,0.4c1.1,0,2.1-0.3,2.9-0.8c1.2-0.9,2-2,2.2-3.4c0.4-2.5-0.9-5.9-4-9.9l-2-2.7c-1.6-2.1-1.6-3.5-1.2-4.3
			c0.3-0.7,0.9-1.2,1.7-1.3h0.4c3.7,0,8.9,6.1,10.2,10.8l0,0.1l0.1-0.1c0.8-0.4,1.6-0.9,2.2-1.2L673.1,790.5L673.1,790.5
			L673.1,790.5z"/>
		<path id="a" inkscape:connector-curvature="0" class="st3" d="M683.9,804.1l-7.4,3.5l5.1,4.3L683.9,804.1z M681.2,824.9l-2.7-2
			l2.3-7.6l-7.3-6.2l-7.3,3.5l-2.5-2.3l21.4-10.1l2.6,2.2L681.2,824.9L681.2,824.9z"/>
		<path id="i" inkscape:connector-curvature="0" class="st3" d="M702.3,813.1l-12,18.2l-2.6-1.7l12-18.1L702.3,813.1z"/>
		<path id="n" inkscape:connector-curvature="0" class="st3" d="M711.7,819.1l3.7,20.3l0,0l7.6-14.4l2.7,1.5l-9.9,19l-2.7-1.3
			l-3.7-20.5l-0.1-0.1l-7.7,14.6l-2.7-1.5l10-19L711.7,819.1L711.7,819.1z"/>
		<path id="t" inkscape:connector-curvature="0" class="st3" d="M748.8,834.9l-1,2.9l-7.1-2.5l-6.1,17.5l-2.9-1l6.1-17.5l-7.1-2.5
			l1-2.9L748.8,834.9L748.8,834.9z"/>
		<path id="g" inkscape:connector-curvature="0" class="st3" d="M795.8,850.9l9.8,0.2l-0.1,5.7c-0.1,3.8-4.3,6.4-9.7,6.2
			c-5.7-0.1-11.6-4.1-11.5-11.4c0.1-6.1,5.1-11,11.9-10.9c5.1,0.1,7.7,2.8,9,4l-2.2,2.2c-1-1-2.7-3-6.5-3.1c-5.7-0.1-9,3.5-9.1,8
			c-0.1,4.2,3.2,8,8.6,8.1c3.7,0,6.4-1.6,6.4-3.5l0-2.4l-6.7-0.1L795.8,850.9L795.8,850.9z"/>
		<path id="e" inkscape:connector-curvature="0" class="st3" d="M829.2,837.9l0.5,3.1l-14.3,2l0.8,5.6l7.2-1l0.4,3.1l-7.2,1l0.9,6.5
			l14.8-2.1l0.4,3l-17.9,2.5l-3-21.2L829.2,837.9L829.2,837.9z"/>
		<path id="r_1_" inkscape:connector-curvature="0" class="st3" d="M840.4,838.3l1.8,6l9.2-2.7c2.2-0.7,3.1-2.2,2.5-4.2
			c-0.7-2.3-2.7-2.4-4.4-1.8L840.4,838.3L840.4,838.3z M848.6,832.6c3.3-1,6.9-0.3,8.2,3.9c1.3,4.5-1.2,6.8-2.9,7.4l6.7,7.2
			l-3.2,1.2l-6.7-7.3l-7.6,2.3l2.6,8.6l-3,0.8l-6.2-20.5L848.6,832.6L848.6,832.6z"/>
		<path id="m" inkscape:connector-curvature="0" class="st3" d="M880.6,818.1l-2.8,1.4l-0.5,15.2l-12.6-8.5l-2.8,1.4l9.4,19.2
			l2.8-1.2l-6.5-13.7l0,0l12.5,8.4l0.5-15l0.1,0l7.3,13.3l2.7-1.5L880.6,818.1L880.6,818.1z"/>
		<path id="a_1_" inkscape:connector-curvature="0" class="st3" d="M895.7,812.5l1.6,8.1l5.5-3.9L895.7,812.5L895.7,812.5z
			 M915,820.2l-2.7,2.2l-6.6-4l-7.8,5.5l1.5,7.8l-2.7,1.7l-4.5-23l2.8-2L915,820.2L915,820.2z"/>
		<path id="i_1_" inkscape:connector-curvature="0" class="st3" d="M908.4,797.7l14.6,15.7l-2.3,2l-14.6-15.7L908.4,797.7
			L908.4,797.7z"/>
		<path id="n_1_" inkscape:connector-curvature="0" class="st3" d="M916.9,789.3l20.6,1.4l0,0l-12.1-10.9l2.1-2.3l15.9,14.3
			l-1.8,2.3l-20.8-1.4l0,0l12.2,11l-2.2,2.2l-16-14.4L916.9,789.3L916.9,789.3z"/>
		<path id="_x2D_" inkscape:connector-curvature="0" class="st3" d="M767.2,851.8l-7.6-1.7l0.7-3l7.6,1.7L767.2,851.8L767.2,851.8z"
			/>
		<path id="path9983" inkscape:connector-curvature="0" class="st3" d="M676.7,807.3l7.6-4l-2.5,8.3L676.7,807.3z M685.1,799.7
			l-21.6,10.3l2.4,2.1l0.4-0.1h0l7.1-3.5l7.7,6.5l-2.4,7.5l0.1,0.1l-0.1,0.2l2.3,1.6v0l0,0l0.1-0.2l0,0v0l0,0l6.7-22.2L685.1,799.7
			L685.1,799.7z"/>
		<path id="path9987" inkscape:connector-curvature="0" class="st3" d="M702.5,812.9l-2.8-1.8l0,0l0,0l-12.1,18.4l2.7,1.7h0l0.1-0.2
			l0,0L702.5,812.9L702.5,812.9z"/>
		<path id="path9991" inkscape:connector-curvature="0" class="st3" d="M723,824.7l-7.6,14.5l-3.7-20.4l-2.5-1.4l-0.2-0.1v0l0,0
			l-10.1,19.3l2.3,1.3l0.3,0.1l0.1-0.3l0-0.1l0.1,0.1h0l0.1-0.2l0.1,0v0l0,0l7.6-14.5l3.8,19.9l2.7,1.2v0l0,0l0-0.1l0.1,0h0l0.1-0.1
			h0.1l9.7-17.8L723,824.7L723,824.7z"/>
		<path id="path8445" inkscape:connector-curvature="0" class="st3" d="M793.6,776.3c-0.4,1.7-1.6,3.2-3,4.1
			c-0.3,0.1-0.3,0.3-0.2,0.5c0.9,1.8,2.4,4,4.3,5.5c0.2,0.2,0.4,0.2,0.4,0.2c0,0,0.1,0,0.4-0.2c1.9-1.5,3.4-3.7,4.3-5.5
			c0.1-0.2,0.1-0.4-0.2-0.5c-1.5-0.9-2.6-2.4-3-4.1c-0.2-0.7-0.8-1.1-1.5-1.1C794.4,775.2,793.7,775.7,793.6,776.3z"/>
		<path id="path8467" inkscape:connector-curvature="0" class="st3" d="M794.5,730.5c-2.5,2-8.4,16.4-8.4,21.3
			c0,3.9,7.9,14.1,7.9,19.7c0,0.6,0.4,1,1,1c0.6,0,1-0.5,1-1v0c0-5.6,7.8-15.8,7.8-19.7c0-5.2-6.8-21.5-8.9-21.5
			C794.9,730.3,794.7,730.4,794.5,730.5L794.5,730.5z"/>
		<path id="path8489" inkscape:connector-curvature="0" class="st3" d="M764.9,765.1c0,5,4,9,9.1,9c1.5,0,3.1-0.7,3.8-1.6
			c1.3-1.5,1-3,0.9-3.3c-0.1-0.3-0.5-0.2-0.6-0.2c-0.1,0-0.4,0-0.5,0c-1.7,0-3.1-1.4-3.1-3c0-1.7,1.4-3,3.1-3c3,0,8.2,2.9,11,9v0.1
			c0.2,0.3,0.6,0.6,1,0.6c0.6,0,1.1-0.5,1.1-1.1c0-0.2,0-0.3-0.1-0.5c-3.7-9.7-10.1-15.1-16.7-15.1C769,756,764.9,760,764.9,765.1
			L764.9,765.1z"/>
		<path id="path8511" inkscape:connector-curvature="0" class="st3" d="M799.2,771.1c-0.1,0.1-0.1,0.3-0.1,0.5
			c0,0.6,0.5,1.1,1.1,1.1c0.4,0,0.8-0.3,1-0.6c0,0,0-0.1,0-0.1l0,0c2.8-6.1,8.1-9,11-9c1.7,0,3,1.3,3,3c0,1.7-1.4,3-3,3
			c-0.2,0-0.4,0-0.5,0c-0.2,0-0.5-0.1-0.6,0.2c-0.1,0.3-0.4,1.8,0.9,3.3c0.8,0.8,2.3,1.6,3.8,1.6c5,0,9.1-4,9.1-9
			c0-5-4.1-9.1-9.1-9.1C809.3,756,802.9,761.3,799.2,771.1L799.2,771.1z"/>
	</g>
</g>
</svg>
