<?xml version="1.0" encoding="utf-8"?>
<!-- Generator: Adobe Illustrator 20.0.0, SVG Export Plug-In . SVG Version: 6.00 Build 0)  -->
<svg version="1.1" id="Calque_1" xmlns="http://www.w3.org/2000/svg" xmlns:xlink="http://www.w3.org/1999/xlink" x="0px" y="0px"
	 viewBox="0 0 785.7 163.3" preserveAspectRatio="xMinYMid" style="enable-background:new 0 0 785.7 163.3;" xml:space="preserve">
<style type="text/css">
	.st0{fill:#FFFFFF;}
</style>
<g transform="translate(0.000000,327.000000) scale(0.100000,-0.100000)">
	<path class="st0" d="M4373.3,2665.3v-604.7h107.4h107.4V2307c0,267.9,2,288.9,28.5,343.3c16.5,34.5,56,74,89,90
		c37,18,110.4,20.5,146.4,5c28.5-12.5,58-41.5,70-69.5c21.5-51,22.5-62,24.5-343.8l2.5-271.4H5056h107.4l-1.5,303.8
		c-2,294.9-2,304.3-13,343.3c-38,137.9-129.4,218.4-263.9,232.4c-111.4,11.5-215.4-30.5-274.9-110.9l-22-30v235.4V3270h-107.4
		h-107.4V2665.3z"/>
	<path class="st0" d="M340.3,2940.2c-110.4-10.5-207.9-62-254.4-133.9c-55.5-87-50-211.4,12.5-280.9c24-26.5,68.5-56,106.4-70.5
		c15.5-5.5,66.5-20.5,112.9-32.5c107.4-28.5,153.4-49.5,167.4-77c29.5-58-5.5-119.4-77.5-135.4c-36-8-103.4-3.5-139.9,10
		c-35,12.5-90.5,49-112.4,74l-15,17L70,2245l-70-66.5l19-19.5c83-85.5,252.4-136.4,396.3-118.9c122.4,15,198.9,54.5,250.9,129.4
		c32,46.5,48.5,125.4,39,187.4c-16.5,107.9-95.5,174.4-257.4,215.9c-105.4,27.5-159.9,46.5-176.9,62c-20.5,19-28,47-20.5,75.5
		c8,30,29,48,71,60.5c75.5,23,160.4,1.5,221.4-56l27.5-26l11.5,10c6,5.5,37.5,33,70,62l59.5,52l-33,31c-56,53-140.4,86-246.9,96.5
		c-26.5,2.5-49.5,4.5-51,4C378.8,2944.2,360.8,2942.2,340.3,2940.2z"/>
	<path class="st0" d="M1157.4,2939.7c-248.9-24-414.3-223.4-400.8-483.8c11-205.9,129.9-353.3,326.3-402.8
		c91.5-23.5,203.4-21,289.4,6c49,15.5,80.5,31,120.4,59c32.5,23.5,87,79,87,89c-0.5,5-111.9,97.5-132.9,109.4
		c-4,2.5-17.5-7.5-38-27.5c-56.5-56.5-112.4-76-206.4-72.5c-49.5,2-59,4-90,18.5c-80,37-125.4,92-139.4,166.9l-3.5,18.5h324.3h324.8
		l3.5,18c3.5,20-0.5,89-8.5,146.9c-15,108.4-67,207.9-141.4,269.4C1393.3,2920.7,1277.9,2951.7,1157.4,2939.7z M1267.4,2772.7
		c78.5-20.5,128.9-82.5,135.9-165.9l3-31.5h-218.4c-119.9,0-217.9,1-217.9,2.5c0,13.5,14,60,23.5,79.5c26.5,53,89,101.4,148.9,115.9
		C1177.9,2781.7,1232.9,2781.7,1267.4,2772.7z"/>
	<path class="st0" d="M2894.1,2941.7c-187.4-13-338.8-129.4-393.8-301.3c-18.5-57.5-23-91-22.5-162.4c0.5-58,2.5-78.5,13-118.9
		c46-175.9,173.4-286.4,363.3-315.8c60-9.5,104.4-9.5,164.9,0c63.5,9.5,94,19,146.4,46c42.5,22,104.9,74,128.4,105.9l9.5,14
		l-69.5,55.5c-38.5,31-71,56-72,56c-1.5,0-15-13.5-30.5-29.5c-31.5-33.5-80.5-61.5-121.4-70c-43-9-115.4-7-151.9,4.5
		c-83.5,25.5-151.9,98.5-161.9,171.4l-3.5,23.5l324.3,1l324.3,1.5l1.5,42.5c1,23.5-1,65-4,92c-22,192.9-125.4,325.3-287.4,369.3
		c-27,7.5-117.4,19.5-129.9,17.5C2919,2943.7,2906.6,2942.7,2894.1,2941.7z M2980,2774.7c83.5-18,132.9-77,146.4-175.4l3-24H2911
		h-218.4l3,25c9,76.5,90,157.9,173.4,174.4C2901.6,2781.2,2949.5,2781.2,2980,2774.7z"/>
	<path class="st0" d="M3873.6,2940.2c-85-10-163.9-59.5-210.9-131.9l-19-29.5v71v70.5l-100.9-1l-101.4-1.5v-427.3v-427.3h107.4
		h107.4l2.5,269.9c2.5,262.4,3,270.4,13.5,296.4c23.5,58,52.5,91,101.4,116.4c34,17.5,108.4,20,143.9,4.5
		c47.5-20.5,81-71.5,91-137.4c2.5-20,5-146.9,5-293.4v-258.9h107.4h107.9l-1.5,308.8l-1.5,308.3l-14,45
		c-18.5,59-45.5,103.9-85.5,140.9C4062.5,2924.2,3971,2951.7,3873.6,2940.2z"/>
	<path class="st0" d="M6549.7,2939.7c-183.9-19-322.8-155.4-360.3-352.3c-11-59.5-7.5-162.4,7.5-219.4
		c47-177.4,181.4-296.9,356.8-317.8c120.4-14,232.4,22,306.8,99.5l27.5,28.5l-2.5-70c-5-114.9-27-177.4-80-225.4
		c-49.5-44.5-121.4-65-208.9-60c-90,5.5-170.4,35.5-243.9,90.5c-20,15.5-37.5,27.5-38,26.5c-23.5-28.5-117.4-159.4-117.4-163.4
		c0-8,77-57,115.4-74.5c43.5-19.5,102.9-39,156.9-51c59.5-13.5,180.9-18.5,242.9-10c199.4,27,322.8,135.4,369.3,324.3
		c19,76.5,20.5,123.9,19,545.2l-1.5,407.3l-100.9,1.5l-101.4,1v-65.5v-65.5l-22.5,30.5C6807.6,2908.2,6685.2,2953.7,6549.7,2939.7z
		 M6709.7,2758.3c106.4-28.5,177.4-120.4,185.4-241.9c10-144.9-82.5-267.9-215.4-286.4c-127.4-17.5-236.4,61-270.4,195.4
		c-11.5,45-7.5,130.4,7.5,174.9c28,80.5,89,139.4,162.9,157.9C6613.2,2766.8,6679.2,2766.8,6709.7,2758.3z"/>
	<path class="st0" d="M7486.3,2939.7c-90.5-9.5-165.9-41.5-216.4-91c-50.5-49.5-73-104.4-73-178.9c0-80.5,30.5-140.4,92-181.4
		c39.5-26.5,74-39.5,171.4-65c158.4-41.5,181.4-57.5,181.4-121.9c0-39-17-64-55.5-81c-33-14.5-92-18.5-135.9-10
		c-43,8-101.4,40-134.4,72.5l-27,27l-71-65.5l-71-66l14-14.5c53-56.5,159.4-105.9,260.9-120.9c60-9.5,100-9.5,161.4,0
		c174.4,26,272.9,124.4,273.4,273.4c0,63.5-17.5,109.9-59,154.9c-49,52.5-101.9,76.5-263.4,118.4c-113.4,29.5-140.9,51-136.4,107.4
		c2,22,5.5,31.5,16.5,42.5c20.5,21.5,58.5,36,101.9,39c66.5,4.5,125.9-17.5,179.4-67c12.5-11.5,25-19.5,28-18c3,2,34,29,69.5,60.5
		l63.5,56.5l-9.5,14c-13.5,18.5-56.5,51-90.5,68C7681.2,2930.7,7573.7,2949.2,7486.3,2939.7z"/>
	<path class="st0" d="M1594.7,2914.7c0-5.5,331.3-828.6,340.3-845.6c4.5-8,14-8.5,118.4-7.5l113.4,1.5l168.4,422.3
		c92.5,232.4,168.4,425.3,168.4,428.8c0.5,4.5-25,6-111.4,6h-112.4l-9.5-26c-5.5-14.5-56.5-155.4-113.4-312.8
		C2100,2423.9,2052,2296,2051,2297c-1,1.5-52,141.4-113.4,311.3l-110.9,309.3l-115.9,1.5C1628.7,2920.2,1594.7,2918.7,1594.7,2914.7
		z"/>
	<path class="st0" d="M5294.9,2913.2c-1.5-4-2-139.4-0.5-301.3c1.5-283.9,2-295.4,13-336.3c31-119.4,104.4-198.9,210.4-227.4
		c76-20.5,161.4-13,229.4,20.5c41.5,20.5,101.9,76,119.4,109.4l10.5,20l0.5-68.5v-69H5980h102.4v429.8v429.8l-105.9-1l-106.4-1.5
		l-2.5-264.9c-3-283.9-2.5-277.9-30.5-333.8c-19.5-38.5-48.5-66-88.5-85c-29.5-14-38.5-15.5-78.5-15.5c-34,0-49,2-62.5,9
		c-31,16-49.5,33-63,56c-30.5,51.5-29.5,40-32,349.3l-2.5,284.9l-106.4,1.5C5315.3,2920.2,5297.4,2919.2,5294.9,2913.2z"/>
</g>
</svg>
