<?xml version="1.0" encoding="utf-8"?>
<!-- Generator: Adobe Illustrator 20.0.0, SVG Export Plug-In . SVG Version: 6.00 Build 0)  -->
<svg version="1.1" id="Calque_1" xmlns="http://www.w3.org/2000/svg" xmlns:xlink="http://www.w3.org/1999/xlink" x="0px" y="0px"
	 viewBox="0 0 668.2 214.6" preserveAspectRatio="xMinYMid" style="enable-background:new 0 0 668.2 214.6;" xml:space="preserve">
<style type="text/css">
	.st0{fill:#FFFFFF;}
</style>
<path class="st0" d="M249.4,179.1c0-0.2-0.1-0.6-0.1-0.8c0-0.5-0.1-0.9-0.2-1.3c0-0.1,0-0.3-0.1-0.4c-0.4-2.8-1.1-5.2-2.2-8.2
	c-1-2.8-2.7-6.5-4-8.6c-0.1-0.1-0.2-0.4-0.3-0.6c-0.1-0.2-0.3-0.6-0.6-1c-0.2-0.4-0.6-0.9-0.7-1.2c-0.5-0.8-2.3-3.6-2.7-4.1
	c-0.2-0.3-0.4-0.6-0.5-0.7c-0.2-0.3-1.4-1.9-1.5-2c0,0-0.1-0.2-0.2-0.3c-0.1-0.1-0.2-0.2-0.2-0.3c0,0-0.2-0.3-0.4-0.5
	c-0.2-0.2-0.3-0.4-0.3-0.4c0,0-0.2-0.2-0.3-0.4s-0.4-0.5-0.6-0.7c-0.2-0.2-0.4-0.5-0.6-0.7c-0.2-0.2-0.3-0.4-0.4-0.4
	c0,0-0.2-0.2-0.3-0.4c-0.2-0.2-0.7-0.9-1.5-1.7c-0.1-0.1-0.4-0.4-0.5-0.6c-1.2-1.4-3.5-3.6-5.2-5.3c-0.6-0.6-1.4-1.3-1.6-1.5
	c-0.2-0.2-0.5-0.4-0.5-0.4c0,0-0.1-0.1-0.2-0.2c-0.1-0.1-0.5-0.5-0.8-0.7s-0.7-0.6-0.7-0.6c-0.1-0.1-0.3-0.2-0.4-0.4
	c-0.2-0.1-0.3-0.3-0.4-0.3c0-0.1-0.1-0.1-0.1,0c0,0,0,0-0.1,0c0,0-0.2-0.1-0.3-0.2c-0.4-0.2-1.3-1-1.3-1.2c0,0,0-0.1-0.1,0
	c0,0-0.1,0-0.2-0.1c-0.1-0.1-0.3-0.2-0.4-0.4c-0.2-0.1-0.3-0.3-0.3-0.3s0-0.1-0.1-0.1c-0.1,0-0.1,0-0.1-0.1c0-0.1,0-0.1,0-0.1
	c0,0-0.1,0-0.2-0.2c-0.1-0.1-0.2-0.2-0.2-0.2c0,0-0.2-0.1-0.3-0.2c-0.4-0.4-1-0.9-1.1-0.9c0,0,0,0,0-0.1c0,0,0-0.1-0.1-0.1
	s-0.1,0-0.1-0.1c0,0,0-0.1-0.1-0.1c-0.1,0-0.3-0.2-0.6-0.4c-0.7-0.7-0.9-0.8-1-0.8s-0.1-0.1-0.7-0.6c-0.2-0.2-0.3-0.3-0.4-0.3
	c-0.1,0-0.1-0.1-0.1-0.1c0-0.1-0.1-0.1-0.1-0.1c0,0-0.2-0.1-0.4-0.3c-0.1-0.2-0.4-0.4-0.6-0.5c-0.2-0.1-0.3-0.2-0.3-0.3
	c0,0,0-0.1,0,0c0,0-0.2,0-0.3-0.1c-0.1-0.1-0.3-0.3-0.4-0.3c-0.1-0.1-0.2-0.2-0.2-0.2c0,0,0-0.1-0.1-0.1c-0.1,0-0.1,0-0.1-0.1
	c0,0-0.1-0.1-0.1-0.1c-0.1,0-0.1,0-0.1-0.1c0,0,0-0.1-0.1-0.1c-0.1,0-0.2-0.1-0.6-0.5c-0.1-0.1-0.2-0.1-0.2-0.1c0,0-0.1,0,0-0.1
	c0,0,0-0.1,0,0c-0.1,0.1-0.4-0.2-1-0.7c-0.1-0.1-0.2-0.2-0.2-0.1c0,0-0.1,0-0.1-0.1c-0.3-0.2-0.3-0.3-0.4-0.3c0,0-0.1-0.1-0.2-0.2
	c-0.1-0.1-0.2-0.2-0.3-0.2c-0.1,0-0.1-0.1-0.2-0.1c0-0.1-0.1-0.1-0.1-0.1c0,0-0.1,0-0.1-0.1c0-0.1-0.1-0.1-0.1-0.1
	c0,0-0.1,0-0.1-0.1c0-0.1-0.2-0.2-0.4-0.3c-0.2-0.1-0.4-0.2-0.4-0.3c-0.1-0.1-0.1-0.1-0.2-0.1c0,0-0.1,0,0-0.1c0,0,0-0.1,0-0.1
	c-0.2,0-0.3,0-0.2-0.1c0,0,0-0.1,0,0c0,0-0.1,0-0.2-0.1c-0.1-0.1-0.2-0.1-0.2-0.1c0,0-0.1,0-0.1-0.1c0,0-0.1-0.1-0.1-0.1
	c-0.1,0-0.1,0-0.1-0.1c0,0,0-0.1-0.1-0.1c-0.1,0-0.2-0.1-0.2-0.2c-0.1-0.1-0.1-0.1-0.1-0.1c0,0.1-0.3-0.1-0.5-0.3
	c-0.1,0-0.1-0.1-0.2-0.2c-0.1,0-0.2-0.1-0.3-0.1c-0.1,0-0.2-0.1-0.2-0.2c0-0.1,0-0.1-0.1-0.1c0,0-0.1,0-0.2-0.1
	c-0.1-0.1-0.2-0.2-0.3-0.2c-0.1-0.1-0.2-0.1-0.2-0.2c0,0,0-0.1,0,0c-0.1,0-0.4-0.1-0.4-0.2c0-0.1,0-0.1,0,0
	c-0.1,0.1-0.7-0.3-0.6-0.3c0,0,0,0-0.1-0.1c-0.2,0-1-0.5-1-0.6c0,0-0.1-0.1-0.1-0.1s-0.1,0-0.1-0.1c0,0-0.1-0.1-0.1-0.1
	c-0.1,0-0.1,0-0.1-0.1c0,0,0-0.1,0,0c0,0-0.2,0-0.4-0.1c-0.2-0.1-0.4-0.2-0.5-0.3c-0.1-0.1-0.3-0.1-0.3-0.2c0,0,0,0-0.1,0
	c0,0-0.1,0-0.2-0.1c-0.1-0.1-0.2-0.2-0.2-0.2c-0.2,0-0.5-0.2-0.5-0.3c0,0,0,0-0.1,0c0,0-0.1,0-0.1,0c0,0,0-0.1-0.1-0.1
	c-0.1,0-0.2-0.1-0.3-0.2c-0.1-0.1-0.2-0.1-0.2-0.1c0,0.1-0.5-0.2-0.6-0.3c0,0-0.1-0.1-0.1,0c0,0.1-0.5-0.2-0.6-0.3
	c0,0-0.2-0.1-0.4-0.2c-0.2-0.1-0.3-0.2-0.3-0.2c0,0,0,0-0.1,0c-0.1,0-0.1,0-0.1,0c0,0,0-0.1-0.1,0c0,0-0.1,0-0.1-0.1
	c0-0.1-0.1-0.1-0.1-0.1c0,0-0.1,0-0.2-0.1c-0.1-0.1-0.1-0.1-0.2-0.1c0,0-0.1,0-0.2-0.1c-0.1-0.1-0.3-0.2-0.4-0.2
	c-0.1-0.1-0.3-0.1-0.3-0.2c0,0-0.1-0.1-0.2-0.1s-0.2,0-0.2-0.1c0,0,0-0.1,0,0c-0.1,0.1-0.8-0.3-0.9-0.5c-0.1-0.1-0.2-0.2-0.2-0.2
	c-0.1,0-0.2-0.1-0.5-0.4c-0.1-0.1-0.2-0.2-0.3-0.2c-0.1,0-0.1,0-0.1-0.1c0,0,0-0.1-0.1-0.1c0,0-0.2-0.1-0.4-0.2
	c-0.4-0.2-0.9-0.5-1.9-1.1c-0.3-0.2-0.8-0.4-1.1-0.6c-1.2-0.6-3.3-1.7-3.4-1.7c-0.1,0-0.1,0-0.1-0.1c0,0-0.1-0.1-0.3-0.2
	c-0.1-0.1-0.6-0.3-1.1-0.5c-0.4-0.2-1.1-0.5-1.4-0.6s-0.8-0.3-0.9-0.4c-0.9-0.4-2.5-1.1-3.1-1.3c-0.5-0.2-0.7-0.3-1-0.4
	c-0.1,0-0.5-0.2-0.9-0.3c-0.4-0.1-0.8-0.3-0.8-0.3c-0.1,0-0.2-0.1-0.3-0.1c-0.1,0-0.2,0-0.3-0.1c-0.4-0.2-0.5-0.2-0.6-0.2
	c-0.2,0-0.4-0.3-0.3-0.4c0.1-0.2,0.3-1,0.3-1.2c0-0.1,0.1-0.5,0.2-0.9c0.1-0.4,0.2-0.8,0.2-1c0-0.1,0-0.3,0.1-0.3
	c0,0,0.1-0.4,0.2-0.7c0.1-0.4,0.2-0.7,0.2-0.8c0-0.1,0.1-0.2,0.1-0.4c0-0.2,0.1-0.3,0.1-0.4c0,0,0-0.2,0.1-0.4s0.1-0.4,0.1-0.6
	c0-0.1,0.1-0.3,0.1-0.4c0-0.1,0.1-0.3,0.1-0.4c0-0.1,0.1-0.3,0.1-0.4c0-0.1,0.1-0.3,0.1-0.4c0.1-0.6,0.4-2.2,0.5-2.6
	c0-0.1,0.1-0.3,0.1-0.4s0.1-0.4,0.1-0.6c0-0.2,0.1-0.4,0.1-0.5c0-0.1,0.1-0.3,0.1-0.4c0-0.2,0-0.4,0.1-0.5c0.1-0.3,0.3-1.7,0.3-2
	c0-0.1,0.1-0.4,0.1-0.6c0-0.2,0.1-0.6,0.1-0.9c0-0.3,0.1-0.7,0.1-0.9c0-0.2,0.1-0.5,0.1-0.6c0-0.1,0.1-0.4,0.1-0.6
	c0-0.3,0.1-0.5,0.1-0.6c0-0.1,0.1-0.4,0.1-0.7c0-0.3,0.1-0.6,0.1-0.7c0-0.1,0.1-0.5,0.1-0.8c0-0.3,0.1-0.8,0.1-0.9
	c0-0.2,0.1-0.6,0.1-0.9c0-0.3,0.1-0.8,0.1-1c0-0.2,0.1-0.7,0.1-1.1c0-0.4,0.1-1,0.1-1.2c0-0.2,0.1-0.9,0.1-1.4c0-0.5,0.1-1.5,0.1-2
	c0.1-1.4,0.1-7.6,0-9.2c-0.1-1.3-0.1-2.3-0.2-3.1c0-0.3-0.1-0.7-0.1-1.1c0-0.3-0.1-0.8-0.1-1c0-0.2-0.1-0.6-0.1-0.8
	c0-0.2-0.1-0.5-0.1-0.7c0-0.2-0.1-0.6-0.1-0.9c-0.1-0.9-0.1-1.1-0.2-1.5c0-0.2-0.1-0.4-0.1-0.6c0-0.2-0.1-0.4-0.1-0.6
	c0-0.2,0-0.4-0.1-0.5c0-0.1-0.1-0.4-0.1-0.7c0-0.2-0.1-0.5-0.1-0.6c0-0.1-0.1-0.3-0.1-0.5c0-0.2,0-0.4-0.1-0.6
	c-0.2-0.9-0.2-1.2-0.3-1.4c0-0.1-0.1-0.3-0.1-0.4s-0.1-0.3-0.1-0.4c0-0.1,0-0.3-0.1-0.4c0-0.1-0.1-0.3-0.1-0.5
	c0-0.2-0.1-0.5-0.1-0.6c0-0.2-0.1-0.4-0.1-0.6c0-0.1-0.1-0.4-0.1-0.5c0-0.1-0.1-0.2,0-0.3c0,0,0-0.1,0-0.2c0-0.1-0.1-0.3-0.1-0.5
	c0-0.2-0.1-0.5-0.2-0.9c-0.1-0.3-0.2-0.7-0.2-0.8c0-0.2-0.4-1.6-0.8-3c-0.1-0.2-0.1-0.5-0.1-0.5c0,0,0-0.1-0.1-0.2
	c0-0.1-0.1-0.5-0.3-0.9c-0.4-1.3-0.9-3-1-3.1c0-0.1-0.1-0.1-0.1-0.1c0,0-0.1-0.3-0.6-1.7c-0.3-0.8-0.4-1-0.6-1.6
	c0-0.1-0.2-0.4-0.3-0.7c-0.6-1.4-2.5-5.3-3.2-6.6c-0.4-0.7-0.8-1.3-0.9-1.6c0-0.1-0.2-0.3-0.3-0.5s-0.3-0.4-0.3-0.5
	c-0.1-0.1-0.1-0.2-0.2-0.3c0-0.1-0.3-0.4-0.5-0.8c-0.2-0.4-0.4-0.7-0.5-0.7c0,0-0.1-0.1-0.2-0.2c-0.1-0.1-0.1-0.2-0.2-0.3
	c0,0-0.4-0.5-0.7-1c-0.4-0.5-0.7-1-0.9-1.1c-0.1-0.1-0.2-0.2-0.2-0.3c0,0-0.1-0.1-0.2-0.2c-0.1-0.1-0.3-0.4-0.5-0.6
	c-0.2-0.2-0.5-0.6-0.6-0.7c-0.2-0.2-0.4-0.4-0.5-0.6c-0.5-0.6-3.8-3.8-4.3-4.1c-0.1-0.1-0.2-0.2-0.3-0.2c-0.1-0.1-0.2-0.2-0.4-0.3
	c-0.2-0.1-0.4-0.3-0.5-0.4c-0.1-0.1-0.2-0.2-0.3-0.2c0,0-0.1,0-0.2-0.1c-0.1-0.1-0.3-0.2-0.5-0.4c-0.2-0.2-0.4-0.3-0.4-0.3
	c0,0-0.1-0.1-0.1-0.1s-0.2-0.1-0.3-0.2s-0.2-0.2-0.2-0.2s-0.3-0.1-0.6-0.3c-0.3-0.2-0.5-0.3-0.6-0.3c0,0-0.1,0-0.1-0.1
	c0,0-0.1-0.1-0.2-0.1c-0.3-0.1-0.9-0.5-0.9-0.5c-0.1-0.1-1.9-1-2.8-1.3c-1-0.4-2.1-0.8-2.7-1c-0.2-0.1-0.6-0.2-0.7-0.2
	c-0.3-0.1-1.2-0.3-1.4-0.4c-0.1,0-0.4-0.1-0.6-0.1c-0.4-0.1-0.4-0.1-1.3-0.2c-1.4-0.2-2.2-0.3-3.8-0.3c-0.8,0-1.4,0-1.4,0
	c0,0-0.4,0-0.9,0.1c-1.3,0.1-2.1,0.2-3.4,0.4c-0.2,0-0.6,0.1-0.7,0.1c-0.4,0.1-1.7,0.4-2.2,0.5c-0.1,0-0.4,0.1-0.6,0.2
	c-0.4,0.1-2.2,0.8-2.6,0.9c-0.5,0.2-1,0.4-1.4,0.6c-0.6,0.2-2.3,1.1-2.4,1.2c0,0-0.1,0.1-0.2,0.1c-0.1,0.1-0.3,0.2-0.4,0.2
	c-0.1,0.1-0.2,0.1-0.2,0.1c0,0-0.1,0.1-0.3,0.2c-0.1,0.1-0.3,0.2-0.4,0.3c-0.1,0.1-0.3,0.2-0.4,0.2c-0.1,0.1-0.2,0.1-0.2,0.2
	c0,0,0,0.1-0.1,0.1c-0.1,0-0.1,0-0.1,0.1c0,0-0.2,0.2-0.4,0.3c-0.4,0.3-0.6,0.4-0.8,0.6c-0.1,0.1-0.1,0.1-0.2,0.1
	c0,0-0.2,0.1-0.3,0.2c-0.1,0.1-0.3,0.2-0.3,0.2c0,0-0.1,0.1-0.3,0.2c-0.1,0.1-0.3,0.3-0.5,0.4c-1.6,1.4-3.3,3.1-4.5,4.6
	c-0.1,0.2-0.3,0.4-0.4,0.5c-0.1,0.1-0.3,0.3-0.4,0.5c-0.1,0.2-0.2,0.3-0.3,0.3c0,0-0.6,0.7-0.7,1c-0.1,0.1-0.2,0.2-0.2,0.3
	c0,0-0.2,0.3-0.4,0.6c-0.2,0.3-0.5,0.7-0.6,0.9c-0.2,0.3-1.3,2-1.9,3.1c-0.3,0.5-1.9,3.6-2.1,4c0,0.1-0.1,0.2-0.1,0.2
	c-0.3,0.6-3.8,8.1-4.4,12.1c-0.2,0.8-0.8,3.1-1,4.2c-0.3,1.5-0.9,4.4-0.9,4.9c0,0.2-0.1,0.4-0.1,0.5c0,0.1-0.1,0.3-0.1,0.5
	s0,0.5-0.1,0.7c-0.1,0.3-0.1,0.5-0.1,1.9c0,0.4-0.1,0.9-0.1,1.1c0,0.2-0.1,0.4,0,0.4c0,0,0,0.3-0.1,0.5c-0.1,0.6-0.1,0.6-0.2,1.6
	c0,0.5-0.1,1.1-0.2,1.4c-0.1,0.7-0.1,1-0.3,2.4c-0.1,0.6-0.1,1.3-0.2,1.5c0,0.2-0.1,0.5-0.1,0.6c0,0.2,0,0.6-0.1,0.9
	c0,0.3-0.1,0.9-0.1,1.3c0,0.4-0.1,1-0.1,1.3c-0.1,0.7-0.1,8.7,0,10.3c0,0.7,0.1,1.7,0.1,2.3c0,0.6,0.1,1.2,0.1,1.5
	c0,0.2,0.1,0.5,0.1,0.5c0,0.3,0.2,3.1,0.3,3.7c0,0.4,0.1,1,0.1,1.4s0.1,0.8,0.1,0.9c0,0.1,0.1,0.4,0.1,0.6c0.1,1.1,0.2,2.1,0.3,2.2
	c0.1,0.1,0.2,0.9,0.3,2.4c0.1,0.6,0.2,1.3,0.2,1.5c0,0.2,0.1,0.6,0.2,1c0.1,0.3,0.2,0.9,0.3,1.2c0.1,0.3,0.2,0.9,0.2,1.2
	c0,0.3,0.1,0.7,0.1,0.8c0.1,0.3,0.2,0.8,0.3,1.2c0,0.2,0.1,0.4,0.2,0.6c0.1,0.1,0.1,0.4,0.1,0.6s0.1,0.7,0.2,1
	c0.2,0.9,0.3,1.2,0.4,1.7c0.1,0.6,0.4,1.8,0.5,2c0,0.1-0.1,0.3-0.3,0.3c-0.1,0-0.4,0.1-0.7,0.3c-0.3,0.2-0.7,0.3-0.7,0.3
	c-0.1,0-0.1,0-0.2,0.1c0,0-0.2,0.1-0.4,0.2c-0.2,0.1-0.4,0.2-0.6,0.3c-0.2,0.1-0.4,0.2-0.4,0.2c0,0-0.3,0.1-0.5,0.2
	c-0.3,0.1-0.6,0.3-0.7,0.3c-0.1,0.1-0.4,0.2-0.6,0.3c-0.2,0.1-0.4,0.2-0.4,0.2c-0.1,0-1.5,0.7-1.8,0.8c-0.1,0-0.2,0.1-0.4,0.1
	c-0.1,0-0.2,0.1-0.3,0.1c0,0-0.1,0.1-0.1,0.1c0,0-0.1,0-0.1,0c0,0-0.1,0-0.1,0c-0.2,0-0.5,0.2-0.6,0.2c-0.1,0-0.2,0.1-0.2,0.1
	c-0.1,0-0.5,0.2-0.5,0.3c0,0-0.1,0-0.1,0c-0.1,0-0.1,0-0.1,0c0,0,0,0.1-0.1,0.1c-0.1,0-0.5,0.2-0.6,0.3c0,0-0.1,0.1-0.1,0.1
	c0,0-0.2,0-0.3,0.1c-0.1,0-0.3,0.1-0.3,0.1c0,0-0.1,0-0.1,0.1c0,0-0.1,0.1-0.2,0c-0.1,0-0.1,0-0.1,0c0,0-0.2,0.2-0.5,0.3
	c-0.3,0.1-0.5,0.3-0.5,0.3c0,0-0.1,0.1-0.1,0.1c-0.1,0-0.6,0.2-0.6,0.3c0,0-0.1,0.1-0.1,0c-0.1,0-0.1,0-0.1,0c0,0.1-0.2,0.1-0.5,0.2
	c-0.1,0-0.1,0.1-0.2,0.1c0,0-0.3,0.2-0.5,0.3c-0.3,0.1-0.5,0.3-0.5,0.3c0,0-0.1,0.1-0.1,0c0,0-0.1,0-0.1,0c0,0.1-0.2,0.2-0.5,0.3
	c0,0-0.2,0.1-0.2,0.2c-0.1,0.1-0.2,0.1-0.3,0.1c-0.1,0-0.1,0-0.1,0.1c0,0,0,0.1,0,0c0,0-0.2,0-0.4,0.1c-0.2,0.1-0.4,0.2-0.4,0.2
	c-0.1,0-0.1,0.1-0.2,0.1c-0.1,0.1-0.8,0.5-1.6,0.9c-0.3,0.1-0.5,0.3-0.5,0.3c0,0,0,0-0.1,0c0,0-0.1,0-0.1,0c0,0,0,0.1-0.1,0.1
	c-0.1,0-0.4,0.1-0.4,0.2c0,0,0,0.1,0,0.1c-0.1,0-0.8,0.3-0.9,0.4c-0.1,0.1-0.1,0.1-0.2,0.1c0,0-0.1,0-0.1,0c0,0-0.1,0.1-0.2,0.2
	c-0.3,0.1-0.7,0.4-0.8,0.5c0,0-0.1,0.1-0.1,0.1c-0.2,0-0.3,0.1-0.2,0.2c0,0,0,0.1,0,0c0,0-0.2,0-0.3,0.1c-0.1,0.1-0.3,0.2-0.3,0.2
	c0,0-0.1,0.1-0.1,0.1c0,0.1-0.1,0.1-0.1,0.1c0,0-0.1,0-0.1,0.1c0,0.1-0.1,0.1-0.1,0.1c0,0-0.1,0-0.2,0.1c-0.1,0.1-0.2,0.1-0.2,0.1
	c0,0-0.1,0-0.1,0c0,0,0,0.1-0.1,0c0,0-0.1,0-0.1,0.1c0,0.1-0.1,0.1-0.1,0.1c0,0-0.2,0-0.3,0.1s-0.2,0.2-0.3,0.1c0,0,0,0,0,0
	c0,0.1,0,0.1-0.1,0.1c0,0-0.1,0-0.2,0.1c-0.6,0.4-0.8,0.5-0.9,0.6c-0.1,0-0.2,0.1-0.1,0.1c0,0,0,0.1-0.1,0.1c-0.1,0-0.2,0-0.2,0.1
	c0,0-0.1,0.1-0.3,0.2c-0.2,0.1-0.3,0.2-0.3,0.3c0,0.1-0.1,0.1-0.1,0.1c0,0-0.1,0-0.2,0.1c-0.1,0.1-0.2,0.1-0.2,0.1
	c0,0-0.1,0-0.2,0.1c-0.1,0.1-0.3,0.2-0.3,0.2c-0.1,0-0.1,0-0.1,0.1c0,0,0,0.1,0,0c0,0-0.1,0-0.2,0.1c-0.1,0.1-0.3,0.2-0.5,0.3
	c-0.2,0.1-0.4,0.2-0.4,0.3c-0.3,0.2-0.4,0.3-0.4,0.3c0,0-0.2,0.1-0.3,0.2c-0.1,0.1-0.3,0.2-0.4,0.2c0,0-0.1,0-0.1,0.1
	c0,0.1-0.1,0.1-0.1,0.1c0,0-0.1,0-0.2,0.1c-0.1,0.1-0.2,0.2-0.3,0.2c-0.1,0-0.1,0-0.1,0.1c0,0-0.1,0.1-0.3,0.3
	c-0.5,0.3-1.4,0.9-1.6,1.2c-0.1,0.1-0.2,0.2-0.2,0.1c0,0-0.1,0-0.2,0.1c-0.1,0.1-0.2,0.2-0.2,0.1c0,0-0.1,0.1-0.3,0.2
	c-0.2,0.2-0.3,0.3-0.4,0.3s-0.1,0.1-0.2,0.2c-0.1,0.1-0.3,0.3-0.5,0.4c-0.5,0.4-0.8,0.7-1.2,1.1c-0.2,0.2-0.4,0.4-0.4,0.4
	s-0.2,0.1-0.3,0.3c-0.1,0.2-0.3,0.3-0.3,0.2c0,0-0.1,0-0.1,0.1c0,0.1-0.1,0.2-0.3,0.3c-0.2,0.1-0.3,0.2-0.3,0.3c0,0,0,0-0.1,0
	c0,0-0.1,0-0.1,0c0,0-0.1,0.1-0.2,0.2c-0.1,0.1-0.2,0.2-0.2,0.2c0,0.1-0.1,0.1-0.3,0.1c0,0-0.1,0,0,0.1c0,0-0.4,0.4-0.8,0.9
	c-0.5,0.5-0.8,0.8-0.8,0.8s-0.1,0.1-0.2,0.2c-0.1,0.1-0.2,0.3-0.2,0.3c0,0.1,0,0-0.1,0c-0.1-0.1-0.1-0.1-0.1,0
	c0,0.1-0.1,0.2-0.6,0.6c-0.8,0.6-2.1,1.9-2,1.9c0,0,0,0-0.1,0c-0.1,0-0.1,0-0.1,0.1c0,0-0.3,0.3-0.6,0.7c-0.6,0.7-0.7,0.7-1.1,1.3
	c-0.2,0.2-0.5,0.6-0.6,0.7c-0.2,0.2-0.3,0.4-0.3,0.4s0,0.1,0,0.1c-0.1-0.1-0.3,0.1-0.3,0.3c0,0-0.1,0.1-0.2,0.2
	c-0.1,0.1-0.2,0.1-0.2,0.1c0,0-0.1,0.2-0.3,0.4c-0.2,0.2-0.7,0.7-1.1,1.2c-0.4,0.5-1.1,1.1-1.4,1.5c-0.3,0.3-0.6,0.6-0.6,0.6
	c0,0-0.2,0.2-0.4,0.5c-0.3,0.3-0.5,0.6-0.5,0.6c0,0-0.1,0.1-0.2,0.2c-0.1,0.1-0.2,0.2-0.2,0.2c0,0.1,0,0.1-0.1,0
	c-0.1,0-0.1,0-0.1,0.1c0,0.1,0,0.2-0.4,0.6c-0.1,0.1-0.2,0.3-0.2,0.3c0,0-0.7,0.9-0.9,1.1c-0.1,0.1-0.2,0.2-0.3,0.4
	s-0.3,0.4-0.4,0.5c-0.1,0.1-0.3,0.3-0.4,0.5c-0.1,0.2-0.3,0.4-0.5,0.6c-0.5,0.6-1.3,1.6-1.4,1.8c-0.1,0.1-0.2,0.2-0.2,0.3
	c0,0-0.2,0.2-0.3,0.3c-0.2,0.2-0.5,0.7-0.8,1c0,0-0.2,0.2-0.3,0.4c-0.1,0.2-0.2,0.3-0.2,0.3c-0.1,0.1-2.5,3.5-2.6,3.8
	c0,0.1-0.2,0.4-0.4,0.6c-0.2,0.3-0.5,0.8-0.7,1.1c-0.2,0.3-0.4,0.6-0.4,0.7c0,0,0,0.1,0,0.1s0,0,0,0.1c-0.1,0.1-0.7,1-0.9,1.5
	c-0.5,0.9-1.2,2.1-1.2,2.1c0,0,0,0.1,0,0.1c0,0,0,0.1-0.1,0.2c-0.1,0.1-0.1,0.2-0.1,0.3c0,0.1,0,0.2-0.1,0.2c-0.1,0-0.3,0.4-0.3,0.5
	c0,0,0,0.1-0.1,0.1c0,0-0.5,0.8-0.9,1.8c-1,2.1-1.4,2.8-1.3,2.8c0,0,0,0,0,0.1c-0.1,0-0.1,0.1-0.1,0.2c0,0.1-0.1,0.3-0.2,0.6
	c-0.1,0.3-0.3,0.7-0.4,1c-0.1,0.3-0.2,0.6-0.3,0.7c-0.2,0.4-0.4,1.1-0.5,1.2c0,0.1-0.1,0.3-0.2,0.5c-0.1,0.2-0.1,0.4-0.1,0.4
	s0,0.1-0.1,0.1c-0.1,0.1-0.1,0.1,0,0.1c0,0,0,0,0,0.1c0,0.1-0.1,0.3-0.2,0.5c-0.3,0.8-0.6,2-0.6,2c0,0,0,0.2-0.1,0.3
	c-0.1,0.2-0.1,0.3-0.1,0.3c0,0-0.2,0.7-0.3,1c0,0.1-0.1,0.3-0.1,0.5c0,0.1-0.1,0.5-0.2,0.9c-0.3,1.2-0.3,1.3-0.4,1.7
	c0,0.2-0.1,0.4-0.1,0.5c0,0.1-0.1,0.3-0.1,0.4c0,0.2-0.1,0.4-0.1,0.4c0,0.1-0.1,1-0.3,1.9c0,0.2,0,0.7-0.1,1.1c0,0.5-0.1,1-0.1,1.3
	c-0.1,0.5-0.1,1.9,0,2.3c0.1,0.3,0.1,0.7,0.2,1.5c0,0.6,0.2,1.8,0.3,2c0,0.1,0.1,0.2,0.1,0.4c0,0.1,0.1,0.4,0.1,0.6
	c0.1,0.2,0.1,0.4,0.1,0.5c0,0.3,0.2,0.7,0.2,0.8c0,0,0.1,0.2,0.1,0.3c0.1,0.3,0.1,0.3,0.2,0.6c0.1,0.1,0.1,0.3,0.1,0.3
	c0,0.1,0,0.1,0.1,0.1c0,0,0.1,0.1,0.1,0.2c0,0.1,0.1,0.3,0.2,0.5c0.2,0.4,0.3,0.6,0.3,0.8c0,0.1,0.1,0.2,0.1,0.2
	c0.1,0.1,0.2,0.3,0.2,0.4c0.1,0.1,0.1,0.3,0.2,0.3c0,0,0.1,0,0,0.1c0,0.1,0.3,0.7,0.4,0.7c0,0,0,0,0,0.1c0,0,0,0.1,0.1,0.1
	c0.1,0,0.1,0.1,0.1,0.1c0,0,0,0.1,0.1,0.2c0.1,0.1,0.1,0.2,0.1,0.2s0,0.1,0.2,0.2c0.1,0.1,0.2,0.3,0.2,0.3c0,0,0.1,0.2,0.2,0.3
	c0.1,0.1,0.2,0.2,0.2,0.2c0,0,0,0,0.1,0.1c0.1,0.1,0.3,0.4,0.6,0.7c0.5,0.6,1.2,1.2,1.2,1.2c0.2,0,0.5,0.2,0.5,0.3
	c0,0,0,0.1,0.1,0.1c0.1,0,0.3,0.1,0.4,0.2s0.4,0.2,0.4,0.2c0,0,0.1,0,0.1,0.1c0,0,0,0.1,0.1,0c0,0,0.1,0,0.2,0.1
	c0.1,0.1,0.3,0.2,0.4,0.3c0.1,0.1,0.3,0.1,0.3,0.2c0,0,0.1,0.1,0.1,0.1s0.1,0,0.1,0.1c0,0,0.1,0.1,0.2,0.1c0.1,0,0.2,0,0.2,0.1
	c0,0,0.1,0.1,0.1,0.1c0.1,0,0.1,0,0.2,0.1c0,0,0.2,0.1,0.4,0.3c0.6,0.3,1,0.5,1,0.6c0,0,0.1,0,0.2,0.1c0.1,0,0.1,0.1,0.1,0.1
	c0,0,0.1,0.1,0.2,0.1c0.1,0,0.2,0.1,0.4,0.2c0.1,0.1,0.3,0.2,0.3,0.2c0,0,0.2,0.1,0.4,0.2c0.2,0.1,0.4,0.2,0.4,0.2
	c0,0,0.1,0,0.1,0.1c0,0,0,0.1,0.1,0c0,0,0.1,0,0.1,0c0,0,0.1,0.1,0.1,0.1c0.1,0,0.2,0,0.2,0.1c0,0,0.1,0.1,0.1,0.1
	c0.2,0,0.5,0.2,0.9,0.4c0.3,0.1,0.5,0.2,0.6,0.2c0.1,0,0.1,0,0.1,0.1c0,0,0,0.1,0.1,0.1c0,0,0.2,0,0.3,0.1c0.3,0.1,0.5,0.2,0.6,0.2
	c0,0,0.1,0,0.1,0.1s0.1,0.1,0.3,0.2c0.2,0,0.5,0.2,0.6,0.2c0.2,0.1,0.4,0.1,0.4,0.2c0.3,0.1,0.3,0.1,0.6,0.2
	c0.1,0.1,0.3,0.1,0.3,0.1c0,0,0.1,0,0.1,0s0.1,0,0.1,0c0,0,0.1,0,0.2,0.1c0.1,0,0.2,0.1,0.3,0.1s0.2,0,0.3,0.1
	c0.1,0,0.2,0.1,0.3,0.1c0.1,0,0.2,0.1,0.2,0.1c0,0,0.1,0.1,0.1,0.1c0.1,0,0.7,0.1,0.9,0.2c0.1,0.1,0.2,0.1,0.3,0.1
	c0.1,0,0.2,0,0.3,0c0.2,0.1,0.7,0.3,0.9,0.3c0.1,0,0.2,0.1,0.3,0.1c0.1,0,0.2,0.1,0.2,0c0,0,0.1,0,0.2,0c0.1,0,0.3,0.1,0.4,0.1
	c0.1,0,0.3,0.1,0.5,0.1c0.1,0,0.3,0.1,0.4,0.1c0.1,0,0.5,0.1,0.8,0.2c0.3,0.1,0.7,0.2,0.7,0.1c0,0,0.1,0,0.2,0
	c0.1,0,0.4,0.1,0.7,0.1c0.3,0,0.5,0.1,0.6,0.1c0,0,0.3,0.1,0.5,0.1c0.2,0,0.4,0.1,0.5,0.1c0.1,0,0.3,0.1,0.5,0.1
	c0.2,0,0.5,0,0.7,0.1s0.6,0.1,0.9,0.1c0.3,0,0.7,0,0.8,0.1c0.2,0,0.7,0.1,1.1,0.1c0.5,0,1.1,0.1,1.3,0.1c0.9,0.1,4.1,0.2,4.1,0.1
	c0,0,0.1-0.1,0.4-0.1c0.2,0,0.5,0,0.6-0.1c0.1,0,0.7-0.1,1.4-0.1c0.7,0,1.2-0.1,1.3-0.1c0.1,0,0.3-0.1,0.6-0.1c0.3,0,0.7,0,0.8-0.1
	c0.1,0,0.5-0.1,0.7-0.1c0.3,0,0.6-0.1,0.6-0.1c0.1,0,0.4-0.1,0.6-0.1c0.2,0,0.5,0,0.6-0.1c0.1,0,0.3-0.1,0.5-0.1
	c0.3,0,0.6-0.1,0.7-0.1c0,0,0.1,0,0.2,0c0.1,0,0.3,0,0.4-0.1c0.1,0,0.3-0.1,0.5-0.1c0.2,0,0.4-0.1,0.5-0.1c0.1,0,0.2-0.1,0.3-0.1
	s0.2,0,0.3-0.1c0,0,0.5-0.1,0.9-0.2c0,0,0.1,0,0.1-0.1c0,0,0.1-0.1,0.2-0.1c0.1,0,0.5-0.1,0.9-0.2c0.4-0.1,0.7-0.2,0.7-0.2
	c0,0,0.1,0,0.1-0.1c0.1-0.1,0.1-0.1,0.2-0.1c0,0,0.1,0,0.3-0.1c0.1-0.1,0.3-0.1,0.3-0.1c0.1,0,0.1,0,0.2,0c0,0,0.2-0.1,0.3-0.1
	c0.1,0,0.3-0.1,0.3-0.1c0,0,0.2-0.1,0.3-0.1c0.1,0,0.3-0.1,0.4-0.1c0.3-0.1,0.8-0.2,1-0.2c0.1,0,0.1,0,0.1,0c0,0,0.1-0.1,0.2-0.1
	c0.1,0,0.5-0.1,0.8-0.3c0.3-0.1,0.6-0.2,0.6-0.2c0,0,0.2-0.1,0.3-0.1c0.1,0,0.3-0.1,0.4-0.2c0.1,0,0.2,0,0.2,0c0,0,0.1,0,0.1-0.1
	c0,0,0.2-0.1,0.3-0.1s0.3-0.1,0.3-0.1c0,0,0.1-0.1,0.1,0c0,0,0.2,0,0.3-0.1c0.1-0.1,0.2-0.1,0.2-0.1c0,0,0.1,0,0.1-0.1
	c0.1-0.1,0.2-0.1,0.2-0.1c0,0,0.2,0,0.4-0.1c0.2-0.1,0.3-0.1,0.4-0.1c0,0,0.1,0,0.1-0.1s0-0.1,0.1-0.1c0,0,0.1,0,0.2-0.1
	c0.1-0.1,0.2-0.1,0.3-0.1c0,0,0.1,0,0.1,0c0,0,0-0.1,0.1,0c0,0,0.1,0,0.1,0s0-0.1,0.1,0c0,0,0.1,0,0.1,0c0,0,0.1-0.1,0.2-0.1
	c0.1,0,0.3-0.1,0.4-0.1c0.1-0.1,0.2-0.1,0.2,0c0,0,0,0,0.1,0c0.1-0.1,0.6-0.3,0.7-0.3c0,0,0.1,0,0.1-0.1c0,0,0.1-0.1,0.2-0.1
	c0.1,0,0.2-0.1,0.2-0.1s0.1-0.1,0.1,0c0.1,0,0.1,0,0.1,0c0,0,0-0.1,0.1,0c0,0,0.1,0,0.1,0s0-0.1,0.1,0c0,0,0.1,0,0.1,0
	c0,0,0.1-0.1,0.2-0.1c0.1,0,0.2,0,0.2-0.1c0,0,0.1-0.1,0.2-0.1c0.1,0,0.2-0.1,0.3-0.1c0.1-0.1,0.2-0.1,0.2,0c0.1,0,0.1,0,0,0
	c0-0.1,0-0.1,0-0.1c0,0,0.1,0,0.2,0c0,0,0.1,0,0.2-0.1c0,0,0.1-0.1,0.2,0c0.1,0,0.1,0,0.1-0.1c0,0,0-0.1,0.1,0c0,0,0.1,0,0.1,0
	s0.1-0.1,0.1,0c0.1,0,0.1,0,0.1-0.1c0-0.1,0-0.1,0.1-0.1c0,0,0.2,0,0.3-0.1c0.1-0.1,0.3-0.2,0.4-0.2c0.1,0,0.1,0,0.1-0.1
	c0,0,0-0.1,0.1,0c0,0,0.1,0,0.1,0c0,0,0.1-0.1,0.1,0c0.1,0,0.1,0,0,0c-0.1-0.1,0-0.1,0.3-0.1c0.1,0,0.1,0,0-0.1c0,0,0-0.1,0.1-0.1
	c0.1,0,0.2-0.1,0.4-0.2c0.1-0.1,0.3-0.2,0.4-0.2c0.1,0,0.2-0.1,0.2-0.1c0-0.1,0.1-0.1,0.2-0.1c0,0,0.1,0,0.1,0c0,0,0.1-0.1,0.2-0.1
	c0.1,0,0.2-0.1,0.2-0.1c0-0.1,0.4-0.2,1.7-0.9c0.2-0.1,0.5-0.2,0.5-0.3c0,0,0.3-0.2,0.5-0.3c0.2-0.1,0.4-0.2,0.4-0.3
	c0,0,0.1,0,0.1,0c0,0,0.1,0,0.2-0.1c0.1-0.1,0.2-0.1,0.2-0.1c0.1,0,0.1,0,0.1-0.1c0,0,0.1-0.1,0.3-0.2c0.2-0.1,0.3-0.2,0.3-0.2
	c0,0,0-0.1,0.1,0c0,0,0.1,0,0.1,0c0,0,0.1-0.1,0.2-0.2c0.1-0.1,0.4-0.3,0.7-0.4c0.3-0.2,0.5-0.3,0.6-0.3c0,0,0.1,0,0.1-0.1
	c0,0,0.1-0.1,0.2-0.2c0.2-0.1,1.2-0.7,1.4-0.8c0.3-0.2,0.9-0.6,1-0.6c0,0,0,0,0,0s0.1-0.1,0.2-0.1c0.1,0,0.1-0.1,0.1-0.1
	c0,0,0-0.1,0-0.1c0.1,0,0.4-0.1,0.4-0.2c0,0,0.1-0.1,0.1-0.1s0.1,0,0.1-0.1c0,0,0-0.1,0.1-0.1c0.1,0,0.1,0,0.1-0.1
	c0-0.1,1-0.7,1.2-0.7c0.1,0,0.1,0,0.1-0.1c0,0,0.3-0.3,0.7-0.6c0.4-0.3,0.8-0.6,0.9-0.7c0.1-0.1,0.2-0.2,0.3-0.2c0,0,0.1,0,0.1-0.1
	c0,0,0-0.1,0.1,0c0,0,0.1,0,0.1-0.1c0-0.1,0.1-0.1,0.1-0.1c0,0,0.2-0.1,0.3-0.2c0.2-0.2,0.4-0.3,0.6-0.4c0.1-0.1,0.3-0.2,0.5-0.4
	c0.1-0.1,0.2-0.1,0.2-0.1c0,0,0.2-0.1,0.4-0.3c0,0,0.3-0.2,0.6-0.4c0.3-0.2,0.5-0.4,0.5-0.4c0,0,0.1-0.1,0.1,0c0,0,0.1,0,0.1-0.1
	c0.1-0.1,0.2-0.2,0.2-0.2c0,0,0.2-0.1,0.3-0.2c0.1-0.1,0.3-0.2,0.4-0.3c0.1,0,0.1-0.1,0.1-0.1c0,0,0-0.1,0-0.1c0,0,0.2-0.1,0.2-0.1
	c0.1-0.1,0.3-0.3,0.6-0.5c0.5-0.3,0.7-0.6,0.9-0.8c0.1-0.1,0.2-0.1,0.2-0.1c0,0,0.1,0,0-0.1c0,0,0-0.1,0.1-0.1
	c0.1,0,0.2-0.1,0.3-0.2c0.1-0.1,0.2-0.2,0.3-0.2c0,0,0.1,0,0-0.1c0,0,0-0.1,0-0.1c0,0,0.2-0.1,0.4-0.3c0.2-0.2,0.3-0.3,0.4-0.3
	c0,0,0.5-0.4,0.7-0.6c0.1-0.1,0.3-0.2,0.3-0.2c0,0,0.1-0.1,0.3-0.2c0.1-0.1,0.2-0.2,0.3-0.2c0.1,0,0.1,0,0.1-0.1
	c0,0,0.1-0.1,0.1-0.1c0.1,0,0.1,0,0.1-0.1c0,0,0-0.1,0-0.1c0.1,0,0.2-0.1,0.3-0.2c0.1-0.1,0.3-0.2,0.3-0.2c0,0,0.1,0,0-0.1
	c0,0,0-0.1,0-0.1c0,0,0.2-0.1,0.3-0.2c0.1-0.1,0.3-0.2,0.3-0.2c0,0,0,0,0-0.1c0,0,0-0.1,0-0.1c0,0,0.2-0.1,0.4-0.3
	c0.2-0.1,0.5-0.5,0.9-0.8c0.3-0.3,0.8-0.7,1-0.9c0.6-0.6,1.3-1.1,1.3-1.1c0,0,0,0,0-0.1c0,0,0-0.1,0-0.1c0,0,0.4-0.3,0.8-0.6
	c0.4-0.4,0.7-0.6,0.7-0.6c0,0,0,0,0-0.1c0,0,0-0.1,0-0.1c0,0,1.1-1,2.3-2.2c3-3,3.7-3.7,3.6-3.8c0,0,0,0,0.1,0c0.1,0,0.1,0,0.1-0.1
	s0.2-0.3,0.5-0.6c0.4-0.4,1.2-1.3,1.5-1.6c0-0.1,0.1-0.1,0-0.1c0,0,0,0,0,0s0.2-0.1,0.4-0.3s0.4-0.4,0.5-0.6
	c0.1-0.1,0.3-0.3,0.4-0.4c0.2-0.2,0.4-0.4,0.6-0.4c0,0,0.1,0.1,0.2,0.2c0.2,0.4,1.9,2,1.9,1.9c0,0,0.1,0.1,0.3,0.2
	c0.1,0.2,0.3,0.3,0.3,0.3c0,0,0.2,0.1,0.3,0.3c0.4,0.4,1.2,1.1,1.9,1.6c0.4,0.3,0.7,0.6,0.9,0.7c0.2,0.2,0.6,0.4,0.7,0.4
	c0.1,0,0.1,0,0,0c0,0,0.1,0.2,0.3,0.3c0.2,0.2,0.4,0.3,0.4,0.3c0.1,0.1,0.7,0.6,0.8,0.6c0,0,0.1,0.1,0.2,0.2
	c0.1,0.1,0.2,0.2,0.4,0.3c0.1,0.1,0.3,0.2,0.3,0.2c0.1,0,0.2,0.2,0.3,0.3c0.1,0.1,0.3,0.3,0.5,0.3c0.1,0.1,0.2,0.2,0.2,0.2
	c0,0,0.1,0.1,0.2,0.1c0.1,0,0.2,0,0.2,0.1c0,0,0.3,0.3,0.6,0.5c0.3,0.2,0.6,0.4,0.7,0.5c0.1,0,0.3,0.2,0.5,0.4
	c0.2,0.2,0.6,0.4,0.8,0.6c0.2,0.2,0.5,0.3,0.5,0.3c0,0,0.1,0,0.1,0.1s0.1,0.1,0.2,0.2c0.1,0.1,0.2,0.1,0.2,0.2c0,0,0,0.1,0,0.1
	c0.1,0,0.8,0.5,0.9,0.6c0,0,0.1,0.1,0.1,0.1c0,0,0.2,0.1,0.4,0.2c0.2,0.1,0.3,0.2,0.3,0.1c0,0,0,0,0.1,0c0.1,0.1,0.8,0.6,0.9,0.6
	c0,0,0.1,0,0.1,0.1c0,0,0.1,0.1,0.3,0.2c0.2,0.1,0.3,0.2,0.4,0.2c0,0,0.3,0.2,0.5,0.3c0.2,0.1,0.4,0.2,0.4,0.3c0,0,0,0.1,0.1,0.1
	s0.3,0.2,0.7,0.4c0.3,0.2,0.7,0.5,0.9,0.5c0.1,0.1,0.3,0.2,0.4,0.2c0.1,0.1,0.2,0.2,0.4,0.2c0.2,0.1,0.4,0.2,0.6,0.4
	c0.2,0.1,0.4,0.2,0.4,0.2c0,0,0.3,0.1,0.5,0.3c0.2,0.1,0.5,0.3,0.6,0.4c0.1,0.1,0.2,0.1,0.2,0.2c0,0,0,0.1,0.1,0.1
	c0,0,0.4,0.2,0.8,0.4c0.4,0.2,1,0.5,1.2,0.7c0.2,0.1,0.5,0.3,0.7,0.4c0.1,0.1,0.3,0.1,0.3,0.1c0.1,0,0.1,0,0.1,0.1
	c0,0,0.3,0.2,0.7,0.4c0.4,0.2,0.7,0.4,0.7,0.4c0.1,0.1,1.1,0.6,1.2,0.6c0.1,0,0.1,0,0.1,0.1c0,0,0.1,0.1,0.2,0.2
	c0.1,0.1,0.2,0.1,0.2,0.2c0,0,0,0.1,0,0c0,0,0.5,0.2,1.1,0.5c1.3,0.7,1.6,0.8,1.7,0.8c0,0,0.1,0,0.1,0.1c0,0,0.1,0.1,0.2,0.1
	c0.1,0,0.2,0,0.2,0.1c0,0,0,0.1,0.1,0.1c0,0,0.4,0.2,0.9,0.4c0.4,0.2,1.2,0.6,1.7,0.8c0.5,0.2,0.9,0.4,1,0.4c0,0,0.1,0,0.1,0.1
	c0,0,0,0.1,0.1,0.1c0.1,0,0.4,0.1,0.8,0.3c1,0.5,2.1,1,2.3,1c0.1,0,0.1,0,0.1,0.1c0,0,0.1,0.1,0.2,0.1c0.1,0,0.2,0,0.2,0.1
	c0,0,0,0.1,0.1,0.1c0.1,0,1,0.3,1,0.4c0,0,0.1,0,0.1,0.1c0.1,0,0.3,0.1,0.5,0.2c0.2,0.1,0.5,0.2,0.7,0.3s0.4,0.2,0.5,0.2
	s0.1,0,0.2,0.1c0.1,0.1,1.3,0.6,1.5,0.6c0.1,0,0.1,0,0.1,0.1c0,0,0,0.1,0.1,0.1c0.1,0,1.1,0.4,1.7,0.6c0.1,0.1,0.5,0.2,0.8,0.3
	c0.3,0.1,0.5,0.2,0.6,0.2s0.1,0.1,0.2,0c0,0,0.1,0,0.1,0c0,0,0.4,0.2,0.8,0.3c0.4,0.1,0.8,0.3,0.9,0.3c0.1,0,0.2,0.1,0.3,0.1
	c0.1,0,0.2,0,0.2,0.1c0,0,0.2,0.1,0.5,0.2c0.2,0.1,0.4,0.1,0.4,0.2c0,0,0,0.1,0.1,0.1c0.1,0,1.4,0.4,2.1,0.7c0.1,0,0.2,0.1,0.2,0.1
	c0.1,0,0.7,0.2,0.8,0.3c0.1,0,0.2,0.1,0.2,0.1c0.1,0,0.2,0.1,0.3,0.1c0.1,0,0.3,0.1,0.5,0.2c0.4,0.1,1.9,0.6,2.1,0.6
	c0.1,0,0.2,0.1,0.3,0.1c0.1,0,0.2,0.1,0.3,0.1c0.2,0.1,1.1,0.3,1.5,0.4c0.1,0,0.3,0.1,0.3,0.1c0,0,0.1,0.1,0.2,0.1
	c0.1,0,0.3,0,0.3,0.1c0.1,0,0.2,0.1,0.2,0.1c0.1,0,0.3,0,0.4,0.1c0.7,0.2,1.5,0.4,1.9,0.5c0.2,0,0.7,0.2,1,0.2
	c0.8,0.2,2,0.5,2.1,0.5c0.1,0,0.2,0,0.2,0.1c0.1,0,0.3,0.1,0.6,0.1s0.5,0.1,0.6,0.1c0.1,0,0.3,0.1,0.4,0.1c0.2,0,1.2,0.2,2,0.4
	c0.2,0,0.6,0.1,0.9,0.2c0.3,0,0.7,0.1,0.9,0.2s0.5,0.1,0.7,0.1c0.2,0,0.6,0.1,0.8,0.1s0.5,0.1,0.6,0.1c0.6,0.1,1,0.2,1.3,0.2
	c0.1,0,0.4,0.1,0.7,0.1c0.2,0.1,0.4,0.1,0.5,0.1c0,0,0.2,0,0.3,0c0.3,0.1,1.2,0.2,1.7,0.2c0.1,0,0.2,0,0.2,0c0,0,0.2,0.1,0.5,0.1
	c0.3,0,0.6,0,0.7,0.1c0.4,0,1.5,0.1,3.3,0.3c0.8,0,6.4,0,7.3,0c1.1-0.1,2.4-0.2,2.9-0.2c0.2,0,0.5-0.1,0.7-0.1
	c0.2,0,0.6-0.1,0.7-0.1c0.1,0,0.4-0.1,0.5-0.1c0.6-0.1,2.6-0.4,2.8-0.5c0.1,0,0.3-0.1,0.4-0.1c0.2,0,0.5-0.2,0.8-0.3
	c0.3-0.2,0.6-0.3,0.8-0.4c0.2-0.1,0.3-0.2,0.4-0.2c0,0,0.6-0.4,1.3-0.9c0.7-0.4,1.4-0.9,1.6-1.1c0.9-0.7,2.3-2,2.9-2.8
	c0.2-0.2,0.4-0.5,0.6-0.6c0.9-1,2-2.7,2.7-4.2c0.5-0.9,1.2-2.7,1.3-3c0-0.1,0.1-0.4,0.3-0.9c0.1-0.2,0.4-1.4,0.4-1.7
	c0.1-0.7,0.4-2.6,0.5-3.1c0-0.4,0.1-0.8,0.1-1C249.6,182.9,249.5,180.2,249.4,179.1z M70,164.8c-0.6-0.2-1-0.7-1.2-1.3
	c-0.5-2.2-0.3-6.9,2.2-11.2c0.6-1.1,1.3-2.1,2-3.1c2.3-3,4.4-6.3,6.9-9.1c0.1-0.1,0.3-0.3,0.4-0.4c0.2-0.3,0.5-0.6,0.6-0.6
	c0,0,0,0,0-0.1c0,0,0.5-0.6,1.2-1.3c0.7-0.7,1.2-1.2,1.2-1.2c0,0,0.2-0.1,0.4-0.3c0.2-0.2,0.5-0.5,0.7-0.7c0.2-0.2,0.5-0.4,0.6-0.5
	c0.1-0.1,0.2-0.2,0.2-0.1c0,0,0.1-0.1,0.3-0.2c0.5-0.5,0.9-0.8,0.9-0.8c0,0,0,0,0.1,0c0,0,0.2-0.2,0.4-0.4c0.2-0.2,0.4-0.3,0.5-0.4
	c0.1,0,0.2-0.2,0.3-0.2c0.1-0.1,0.1-0.1,0.1,0c0,0.1,0,0.1,0.1,0c0.1-0.1,0.2-0.2,0.2-0.2c0,0,0.1-0.1,0.2-0.1
	c0.1,0,0.2-0.1,0.2-0.1s0-0.1,0.1-0.1c0,0,0.2-0.1,0.3-0.1c0.1-0.1,0.3-0.2,0.4-0.3s0.3-0.2,0.4-0.3c0.1-0.1,0.2-0.2,0.2-0.2
	c0,0,0.3-0.1,0.5-0.3c0.2-0.2,0.4-0.3,0.5-0.3c0,0,0.1,0,0.2-0.1c0.2-0.2,1.2-0.8,1.2-0.7c0,0,0.1,0,0.2-0.1c0.3-0.3,1-0.7,0.9-0.6
	c0,0.1,0,0,0.1,0c0.1-0.1,0.2-0.2,0.2-0.2c0,0,0,0,0.1,0c0,0,0.1,0,0.1,0c0,0,0.1-0.1,0.3-0.2c0.2-0.1,0.3-0.1,0.3-0.2
	c0,0,0.1-0.1,0.2-0.2c0.1-0.1,0.2-0.1,0.2-0.2s0,0,0.1,0c0,0,0.1,0,0.1,0s0-0.1,0.1,0c0,0,0.2-0.1,0.4-0.2c0.2-0.1,0.4-0.3,0.5-0.3
	c0.1,0,0.1-0.1,0.2-0.1c0-0.1,0.1-0.1,0.1-0.1c0.2,0,0.2,0,0.2-0.1c0-0.1,0-0.1,0.1,0c0.1,0,0.2,0,0.2,0c0,0,0.1-0.1,0.2-0.2
	c0.1-0.1,0.2-0.1,0.1,0c0,0.1,0,0,0.1,0c0.1-0.1,0.2-0.1,0.2-0.1c0.1,0,0.1,0,0.2-0.1c0,0,0.4-0.2,0.8-0.5c0.4-0.2,0.9-0.5,1-0.6
	c0.1-0.1,0.2-0.1,0.2-0.1c0,0,0,0,0.1,0c0,0,0.3-0.2,0.5-0.3c0.3-0.1,0.5-0.3,0.5-0.3c0,0,0.1-0.1,0.2-0.1c0.1,0,0.2,0,0.2-0.1
	c0,0,0-0.1,0.1-0.1c0.1,0,0.5-0.2,0.5-0.3c0,0,0.1-0.1,0.2-0.1c0.1,0,0.2-0.1,0.2-0.1c0-0.1,0.1-0.1,0.1,0c0,0,0.1,0,0.1,0
	s0.1-0.1,0.1,0c0,0,0.1,0,0.2-0.1c0.1-0.1,0.3-0.2,0.5-0.2c0,0,0-0.1,0-0.1c0,0,0-0.1,0,0c0,0,0.2,0,0.3-0.1
	c0.1-0.1,0.2-0.1,0.3-0.1c0.2,0,0.4-0.1,0.4-0.2c0,0,0-0.1,0,0c0,0,0.1,0,0.2,0c0.1-0.1,0.2-0.1,0.3-0.1c0,0,0.2-0.1,0.4-0.2
	c0.2-0.1,0.4-0.2,0.4-0.2c0.4-0.1,0.7-0.2,0.7-0.3c0,0,0.1,0,0.2,0c0.1,0,0.2,0,0.2,0c0,0,0-0.1,0.1,0c0,0,0.1,0,0.2-0.1
	c0.2-0.2,0.2-0.2,0.8,1.5c0.3,0.7,0.5,1.4,0.5,1.5s0,0.1,0,0.2c0,0,0,0.1,0,0.1c0,0,0,0.1,0.1,0.1c0,0,0.1,0.1,0.1,0.2
	c0,0.1,0.1,0.3,0.1,0.4c0.1,0.1,0.1,0.2,0.1,0.2c-0.1,0,0.6,1.4,0.7,1.6c0,0.1,0.1,0.2,0.1,0.2s0,0.1,0.1,0.1c0,0,0.1,0.1,0.1,0.2
	c0,0.1,0.1,0.2,0.1,0.2c0,0,0.1,0.1,0.1,0.2c0,0.1,0,0.2,0.1,0.2c0,0,0.1,0.1,0.2,0.3c0.1,0.1,0.1,0.3,0.1,0.3c0,0,0.1,0.2,0.2,0.4
	c0.1,0.2,0.2,0.4,0.2,0.4c0,0,0.1,0.2,0.2,0.4c0.1,0.2,0.2,0.4,0.2,0.4c0,0,0,0.1,0.1,0.3c0.1,0.2,0.3,0.6,0.5,0.9
	c0.2,0.3,0.3,0.6,0.4,0.6c0,0,0.1,0,0.1,0c0,0.1,0.1,0.5,0.2,0.5c0,0,0,0,0,0.1c0,0,0,0.1,0,0.1c0.1,0,0.1,0,0,0
	c0,0,0.1,0.2,0.2,0.4c0.1,0.2,0.2,0.5,0.2,0.5c0,0.1,0,0.1,0.1,0.1c0.1,0,0.5,0.9,0.5,1c0,0.1,0,0.1,0.1,0.1c0,0,0.1,0,0,0.1
	c0,0,0,0.1,0.1,0.2c0.1,0.1,0.1,0.2,0.1,0.2s0,0.1,0.1,0.1c0,0,0.1,0,0,0.1c0,0,0,0.1,0,0.2c0.1,0.2,0.4,0.6,0.4,0.8
	c0,0.1,0.1,0.1,0.1,0.1c0,0,0.1,0,0,0.1c0,0,0,0.2,0.1,0.2c0.1,0.1,0.1,0.2,0.1,0.2c0,0,0,0.1,0.1,0.2c0.1,0.1,0.2,0.3,0.2,0.4
	c0,0.1,0.1,0.2,0.1,0.2c0,0,0.1,0.1,0.1,0.1c0,0.1,0.1,0.3,0.3,0.6c0.2,0.2,0.3,0.5,0.3,0.5c0,0,0.1,0.1,0.1,0.1
	c0.1,0,0.1,0.1,0.1,0.2s0,0.1,0.1,0.1c0,0,0.1,0,0,0.1c0,0,0,0.1,0,0.1c0,0,0.1,0,0.1,0.1c0,0,0.1,0.2,0.3,0.4
	c0.1,0.2,0.2,0.3,0.2,0.3c0,0,0,0.1,0.1,0.1c0.1,0.1,0.1,0.2,0.1,0.2c0,0.1,0,0.1,0.1,0.1c0,0,0.1,0,0.1,0.1c0,0.1,0.1,0.3,0.3,0.6
	c0.3,0.4,0.4,0.5,0.6,0.5h0.3l-0.3,0.4c-0.2,0.2-0.4,0.4-0.4,0.5c-0.1,0.1-0.1,0.1-0.1,0.1c0,0-0.1,0.2-0.3,0.4
	c-0.2,0.2-0.4,0.4-0.4,0.4c0,0,0,0.1-0.2,0.2s-0.3,0.2-0.3,0.2c0,0-0.1,0,0,0.1s0,0.1-0.2,0.2c-0.1,0.1-0.2,0.2-0.2,0.2
	c0,0.1-0.1,0.1-0.2,0.1c0,0,0,0,0,0c0,0.2,0,0.3-0.1,0.2c0,0-0.1,0-0.2,0.1c0,0.1-0.1,0.2-0.1,0.1c0,0-0.3,0.3-0.8,0.7
	c-0.4,0.4-0.9,0.8-1,0.9c-0.1,0.1-0.2,0.2-0.2,0.3c0,0,0,0.1-0.1,0.1c-0.1,0-0.1,0.1-0.2,0.1c0,0.1-0.1,0.1-0.2,0.1
	c-0.1,0-0.2,0.1-0.2,0.2c0,0.1-0.1,0.1-0.1,0.1c0,0-0.2,0.1-0.5,0.3c-0.3,0.2-0.5,0.4-0.6,0.4c0,0-0.1,0,0,0c0,0.1-0.1,0.2-0.8,0.8
	c-0.1,0.1-0.5,0.5-0.8,0.7c-0.5,0.5-1,0.9-1.1,0.9c0,0-0.1,0.1-0.1,0.1c0,0.1,0,0.1-0.1,0.1c0,0-0.2,0.1-0.3,0.2
	c-0.1,0.1-0.2,0.2-0.2,0.1c0,0-0.1,0-0.1,0.1c-0.1,0.1-0.2,0.2-0.2,0.1c0,0-0.1,0-0.1,0.1c0,0.1-0.1,0.2-0.1,0.2
	c-0.1,0-0.2,0.1-0.7,0.5c-0.1,0.1-0.2,0.2-0.2,0.2c0,0-0.1,0-0.2,0.1c-0.1,0.1-0.4,0.3-0.6,0.5c-0.2,0.2-0.4,0.3-0.4,0.3
	c0,0,0,0.1-0.2,0.1c-0.1,0.1-0.4,0.3-0.6,0.4c-0.2,0.1-0.5,0.4-0.6,0.5c-0.2,0.1-0.4,0.3-0.5,0.4c-0.1,0.1-0.2,0.1-0.2,0.1
	c0,0,0,0,0,0c0,0-0.1,0.2-0.3,0.3c-3.5,2.2-6.9,4.6-10.7,6.4c-3.5,1.7-7.2,2.9-11.1,3.1c-2.5,0.1-4.9-0.2-7.3-0.7L70,164.8z
	 M135.8,118.9c-0.2,0.4-0.6,1.1-0.8,1.5c-0.6,1.1-0.8,1.5-1,1.5c-0.1,0-0.8-1.4-1.6-3.1c-0.2-0.5-0.4-0.9-0.4-0.9c0,0,0.1,0,0.1-0.1
	c0-0.1,0.1-0.1,0.1,0c0,0.1,0.1,0.1,0.1,0c0-0.1,0.1-0.1,0.1,0c0,0.1,0.1,0.1,0.1,0c0-0.1,1.3-0.1,3.3,0
	C136.4,117.9,136.4,117.8,135.8,118.9z M147.1,76.8c0,0-0.1,1.2-0.1,2.4c0,1.3,0,2.6-0.1,2.8s-0.1,0.7-0.1,0.9
	c0,0.2-0.1,0.6-0.1,0.9c0,0.4-0.1,0.9-0.1,1.3l-0.1,0.7c0,0,0,0.1,0,0.2c0,0.1,0,0.2,0,0.3c0,0-0.1,0.5-0.1,0.5l-0.1,0.6
	c0,0.1,0,0.1-0.1,0.1c0,0,0,0.1,0,0.1l-0.2,1.1c0,0,0,0,0,0.1c0,0.1,0,0.1,0,0.1l-0.6,2.9c0,0,0,0.1,0,0.1c-0.1,0.5-0.2,1-0.2,1
	c0,0,0,0.1,0,0.2c0,0.1,0,0.2,0,0.2c0,0-0.1,0.6-0.2,0.9c0,0.1,0,0.1-0.1,0.1c0,0-0.1,0,0,0c0,0,0,0.2,0,0.3
	c-0.1,0.3-0.1,0.3-0.2,0.8c0,0.1-0.1,0.2-0.1,0.3c0,0.1-0.1,0.2-0.1,0.3s-0.1,0.4-0.2,0.8c-0.4,1.7-0.7,2.9-0.9,2.8
	c-0.1,0-0.1,0-0.1,0.1c0,0.1,0,0.1,0,0c0-0.1-0.3-0.1-0.3,0c0,0-0.1,0.1-0.1,0.1c-0.1,0-0.1,0-0.1-0.1c0,0,0-0.1-0.2-0.1
	c-0.1,0-0.4,0-0.5,0c-0.2,0-0.3,0-0.4,0.1c-0.1,0.1-0.1,0.1-0.2,0c0,0-0.2-0.1-0.5-0.1c-0.2,0-0.5,0-0.5-0.1c0,0-0.1,0-0.1,0
	c-0.1,0-0.1,0.1-0.2,0c0,0-0.4-0.1-0.8-0.1c-0.4,0-0.8,0-0.8,0c-0.1-0.1-2.4,0-2.5,0c-0.1,0-0.1,0-0.1,0c0-0.1-0.4-0.1-2.1,0
	c0,0-0.2,0-0.4,0c-0.2,0-0.3,0-0.3,0c0,0,0,0-0.1,0c0,0-0.1,0-0.1,0c0-0.1-0.5,0-1.2,0.1c-0.3,0-0.7,0.1-0.8,0.1c-0.2,0-0.3,0-0.3,0
	c0,0-0.2,0-0.4,0c-0.2,0-0.4,0-0.5,0.1c-0.1,0-0.1,0-0.1,0c0,0-0.1-0.1-0.1,0c0,0-0.3,0.1-0.5,0.1c-0.6,0-1.4,0.1-1.4,0.1
	c0,0-0.1,0-0.2,0c-0.1,0-0.3,0-0.4,0.1c-0.8,0.2-1.4,0.3-1.5,0.2c-0.1,0-0.1-0.1-0.1-0.2s0-0.2-0.1-0.2c0,0-0.1,0,0-0.1
	c0,0,0-0.1,0-0.2c0-0.1-0.1-0.1,0-0.1c0,0,0-0.2-0.1-0.3c-0.2-0.6-0.6-1.9-0.8-2.7c-0.1-0.4-0.2-0.9-0.2-1c0-0.1,0-0.2,0-0.3
	c0,0,0-0.1-0.1-0.1c-0.1,0-0.1,0,0-0.1c0.1-0.1,0.1-0.1,0-0.1c-0.1,0-0.1,0-0.1-0.1c0,0,0-0.2,0-0.3c-0.1-0.4-0.1-0.6-0.2-0.8
	c0-0.1,0-0.2,0-0.2c0,0,0-0.1-0.1-0.3c0-0.2-0.1-0.4-0.1-0.5c0-0.1-0.1-0.3-0.1-0.4c0-0.1-0.1-0.4-0.1-0.6c0-0.2-0.1-0.5-0.1-0.6
	c-0.1-0.6-0.2-0.9-0.2-1.1c0-0.1-0.1-0.3-0.1-0.5c0-0.3-0.1-0.8-0.2-1.2c0-0.1-0.1-0.4-0.1-0.7c0-0.3-0.1-0.6-0.1-0.8
	c0-0.1,0-0.4-0.1-0.6c-0.1-0.5-0.1-0.9-0.1-0.9s0-0.3-0.1-1.3c0-0.3,0-0.6,0-0.6c0,0,0-0.5,0-1.1c0-0.6,0-1.5-0.1-1.9
	c-0.1-1.1-0.1-3.6,0-4.6c0.1-1.1,0.1-2.6,0.2-3.7c0-1.2,0.1-2.1,0.2-2.5c0-0.2,0.1-0.5,0.1-0.9c0-0.3,0.1-0.8,0.1-1.1
	c0-0.3,0.1-0.7,0.1-1c0-0.3,0.1-0.6,0.1-0.7c1-4.6,1.6-9.3,3.7-13.7c1.8-3.7,4.4-7,7.9-9.2c0.3-0.2,0.7-0.4,1-0.4
	c0.6,0,1.1,0.4,1.5,0.8c8.1,8.3,9.7,20.7,10,31.8C147.1,76.2,147.1,76.7,147.1,76.8C147.2,76.7,147.2,76.7,147.1,76.8z M208.3,160.9
	c-0.3,1.5-1.1,2.9-2.5,3.4c-0.5,0.2-1,0.2-1.5,0.2c-4.3,0.1-8.7-0.3-12.9-1.4c-0.2,0-0.5-0.1-0.7-0.2c-0.5-0.1-0.9-0.2-1.3-0.3
	c-0.6-0.2-2.1-0.6-2.7-0.7c-0.3-0.1-0.7-0.2-0.9-0.2c-0.2,0-0.4-0.1-0.5-0.2c-0.1,0-0.2-0.1-0.3-0.1c-0.1,0-0.2,0-0.3-0.1
	c0,0-0.1-0.1-0.2-0.1c-0.1,0-0.2,0-0.3-0.1c-0.1,0-0.4-0.2-0.8-0.3c-1-0.3-2-0.7-2-0.7c0,0-0.1-0.1-0.2-0.1c-0.1,0-0.2,0-0.3-0.1
	c0,0-0.2-0.1-0.4-0.2c-0.2-0.1-0.4-0.1-0.4-0.2c0,0-0.2-0.1-0.4-0.2c-0.2-0.1-0.5-0.2-0.7-0.3c-0.2-0.1-0.4-0.2-0.4-0.2
	c0,0-0.1,0-0.2-0.1c-0.1-0.1-0.3-0.1-0.8-0.3c-0.1,0-0.3-0.1-0.4-0.2c-0.1,0-0.3-0.1-0.4-0.2c-0.1,0-0.3-0.1-0.4-0.2
	c-0.1,0-0.3-0.1-0.5-0.2c-0.2-0.1-0.5-0.2-0.7-0.3c-0.2-0.1-0.6-0.2-0.8-0.3c-0.2-0.1-0.5-0.2-0.7-0.3c-0.2-0.1-0.6-0.3-1.1-0.5
	c-0.4-0.2-1-0.4-1.2-0.5c-0.4-0.2-4.7-2.3-5.4-2.7c-0.3-0.1-0.7-0.4-0.9-0.5c-0.6-0.3-1.2-0.7-1.7-1c-0.5-0.3-0.8-0.5-1.3-0.7
	c-0.1-0.1-0.5-0.3-0.8-0.5c-0.3-0.2-0.7-0.4-0.8-0.5c-0.7-0.4-4.4-2.9-4.7-3.1c-0.1-0.1-0.2-0.2-0.3-0.2s-0.1,0-0.1-0.1
	c0,0,0-0.1-0.1-0.1c0,0-0.3-0.1-0.5-0.3c-0.2-0.2-0.5-0.3-0.6-0.3c-0.2-0.1-0.2-0.3,0.1-0.8c0.2-0.2,0.3-0.4,0.3-0.4
	c0,0,0.2-0.3,0.3-0.6c0.4-0.7,0.6-1,1-1.6c0.2-0.3,0.4-0.7,0.6-0.9c0.5-0.7,0.9-1.5,1.5-2.6c0.3-0.6,0.7-1.3,0.9-1.5
	s0.3-0.6,0.5-0.8s0.2-0.4,0.2-0.4c0,0,0.1-0.1,0.5-0.8c0.1-0.2,0.3-0.5,0.3-0.5s0.2-0.3,0.4-0.7c0.2-0.4,0.5-1,0.7-1.3
	c0.4-0.7,3.6-7,3.8-7.6c0.3-0.8,0.9-1.8,0.9-1.7c0,0,0.1,0.1,0.1,0.1c0,0,0.2,0,0.4,0c0.2,0,0.4,0.1,0.5,0.1c0.1,0,0.2,0.1,0.2,0.1
	c0,0.1,0.1,0.1,0.1,0c0.1-0.1,0.1,0,0.3,0.1c0.1,0.1,0.2,0.1,0.3,0.1c0.1,0,0.2,0,0.2,0.1c0,0,0,0.1,0.1,0c0,0,0.1,0,0.2,0
	c0.1,0,0.1,0.1,0.2,0c0,0,0.1,0,0.3,0.1c0.1,0.1,0.2,0.1,0.3,0.1c0,0,0.1,0,0.1,0c0,0,0,0.1,0.1,0c0,0,0.1,0,0.1,0
	c0,0,0.1,0.1,0.2,0s0.2,0,0.2,0c0,0,0.1,0.1,0.3,0.1c0.1,0,0.3,0.1,0.3,0.1c0.3,0.1,0.6,0.2,0.6,0.2c0,0,0.1,0,0.3,0.1
	c0.2,0.1,0.3,0.1,0.3,0.1c0,0,0.1,0,0.2,0c0.2,0.1,0.4,0.2,0.6,0.2c0,0,0.1,0,0.1,0.1c0,0,0.1,0.1,0.2,0.1c0.1,0,0.3,0.1,0.3,0.1
	c0,0,0.1,0.1,0.2,0.1c0.1,0,0.2,0,0.3,0.1c0.1,0,0.2,0.1,0.3,0.1c0,0,0.1,0,0.2,0.1c0.3,0.1,0.4,0.2,0.5,0.2c0.1,0,0.2,0,0.2,0.1
	c0.1,0,0.2,0.1,0.2,0.1c0.3,0.1,0.7,0.3,0.7,0.3c0,0,0.1,0.1,0.2,0.1c0.1,0,0.2,0.1,0.4,0.1c0.1,0.1,0.3,0.1,0.3,0.1
	c0,0,0.1,0,0.1,0.1s0,0.1,0,0.1c0,0,0.3,0.1,0.6,0.2c0.3,0.1,0.9,0.3,1.2,0.4c0.3,0.1,0.8,0.3,0.9,0.3c0.2,0.1,0.3,0.1,0.4,0.1
	c0.2,0,0.6,0.2,0.7,0.3c0,0.1,0.4,0.2,0.5,0.2c0,0,0.1,0,0.1,0.1s0,0.1,0.1,0.1c0.1,0,0.4,0.1,0.4,0.2c0,0,0,0.1,0,0
	c0,0,0.3,0.1,0.6,0.2c0.3,0.2,0.5,0.3,0.5,0.2c0,0,0,0,0.1,0c0.1,0.1,1.1,0.6,1.3,0.6c0,0,0.4,0.2,0.9,0.4c0.4,0.2,0.8,0.4,0.9,0.4
	c0,0,0.1,0,0.1,0.1c0,0,0.5,0.3,1,0.5c1,0.5,1.3,0.7,1.4,0.8c0,0,0.2,0.1,0.3,0.2c0.1,0.1,0.3,0.2,0.4,0.2c0.1,0.1,0.1,0.1,0.1,0.1
	s0.1,0,0.2,0.1c0.1,0.1,0.4,0.3,0.7,0.4c0.3,0.2,0.5,0.3,0.5,0.3c0,0,0,0.1,0.1,0.1c0.1,0,0.9,0.5,1.1,0.7c0.1,0.1,0.1,0.1,0.1,0
	c0-0.1,0,0,0.1,0.1c0.1,0.1,0.2,0.2,0.2,0.2c0.1,0,1.2,0.8,1.9,1.4c0.3,0.2,0.6,0.4,0.7,0.5c0.1,0,0.1,0.1,0.1,0.1
	c0,0,0,0.1,0.1,0.1c0.1,0,0.3,0.2,0.4,0.3c0.2,0.2,0.3,0.3,0.4,0.3c0.1,0,1,0.9,1.9,1.8c0.9,0.9,1.1,1.1,2,2.1
	c0.3,0.4,0.6,0.7,0.6,0.7c0,0,0.1,0.2,0.3,0.3c0.1,0.2,0.3,0.4,0.4,0.5s0.3,0.3,0.4,0.5c0.1,0.2,0.2,0.3,0.3,0.3
	c0,0,0.9,1.2,1.2,1.6c0.1,0.1,0.2,0.3,0.3,0.5c0.3,0.4,1.6,2.4,1.7,2.5c0,0.1,0.1,0.3,0.3,0.4c0,0,0,0,0,0c2,3.1,3.6,6.9,3.6,10.5
	C208.4,159.9,208.4,160.4,208.3,160.9z M243,198.8l0.2-0.2C243.1,198.6,243,198.7,243,198.8z"/>
<g transform="translate(0.000000,205.000000) scale(0.100000,-0.100000)">
	<path class="st0" d="M2646.4,1254.4c-0.5-60.7-2-115.5-4-122.4c-3-10.9-6.9-12.8-30.1-14.8l-27.2-2.5l-1.5-28.1l-1.5-28.6h23.7
		c12.8,0,27.2-2,30.6-4.4c5.9-3.9,7.9-34.1,10.9-171.8c4-174.3,6.4-194,26.2-205.4c7.4-4.4,60.3-6.4,194.7-7.4l183.8-1.5V825
		c0,86.4,1.5,171.3,3.5,188.6c3,29.1,4,31.1,19.3,37.5c11.4,4.9,38.1,6.9,86,6.9h69.2v29.6v29.6h-113.2c-62.3,0-119.1-2-126.5-4.9
		c-6.9-2.5-14.8-10.9-18.3-18.3c-3.5-8.9-6.4-76-8.4-185.1c-1.5-93.8-4.9-172.8-6.9-175.2c-2.5-2-48.9-3.9-103.3-3.9
		c-91.9,0-99.3,0.5-105.8,9.4c-5.4,7.9-6.9,38-6.9,159.4c0,142.7,0.5,149.6,9.4,154.5c5.4,2.5,38.5,4.9,74.1,4.9h64.7v29.6v29.6
		h-65.2c-36.1,0-69.2,2.5-73.1,4.9c-5.9,3.9-7.9,24.7-9.9,121.9l-2.5,117.5l-45.5,1.5l-46,1.5L2646.4,1254.4z"/>
	<path class="st0" d="M5878,1051.1c-0.5-172.3-3.5-314.9-5.4-317.4c-5.4-5.4-387-5.4-392.4,0c-4.9,4.9-8.4,252.2-4,288.3
		c2,16.8,5.9,26.7,11.4,28.6c4.4,2,74.1,4.9,154.2,6.9l145.8,3v27.1v27.1l-175.9-0.5c-170,0-176.4-0.5-192.7-10.9
		c-9.4-5.4-21.3-17.8-26.7-26.7c-9.4-15.3-9.9-25.2-9.9-184.1c0-165.9,0-167.8,11.4-185.6c22.7-37,16.3-36,311.3-38l262.9-2
		l0.5,31.6c4.4,244.8,7.4,349.5,10.9,352.9c6.9,6.4,215.5,8.4,236.2,2l18.3-5.4l3-36c1.5-19.3,4-104.2,4.9-188.1
		c1.5-83.9,4-154,5.9-155.5c5.4-5.4,231.8-6.4,246.1-1c12.4,4.9,13.3,7.4,11.9,28.6l-1.5,23.7l-80.1,2.5c-44,1.5-81.5,4.4-84,6.4
		c-2,2.5-4.9,78-6.9,168.3c-3,183.6-3.5,186.6-39,207.3c-15.8,9.4-28.7,10.4-163.6,12.8c-81,1.5-148.8,4.4-151.2,6.4
		c-2,2.5-4.9,56.8-6.4,120.9l-2.5,117l-45.5,1.5l-45,1.5L5878,1051.1z"/>
	<path class="st0" d="M3369,1112.3c-36.6-5.4-52.9-22.2-60.3-61.7c-3.5-19.3-4.9-81-3.5-177.7c2.5-169.3,4.4-179.7,37.1-193.5
		c16.3-6.9,53.4-7.9,305.4-8.4l286.6-0.5l1.5,17.3c2.5,27.1,8.9,28.6,27.2,7.4c16.3-18.8,17.8-19.7,58.3-22.7
		c22.7-2,90.9-3.9,151.2-3.9c60.3-0.5,115.1-2.5,122.1-5.4c12.4-4.4,17.5-6.7,17.5-39.2l-0.6-64.6l-514.2,3.5l0.8-65h598.3V589
		v264.1v264.6l-45.5-1.5l-46-1.5l-1.5-191l-1-191l-26.2-3c-35.6-4.4-228.8-1-234.2,3.9c-2,2.5-4.9,88.9-6.4,192.5l-2.5,188.6
		l-45.5,1.5l-46,1.5V922.2v-195h-267.4h-266.9l-7.9,18.8c-6.4,15.8-7.4,37.5-4.9,154c1,74.5,4,139.7,5.9,144.1
		c4.9,11.8,38.5,14.8,151.2,12.8c120.6-2,118.1-0.5,118.1-61.2c0-27.1-2-42.5-5.9-44.9c-3.5-2-50.9-4.9-105.3-6.4l-98.8-2.5v-27.1
		v-27.1h150.7h150.7l-1,85.4c-1,97.2-5.9,114-36.1,131.3c-15.8,9.4-27.2,10.4-173,11.4C3465.8,1116.2,3383.8,1114.7,3369,1112.3z"/>
	<path class="st0" d="M4505.1,1087.6V1058h152.2c88,0,159.1-2,170-4.9c17.3-4.9,18.3-6.4,21.3-32.1c4-28.1,1-53.8-7.4-66.6
		c-4-6.4-28.2-7.9-149.7-10.4c-164.1-3-170-4.4-188.3-41.5c-8.4-16.8-9.9-30.1-9.4-96.8c0-90.8,5.4-109.1,38.5-125.4
		c18.8-9.4,32.1-9.9,307.9-11.4l287.6-2l0.5,23.7c0.5,13.3,2,96.8,4,185.6c2.5,146.1,4,162.4,11.9,170.3c7.4,7.4,19.8,8.9,88,10.4
		l79.1,1.5l-1.5,28.1l-1.5,28.1l-113.7,1.5c-62.3,0.5-118.6,0-124.5-1.5c-6.4-1.5-15.3-8.4-19.8-15.8c-7.4-11.4-8.9-33.1-11.4-187.1
		c-1.5-95.8-4.4-175.7-6.4-178.2c-5.4-5.4-436.4-5.4-441.8,0c-2,2.5-4.4,32.6-5.4,66.6c-1.5,49.4,0,64.7,5.9,72.6
		c6.4,9.4,13.8,9.9,115.6,11.4c59.3,1,115.6-0.5,125-2.5c16.8-4.4,16.8-4.4,18.3-37.5l1.5-33.1h44h44.5v117.5
		c0,64.2-2.5,124.9-4.9,134.8c-2.5,9.4-11.4,23.7-19.8,31.6c-12.8,12.3-19.8,14.3-57.8,17.8c-23.7,2-113.2,3.9-197.7,3.9l-154.7,0.5
		V1087.6z"/>
</g>
</svg>
