<?xml version="1.0" encoding="utf-8"?>
<!-- Generator: Adobe Illustrator 20.0.0, SVG Export Plug-In . SVG Version: 6.00 Build 0)  -->
<svg version="1.1" xmlns="http://www.w3.org/2000/svg" xmlns:xlink="http://www.w3.org/1999/xlink" x="0px" y="0px"
	 viewBox="0 0 986 296.8" preserveAspectRatio="xMinYMid" style="enable-background:new 0 0 986 296.8;" xml:space="preserve">
<style type="text/css">
	.st0{display:none;}
	.st1{display:inline;fill:#5B5B5B;}
	.st2{fill:#FFFFFF;}
</style>
<g id="Calque_2" class="st0">
	<rect x="-86" y="-101" class="st1" width="1264" height="539"/>
</g>
<g id="svg2" xmlns:cc="http://creativecommons.org/ns#" xmlns:dc="http://purl.org/dc/elements/1.1/" xmlns:rdf="http://www.w3.org/1999/02/22-rdf-syntax-ns#" xmlns:svg="http://www.w3.org/2000/svg">
	<g id="ubisoft">
		<path id="path22" class="st2" d="M655.5,134.7v0.9h19.3c0-8.7,0.5-20.1-20.6-20.1h-63.3c0,0,0,18,0,24.9c0,6.9,3.1,18.7,19.5,18.7
			c13.6,0,45.7,0,45.7,0s0,3.1,0,3.9c0,4.5-0.4,6.4-9,6.4c0,0-29.9,0-33.8,0c-3.9,0-3.6-3.3-3.6-3.3v-1.2h-19.5c0,0,0,2.7,0,5.5
			c0,6.3,2.6,15.2,17.1,15.2c0,0,45.8,0,50.1,0c9.5,0,19.7-3.5,19.7-15.8c0-2.9,0-7.1,0-11.5c0-7-1.7-15.9-17.5-15.9h-35.9
			c-10.4,0-12-2.4-12-7.1v-3.6c0,0,38.9,0,40.2,0C653.4,131.6,655.5,132.1,655.5,134.7"/>
		<path id="path24" class="st2" d="M411.4,155.5c0,4.5-0.9,7.6-2.7,9.5c-1.8,1.9-4.8,2.8-9.2,2.8h-21.1c-4.3,0-7.4-0.9-9.2-2.8
			c-1.8-1.8-2.7-5-2.7-9.5v-40h-21.3v44.6c0,8.7,2.3,15.1,6.9,19.2c4.6,4.2,11.8,6.2,21.6,6.2h58.9l0-70.1h-21.3L411.4,155.5"/>
		<path id="path26" class="st2" d="M526.2,149.5c3.6-1,6.2-2.5,7.8-4.6c1.6-2.1,2.4-5.8,2.4-11.2c0-6.7-2-11.4-6-14.1
			c-4-2.7-10.4-4.1-19.2-4.1H450v70.1h67.8c6.8,0,12-1.3,15.7-3.9c3.7-2.6,5.5-8.1,5.5-15.1c0-5.4-0.9-9.3-2.9-11.9
			C534.2,151.9,530.9,150.3,526.2,149.5L526.2,149.5z M471.2,131.6h37.7c4.1,0,6.2,1.8,6.2,5.5c0,2-0.5,3.9-1.5,4.7
			c-1,0.8-2.6,1.2-4.7,1.2h-37.7V131.6z M515.2,168.3c-1.3,0.7-3.2,1.1-5.7,1.1h-38.2v-12h38.2c2.5,0,4.4,0.4,5.7,1.3
			c1.3,0.8,2,2.8,2,5C517.1,165.5,516.5,167.5,515.2,168.3"/>
		<path id="path28" class="st2" d="M552.7,185.5h21.3v-70.1h-21.3V185.5z"/>
		<path id="path30" class="st2" d="M797,185.5h21.3v-22.7H867V145h-48.8v-11.8h51.2v-17.8H797V185.5"/>
		<path id="path32" class="st2" d="M877.4,115.4v17.7h29.9v52.4h21.3v-52.4h29.9v-17.7H877.4"/>
		<path id="path34" class="st2" d="M718.7,115.4c-13.3,0-18.2,2-22.9,5.4c-4.7,3.4-7.7,9.3-7.7,18.9v20.7c0,9.6,2.5,16.3,7.5,19.8
			c5,3.6,11.6,5.3,23.1,5.3h32.3c11.4,0,17.4-1.5,22.5-5.2c5-3.6,7.3-9.1,7.3-19.9v-45H718.7z M759.3,154.5c0,5.7-0.6,8.3-2.4,10.2
			c-1.8,1.9-4.9,3-9.7,3h-25.6c-5.5,0-8.2-1.3-9.7-3.1c-1.6-1.8-2.4-5-2.4-10.8v-7.5c0-4.8,0.9-7.7,2.7-9.9
			c1.8-2.2,5.3-3.4,10.6-3.4h36.6V154.5"/>
	</g>
	<g>
		<path class="st2" d="M129.6,159c-8.5,4.1-14.5,12.6-14.9,22.6c-0.6,14.5,10.6,26.8,25.2,27.5c14.5,0.6,26.8-10.7,27.5-25.2
			c0.4-10.1-4.9-19.1-13-23.8c4.6,3.9,7.5,9.8,7.2,16.3c-0.5,11.2-9.9,19.9-21.1,19.4c-11.2-0.5-19.9-9.9-19.4-21.1
			C121.3,168.2,124.7,162.5,129.6,159z"/>
		<path class="st2" d="M185.9,201.6c15.7-19.4,12.8-47.8-6.6-63.6c-19.4-15.7-47.8-12.8-63.6,6.6c-10.9,13.4-12.8,31.2-6.6,46
			c-2.4-10.1-0.2-21.2,6.8-29.8c12.1-14.9,34-17.1,48.9-5c14.9,12.1,17.2,34,5.1,48.9c-7,8.7-17.4,13.1-27.8,12.8
			C158,220.6,175,215,185.9,201.6z"/>
		<path class="st2" d="M39.4,169.6c0-47.7,38.5-86.5,86-86.5c43.1,0,78.9,28.6,84.7,71.2c6.2,44.7-21.6,74.5-52.6,76.9
			c-31.2,2.5-59.2-18.5-62.9-49.5c-3.7-31,18.5-59.2,49.5-62.9c18.1-2.2,35.2,4.5,47.1,16.6c-13.5-19.3-35.8-31.6-60.4-31.6
			c-2.9,0-5.8,0.2-8.8,0.5c-40.4,4.8-69.2,41.4-64.4,81.8c0,0,7.3,75.7,93.2,75.3c63.5-0.4,112.9-50.5,112.9-112.9
			c0-36.6-17.8-69.4-44.8-90l0,0C170.2,18.8,98.4,26.1,58.7,75c-27.5,33.8-32.3,78.6-16.6,116.1l-0.8-3
			C40.1,182.1,39.4,175.9,39.4,169.6z"/>
		<path class="st2" d="M16.1,157.5c0-38.2,13.5-74.8,40.5-101.8c23-23.1,55.6-37.5,87.9-41.2l-2.1-0.1
			c-34.6,1.4-66.9,15.9-90.9,40.9v0c-24.2,25.1-37.5,58-37.5,92.8c0,6.6,0.5,13.5,1.6,20.4l0.7,2.8
			C15.9,167.2,16.1,160.8,16.1,157.5z"/>
		<path class="st2" d="M238.4,49.1L238.4,49.1l-1.4-0.6c8.5,9.4,16.3,19,22.2,29.1c11.6,20.1,19.1,46.4,19.1,69.8
			c0,73.1-57.5,130.6-130.6,130.6c-23.4,0-49.7-7.5-69.8-19.2c-10-5.8-19.4-13.1-29.1-21.6l0.6,0.8v0l0,0
			c25.3,27.8,61.4,43.8,98.9,43.8c73.8,0,133.8-60,133.8-133.8C282.2,110.5,266.3,74.4,238.4,49.1z M149.1,280.8
			c-29,0-53.3-10.4-71.7-21.2c20.3,11.7,46.8,19.3,70.3,19.3c73.7,0,131.6-57.9,131.6-131.6c0-23.5-7.6-50.1-19.3-70.3
			c9.8,16.1,21.2,42.6,21.2,71.7C281.2,221.9,222.3,280.8,149.1,280.8z"/>
		<path class="st2" d="M148,5C69,5,5,69,5,148s64,143,143,143s143-64,143-143S227,5,148,5z M148,284c-75.1,0-136-60.9-136-136
			C12,72.9,72.9,12,148,12c75.1,0,136,60.9,136,136C284,223.1,223.1,284,148,284z"/>
	</g>
</g>
</svg>
