<svg xmlns="http://www.w3.org/2000/svg" width="315.232" height="91.102" viewBox="0 0 295.529 85.406"><defs><clipPath id="A"><path d="M164.36 725.33H431.2v97.992H164.36V725.33z"/></clipPath></defs><g clip-path="url(#A)" transform="matrix(1.25 0 0 -1.25 -223.20987 1009.8813)"><g fill="#0e2537"><path d="M201.97 759.462l-8.316 19.542h-3.936l-8.315-19.542h4.35l1.774 4.352h8.205l1.774-4.352h4.463zm-7.762 8.12h-5.155l2.578 6.293 2.577-6.293zm27.38-5l-2.716 2.744c-1.524-1.386-2.883-2.272-5.1-2.272-3.326 0-5.627 2.772-5.627 6.098v.055c0 3.327 2.356 6.043 5.627 6.043 1.94 0 3.465-.832 4.962-2.2l2.716 3.133c-1.802 1.774-4 2.993-7.65 2.993-5.96 0-10.117-4.517-10.117-10.033v-.056c0-5.57 4.24-9.978 9.95-9.978 3.742 0 5.96 1.33 7.954 3.464m20.734 0l-2.717 2.744c-1.524-1.386-2.883-2.272-5.1-2.272-3.326 0-5.627 2.772-5.627 6.098v.055c0 3.327 2.356 6.043 5.627 6.043 1.94 0 3.465-.832 4.962-2.2l2.716 3.133c-1.802 1.774-3.992 2.993-7.65 2.993-5.96 0-10.118-4.517-10.118-10.033v-.056c0-5.57 4.24-9.978 9.95-9.978 3.742 0 5.96 1.33 7.956 3.464m23.45 6.57v.055c0 5.516-4.296 9.978-10.284 9.978s-10.34-4.517-10.34-10.033v-.056c0-5.515 4.297-9.978 10.284-9.978s10.34 4.517 10.34 10.034m-4.462-.056c0-3.326-2.385-6.042-5.822-6.042s-5.876 2.772-5.876 6.098v.055c0 3.327 2.383 6.043 5.82 6.043s5.877-2.772 5.877-6.098v-.056zm25.86-9.646l-4.74 6.93c2.467.915 4.157 2.883 4.157 6.015v.056c0 4-2.744 6.402-7.317 6.402h-8.87v-19.403h4.268v6.2h3.355l4.157-6.2h5zm-4.906 12.723c0-1.635-1.192-2.745-3.27-2.745h-4.324v5.572h4.24c2.08 0 3.354-.942 3.354-2.772v-.055zm43.484-24.727c-.335.652-.95 1.2-1.9 1.2-1.005 0-1.544-.558-1.934-1.135v1.006h-.894v-5.956h.894v3.387c0 1.098.707 1.898 1.656 1.898s1.527-.67 1.527-1.787v-3.498h.874v3.425c0 1.172.763 1.86 1.656 1.86.968 0 1.525-.67 1.525-1.824v-3.46h.874v3.686c0 1.47-.818 2.4-2.176 2.4-1.043 0-1.694-.54-2.103-1.2m-7.52-1.935c0-1.285-.893-2.307-2.196-2.307-1.227 0-2.177 1.04-2.177 2.326 0 1.302.894 2.326 2.158 2.326s2.215-1.043 2.215-2.345m.912.02c0 1.693-1.302 3.107-3.108 3.107-1.785 0-3.106-1.433-3.106-3.126s1.32-3.1 3.087-3.1a3.09 3.09 0 0 1 3.127 3.108m-7.965-1.434c-.464-.502-1.06-.892-1.824-.892-1.246 0-2.195 1.022-2.195 2.326s.93 2.326 2.14 2.326c.8 0 1.34-.4 1.804-.912l.596.632c-.558.577-1.265 1.06-2.38 1.06-1.75 0-3.053-1.433-3.053-3.126 0-1.674 1.302-3.1 3.053-3.1 1.116 0 1.823.483 2.418 1.154l-.558.52zm-24.398-.186l-2.308 6.7h-.986l2.866-8.114h.763l2.214 6.532 2.215-6.532h.763l2.884 8.114h-.967l-2.308-6.7-2.177 6.72h-.763l-2.196-6.72zm-8.914 7.035h-.894v-7.072c0-1.265.7-1.47 1.285-1.47.26 0 .483.057.688.113l-.1.76c-.54-.167-.968-.1-.968.56v7.108zm-7.537-5.08c.13 1.135.893 2.03 1.935 2.03 1.2 0 1.805-.95 1.898-2.03h-3.833zm-7.092 0c.113 1.135.894 2.03 1.936 2.03 1.2 0 1.806-.95 1.9-2.03h-3.835zm4.7-.67a1.89 1.89 0 0 1 .018.279c0 1.75-1.024 3.163-2.773 3.163-1.637 0-2.848-1.394-2.848-3.107 0-1.862 1.34-3.108 2.96-3.108 1.135 0 1.86.447 2.438 1.116l-.54.485c-.465-.503-1.06-.838-1.86-.838-1.06 0-1.972.744-2.104 2h4.7zm-6.663 5.415h-5.23v-8.058h.912v3.498h3.797v.857h-3.797v2.867h4.318v.836zm13.753-5.415a1.79 1.79 0 0 1 .019.279c0 1.75-1.024 3.163-2.774 3.163-1.637 0-2.847-1.394-2.847-3.107 0-1.862 1.34-3.108 2.96-3.108a2.99 2.99 0 0 1 2.437 1.116l-.54.485c-.466-.503-1.06-.838-1.862-.838-1.06 0-1.972.744-2.102 2h4.708zm21.718.67c.13 1.135.893 2.03 1.935 2.03 1.2 0 1.805-.95 1.9-2.03h-3.834zm4.7-.67a1.89 1.89 0 0 1 .018.279c0 1.75-1.024 3.163-2.772 3.163-1.638 0-2.848-1.394-2.848-3.107 0-1.862 1.34-3.108 2.958-3.108a2.99 2.99 0 0 1 2.438 1.116l-.54.485c-.466-.503-1.06-.838-1.86-.838-1.06 0-1.974.744-2.104 2h4.7zm2.8 5.75h-.894v-7.072c0-1.265.688-1.47 1.283-1.47.26 0 .485.057.688.113l-.1.76c-.54-.167-.966-.1-.966.56v7.108zm28.5-5.08c.13 1.135.894 2.03 1.935 2.03 1.2 0 1.805-.95 1.898-2.03h-3.833zm4.708-.67a1.79 1.79 0 0 1 .019.279c0 1.75-1.024 3.163-2.773 3.163-1.637 0-2.848-1.394-2.848-3.107 0-1.862 1.34-3.108 2.96-3.108 1.136 0 1.862.447 2.44 1.116l-.54.485c-.466-.503-1.06-.838-1.86-.838-1.063 0-1.974.744-2.104 2h4.708z"/></g><path d="M281.802 788.352c0-.256 1.086-.234 2.172-.234 4.09 0 8.157.362 12.01 1.277 5.133 1.215 6.518 3.025 9.392 4.643 5.857 3.3 13.268 2.726 13.268 3.28 0 .15-.107.192-2.172.724-.192.788-1.214 1.3-2.237 1.3-2.405 0-6.347-2.8-9.882-2.8a6.75 6.75 0 0 0-1.129.107c-1.426 2.662-4.684 5.026-8.71 5.537-2.322.298-3.982.575-5.303.81-4.664.852-5.878 2.066-6.41 2.066-.106 0-.148-.107-.148-.192 0-.894 1.597-3.407 4.13-6.24 1.66-1.852 4.408-4.536 4.408-5.813 0-.703-1.554-1.555-4.515-2.812-3.45-1.47-4.876-1.448-4.876-1.66" fill="#e3980b"/><path d="M313.816 759.462v19.403h-4.27v-7.68h-9.7v7.68h-4.268v-19.403h4.268v7.79h9.7v-7.79h4.27zm25.252 9.702v.055c0 5.516-4.297 9.978-10.284 9.978s-10.338-4.517-10.338-10.033v-.056c0-5.515 4.296-9.978 10.284-9.978s10.338 4.517 10.338 10.034m-4.464-.056c0-3.326-2.382-6.042-5.82-6.042s-5.877 2.772-5.877 6.098v.055c0 3.327 2.385 6.043 5.823 6.043s5.874-2.772 5.874-6.098v-.056zm22.952 5.82v3.936h-16.078v-3.936h5.905v-15.467h4.27v15.467h5.904zm18.875-15.467v3.798h-10.533v4.074h9.148v3.798h-9.148v3.936h10.395v3.797h-14.635v-19.403h14.773zm17.654 0v3.88h-8.756v15.522h-4.268v-19.403h13.024zm18.07 5.738v.056c0 3.38-2.217 4.795-6.154 5.82-3.353.86-4.186 1.276-4.186 2.55v.056c0 .942.86 1.69 2.496 1.69s3.327-.72 5.043-1.913l2.22 3.216c-1.97 1.58-4.38 2.466-7.207 2.466-3.963 0-6.79-2.328-6.79-5.848v-.056c0-3.853 2.523-4.933 6.43-5.93 3.244-.832 3.908-1.387 3.908-2.468v-.054c0-1.138-1.052-1.83-2.8-1.83-2.217 0-4.047.914-5.793 2.356l-2.523-3.022c2.328-2.078 5.295-3.104 8.233-3.104 4.185 0 7.123 2.163 7.123 6.015" fill="#0e2537"/></g></svg>