<svg xmlns="http://www.w3.org/2000/svg" width="200" height="233.585" fill-rule="evenodd"><path d="M38.765 137.473h19.77s-4.975-14.48-5.532-18.38c0-.001-12.3 16.708-14.24 18.38zM3.026.045v167.32l41.36-52.983s5.18-6.5 6.215-12.025h12.774a742.27 742.27 0 0 0 11.244 39.232l.067-.078 5.152-6.823-9.607-32.4h14.62l5.7 20.164.144-.166s12.812-15.214 13.367-20h11.557l-21.3 30.72c-.032.05-.07.1-.1.15l2.594 7.054 20.17-25.84s5.178-6.5 6.214-12.025h12.775s8.155 32.424 17.81 58.415c1.23 4.213 2.942 7.684 5.25 13.552h-14.647s-8.24-19.028-11.3-29.61h-28.13l-4.548 6.01c1.508 4.7 2.947 9.667 4.078 14.6 0 0 .975 3.34 1.67 4.874s1.81 4.13 1.532 4.13h-14.2s-.974-3.573-1.67-5.523c-.285-.8-.97-2.512-1.743-4.424l-7.53 9.946H71.79l-3.822-9.153-.24.288s-6.684 7.286-7.38 8.865h-11.14s13.506-17.635 14.48-19.863l.07-.082c-1.287-3.473-2.462-6.865-3.27-9.665H32.36l-22.412 29.61H3.026v19.122h196.97V.045H3.026zm80.85 146.338a6 6 0 0 0-.22-.767l-.2.21-5 6.82-.116.137 2.72 7.62 5.013-6.422c-1.016-3.193-2.187-7.3-2.187-7.6zm27.48-8.91h19.772s-4.975-14.48-5.532-18.38c0 0-12.3 16.708-14.24 18.38" fill="#1f4fa2"/><path d="M109.96 95.24h10.025L198.515.002h-10.77L109.96 95.24" fill="#ed192d"/><path d="M9.22 221.2h5.305c2.48 0 3.392 1.262 3.392 2.87 0 3-2.48 3.3-4.827 3.3H8.914l.3-6.175zm7 11.872c6.523 0 10.437-2.957 10.437-8.176a6.35 6.35 0 0 0-5.7-6.653v-.086c3.48-.913 5.392-3.566 5.392-7.35 0-4.957-3.52-6.74-8.48-6.74H1.17c.043 8.35-.522 24.352-1.175 29.005h16.22zm-6.565-23.308h3.87c1.87 0 4.088.173 4.088 2.565 0 2.13-1.35 3.174-4.7 3.174H9.436l.217-5.74m32.962 8.873l3.915-8.306 2.7 8.306zm8.132 6.087l2.74 8.35h9.654l-10.654-29.005h-10.96c-2.4 5.1-12.22 23.918-15.307 29.005h10l3.827-8.35h10.7m36.355-1.87h.087c.217-2.784.74-13.7.74-18.787h8.305c-.26 2.957-1.478 21.395-1.6 29.005h-10.6c-3.348-6.306-7.348-12.307-10.437-18.438h-.084l-.653 18.438h-8.347c.566-4.6 1.478-20.656 1.478-29.005h10.872l10.26 18.787m30.83-12.96c4.783 0 7.914 3.523 7.914 8.22 0 4.957-3.174 9.132-8.392 9.132-2.186.1-4.313-.724-5.86-2.27a7.79 7.79 0 0 1-2.273-5.86c.002-5.13 3.302-9.22 8.6-9.22zm17.96 15.96a48.7 48.7 0 0 1-5.349 1.087l-.087-.087c2.826-2.478 4.52-6.827 4.52-8.958 0-9.7-7.87-14.35-16.742-14.35-8.392 0-18.046 3.87-18.046 15.87 0 9.916 8.176 14.177 17.1 14.177 5.805.028 11.605-.38 17.35-1.218l1.262-6.522m13.18-21.784c-.3 4.827-1.087 13.35-1.087 16.96 0 3.914 1.434 6.22 4.914 6.22 5.48 0 5.653-4.3 6.045-9.35.347-4.608.608-9.22.7-13.828h9.3l-1.305 20.482c-.174 4.435-4.13 9.045-14.74 9.045-10.872 0-14.046-4.6-14.046-8.6 0-6.522.913-13.22 1.087-20.917h9.133m48.96-.002l-.3 6.48-7.914-.26h-6.437l-.3 5.1h4.945l7.262-.13-.434 6.348h-12.172l-.305 5.262h2.87c3.915 0 7.83-.13 11.743-.347l-.393 6.566h-23.7a267.98 267.98 0 0 0 1.479-29.005h23.656" fill="#1f4fa2"/></svg>