<svg xmlns="http://www.w3.org/2000/svg" width="350" height="132.931" fill-rule="evenodd"><path d="M118.834 26.545c-10.823 6.334-14.145 6.83-25.81 13.863a123.6 123.6 0 0 0 13.41-16.738c-10.832.576-26.52 1.867-37.77 4.355C78.454 22.832 97.81 17 108.025 15.64c-2.37-3.26-21.53-13.675-26.313-15.638 15.165 1.175 33.72 6.8 42.69 12.34 3.626-1.09 7.247-1.18 13.8-1.75-1.667 2.883-1.693 4.557-8.175 8.815 1.8 4.782-2.473 31.11-5.985 38.117-.153-11.028-1.137-24.954-5.212-30.977zm-78.96 94.435a42.51 42.51 0 0 1-15.6-9.565c1.455-4.003 3.442-7.792 5.906-11.265-5.075.724-8.744 1.276-13.1 2.13-3.558-6.21-5.126-12.156-6.94-20.43-.98 8.76-1.336 15.032-.077 22.032-3.45.896-6.82 2.078-10.074 3.534a113.31 113.31 0 0 0 13.447 7.391c2.408 5.438 5.872 10.343 10.2 14.433a27.31 27.31 0 0 1-.958-10.991 64.61 64.61 0 0 0 17.194 2.731zm16.13-87.58c-2.06 2.856-3.67 6.01-4.778 9.35 10.175 1.586 19.95 5.108 28.8 10.375-14.03-2.47-21.353-2.168-26.558-1.7-5.2.513-6.248 1.137-6.248 1.137-3.762 8.173-6 22.4-6 22.4-2.55-6.114-6.235-18.38-6.235-18.4-7.042 3.788-23.228 19.018-23.24 19.026 8.9-17.85 17.924-26.025 17.933-26.025-3.11-3.107-11.253-4.666-17.2-4.935 3.1-1.274 11.045-2.767 17.144-3.023 3.26-.135 6.527-.074 9.78.18 5.47-4.312 13.718-7.94 16.61-8.39zm16.918 76.534c-2.838 3.8-5.233 6.825-8.374 10.327a54.35 54.35 0 0 1-14.882 2.035c3.04 1.577 6.293 2.703 9.657 3.343-2.912 2.718-6.07 5.16-9.434 7.292 5.453-1.315 12.67-3.642 18-6.76 2.44.088 4.882-.058 7.294-.438-.462-1.663-.808-2.853-1.212-4.984a119.6 119.6 0 0 0 12.86-11.642c-4.225 3.015-8.71 5.65-13.4 7.87q-.36-3.514-.51-7.045z" fill="#37a094"/><path d="M65.865 75.303c.215 2.33.363 8.145.363 10.278 0 1.955-.028 8.514-.4 11.344l-.045.23h12.822c6.265 0 12.948-1.594 12.948-6.054 0-2.8-2.527-4.872-7.275-6.01 3.483-.74 5.857-2.67 5.857-4.9 0-3.63-5.248-5.025-10.147-5.107l-14.143-.015zm9.9 2.243c5.352.02 7.34.9 7.34 3.235a2.2 2.2 0 0 1-.711 1.637c-1.027.975-3.07 1.476-5.6 1.38h-.125L75.2 86.905h1.5c2.95-.084 5.51.668 6.823 1.95.57.508.9 1.23.913 1.994 0 2.462-2.686 3.715-7.956 3.715-.9 0-2.32 0-3.238-.05-.19-3.227-.2-7.63-.2-8.933 0-1.534.086-4.96.21-7.893.84-.105 1.685-.152 2.53-.142zm45.342-2.473H114.9l.264 5.562.455 8.327a17.39 17.39 0 0 0-2.634-3.493c-.06-.08-6.52-8.067-8.768-10.327l-.065-.07H96.9v.22c.215 2.327.365 8.145.365 10.29 0 1.947-.028 8.514-.4 11.34l-.028.223h6.436l-.013-.208c-.378-5.416-.378-10.845-.378-16.09v-.013a7.25 7.25 0 0 0 1.536 2.408l11.79 13.904h5.178l-.026-.223c-.39-2.836-.413-9.393-.413-11.34 0-2.144.155-7.977.363-10.29l.03-.22zm7.494.215c.206 2.342.363 8.15.363 10.293 0 1.947-.028 8.506-.413 11.335l-.022.226h7.674l-.022-.226c-.275-2.02-.367-5.9-.4-8.886l1.41.058 1.072.04c10.12 0 15.036-2.174 15.036-6.654 0-5.107-6.9-6.29-12.665-6.4h-12.048zm9.4 2.447c3.594-.054 6.127.537 7.343 1.74a2.72 2.72 0 0 1 .818 2c0 3.2-4.47 3.865-8.216 3.865l-1.515-.034s-.38-.037-.612-.07c-.028-.73-.037-1.69-.037-2.79 0-1.41.02-3.02.094-4.57q1.06-.114 2.127-.138zm29.96-2.447c.223 2.342.37 8.15.37 10.293 0 1.947-.026 8.506-.4 11.335l-.032.226h7.676l-.036-.226c-.26-2.02-.36-5.9-.39-8.886l1.4.058 1.085.04c10.117 0 15.036-2.174 15.036-6.654 0-5.107-6.888-6.29-12.67-6.4h-12.045l.013.217zm9.413 2.447c3.592-.054 6.123.537 7.333 1.74a2.7 2.7 0 0 1 .833 2c0 3.2-4.477 3.865-8.23 3.865l-1.512-.034s-.376-.037-.608-.07c-.024-.73-.037-1.706-.037-2.795 0-1.414.024-3.018.094-4.567.466-.058 1.3-.116 2.13-.138zm25.585-2.65h-.123l-.058.123c-1.43 3.132-10.615 19.187-12.046 21.638l-.176.31h6.585l.043-.135c.578-1.5 1.31-3.212 2.178-5.053l5.448-.065 4.48.043.978.02 2.453 5.064.047.127h7.62l-12.284-22.073h-5.15zm1.867 6.5c.6 1.042 2.185 3.994 3.964 7.476l-.587.02-3.377.037-4.037-.062q1.932-3.78 4.037-7.47zm18.607-6.3c.2 2.327.372 8.147.372 10.29 0 1.947-.043 8.506-.42 11.335l-.026.23h7.674l-.022-.223c-.39-2.845-.413-9.393-.413-11.34 0-1.534.088-4.96.21-7.7q1.04-.092 2.086-.123c3.584-.062 6.12.537 7.322 1.736.55.515.857 1.238.844 1.99 0 2.55-3 3.837-5.78 3.957-.547.023-1.094.001-1.637-.065l-.526-.073.344.4c2.683 3.182 6.778 8.73 8.492 11.374l.07.092h8.222l-.245-.337c-.28-.354-5.674-6.67-7.958-9.373 0 0-.088-.1-.138-.168 4.172-1.016 6.23-2.91 6.23-5.81 0-5.1-6.9-6.29-12.675-6.387l-12.046-.015.022.217zm37.726-.226h-7.363l.026.22c.21 2.335.357 8.155.357 10.293 0 1.936-.022 8.5-.4 11.33l-.026.234h7.678l-.04-.234c-.372-2.832-.4-9.393-.4-11.33 0-2.142.157-7.973.365-10.293l.02-.22zm7.176.238c.21 2.327.37 8.142.37 10.278 0 1.955-.026 8.514-.4 11.344l-.034.23h12.815c6.26 0 12.96-1.594 12.96-6.054 0-2.8-2.542-4.872-7.292-6.01 3.482-.74 5.857-2.67 5.857-4.9 0-3.63-5.24-5.025-10.147-5.107l-14.14-.015zm9.9 2.243c5.36.02 7.352.9 7.352 3.235a2.18 2.18 0 0 1-.728 1.637c-1.008.975-3.055 1.476-5.6 1.38h-.13l-1.472 3.106h1.5c2.952-.084 5.5.668 6.82 1.95.567.5.896 1.232.91 1.994 0 2.462-2.668 3.715-7.947 3.715-.9 0-2.33 0-3.24-.05-.19-3.227-.195-7.63-.195-8.933 0-1.553.073-4.96.22-7.893a18.08 18.08 0 0 1 2.505-.142zm34.9-2.48h-5.167l-.05.116c-1.52 3.332-11.24 20.257-12.046 21.652l-.176.307h6.593l.047-.138q.992-2.566 2.174-5.053l5.433-.07 4.486.054.986.015c1.192 2.368 2.065 4.17 2.445 5.06l.058.13h7.618l-12.28-22.077h-.114zm-3.17 6.5c.614 1.042 2.178 3.994 3.964 7.468l-.578.02-3.394.047-4.03-.065q1.93-3.782 4.037-7.468zm17.48-.774c0 3.876 4.88 5.45 9.193 6.843 3.347 1.078 6.793 2.208 6.793 4.048a1.75 1.75 0 0 1-.544 1.364c-.782.76-2.434 1.08-5.025.982a28.6 28.6 0 0 1-8.637-1.951l-1.353-.5v4.823l.877.153.54.088a41.38 41.38 0 0 0 7.767.889c8.1 0 12.93-2.56 12.93-6.843 0-3.975-4.99-5.573-9.393-6.972-3.248-1.042-6.61-2.1-6.61-3.807 0-.486 0-1.966 4.16-1.966 2.666.106 5.298.63 7.8 1.556l1.594.507-.022-.825v-4.013l-1.568-.223c-2.27-.4-4.57-.605-6.873-.644-6.947.01-11.624 2.62-11.624 6.5z"/></svg>