<svg xmlns="http://www.w3.org/2000/svg" viewBox="150 120 1563.6 512" fill="#f40000"><path d="M750.5 566.7c-58.2-37.5-137.1-44.1-264.5-8.7-135.8 31.9-181 52.4-240.5 11.3-22.8-20.2-31-52.6-24.9-99.4 14.2-76.2 52.5-149.6 120.6-231 38-42.3 73.2-78.7 119.8-93.3 35.7-9.2 32.3 18.9 28 22.9-4.6 0-12.2.7-18.1 4.6-4.8 3.7-18 15.7-18.7 31.9-1 24.7 24.6 19.6 35.6 6 11.9-15.3 29.5-44.6 15.7-72-5.8-9.7-15.8-16.4-28.3-18.7-42.6-2.4-82.3 17.9-118.9 40.3-80.1 55.6-144.2 132.7-180.4 217.1-21 50.9-39.9 123.9-11.6 183.3 21.9 41.2 67.4 63.1 121.7 58.5 38.1-4 84.1-16.3 115.1-23.7s189.5-61.9 241.6 32.9c0 0 17.3-33.6 60.6-34.3 35.6-3.3 86.9 10.3 124.3 37.8-12.4-18.9-47.7-46.5-77.1-65.5h0zM502.1 248.4c-29.7-19.5-89.2 17.7-137 81.5-43.6 57.2-62.5 123.7-42 154.5 30.5 36.2 87.2-16.4 111.2-44.6l3.1-3.3c16.4-17.6 29-38.8 41.3-59.1l11.8-19.5c7-1.3 15.3-3.3 24.8-6-.1.4-36.1 60.9-32.5 91 1.1 9.2.3 42.6 32.9 52.8 43.6 7.3 78.3-26.5 109-56.5l8.2-7.9-1.7 7c-12.8 44.3 4.4 53.6 15.2 57.1 32.5 9.4 71.3-37.8 71.4-37.8-1 14.9-4 27.2 11.7 37 14.8 5.3 29.8-2.8 41.2-10.4 41-28.9 74-74.1 100.7-113.2h-17c-.2 0-42 60.6-69.1 73.7 0 0-5 2.5-7.8.5-3.5-3-2.1-9.3 0-13.7.1-.3 104.8-181.8 104.8-181.8H833l-5.8 9.3c-.3-.3-1.1-1.8-1.7-2.5-30.6-42.3-99.9 22.8-152.1 98.3-20.1 29-45.7 61.7-72.2 85.3 0 0-39.3 36-56.1 10.1-6.1-10.9-4.2-26.8-.8-37.2 19.5-55.6 53.2-106.1 91.6-136.6 10.8-8.4 22.6-10.9 28.4-7.3 5.6 3.3 6.5 11.4 2.9 17-8.9-.3-16.1 2.4-21.9 8.4-11.5 12-15.4 23.6-11.8 34.5 17.7 25.2 53-24.6 51.3-54.9-.6-10.9-6.4-21.2-15.1-26.2-12.9-7.7-32.6-5.7-45.3.4-17.1 6.4-44 28.9-59.8 46.3-19.8 21.9-53.9 46.2-64.5 43.5 3.5-8.9 32.3-67.7 2-89.7h0zm238.2 87c9.6-13.3 37.6-48.9 44.4-54.9 22.9-20.2 32.1-11.3 32.9-5-21.4 38.3-46.7 82.3-70.4 121.7 0-.1-7.4 11.3-7.4 11.3-10.5 16-21.1 29.8-38.3 39.3-2.5.7-6.5 1-9.2-1-3.2-2.1-4.5-5.7-4.2-9.4 1-12.3 13.6-49.9 52.2-102h0zm-268.7 23s-.4 1.3-.6 1.7c-.1 0-21.5 35-21.5 35-13 17.3-29.2 39.1-49.4 49.5-6 2-14.3 3.3-18.5-2-9-10.7-4.3-25.6-.6-37.6l1.3-4.3c10.8-29.2 27.8-54.9 44.4-78.8.2-.1.7-.3.8-.3 0 .1.1.1.1.4 10.4 20 30 29.3 44.6 33.6.1 0 .2.1.2.4 0 .5-.3 1.1-.8 2.4h0zm20.3-41.3c-.1.3-9.6 22-9.6 22-1.4 1.1-3.5.6-6 0l-4.3-.7c-13.4-4.1-23.4-13-26.5-23.6-4.3-20.6 13.3-36.8 21.1-42.6 7.4-5.2 19-7.9 25.7-2.6 4.1 4.9 5.7 11.2 5.7 18 0 9.3-2.8 19.7-6.1 29.5h0zm624.6 66.3c-4.8-10.3-16.1-16.9-28.1-16.2-39.1 3.6-77.4 35.8-97.5 82-10.5 23.7-16.3 43.3-20.1 74.5 12.2-14 37-37 65.2-49.6 0 0 3.8-29.9 23.4-56.5 7.4-11 22.2-28.8 38.8-24 14.5 4.9 9.4 45.1-9.9 84-14.3 28.6-36.1 57.2-58.2 77-19.5 16.6-48.5 36.6-73.8 21.2-15.9-9.4-24.1-29.2-22.3-54.6 7.6-72.2 40.5-133.7 87.6-203.8 48.5-65.1 102-131.9 174.1-167.5 14.7-7.4 28.3-9.2 40.1-4.6 0 0-67.6 37.2-99.9 106-8.2 17.5-19.6 41-8.1 61.9 6 10.9 16.7 11.7 25.2 11.2 39.5-9.2 65.1-46.1 85.9-79.8 12.1-25.6 22.8-51.1 22.8-79.4 0-3.4-.2-8-.5-11.4 18.9-10 57.6 7.7 57.6 7.7 30.3 10 94.7 59.4 116.4 68.8 10.6-12.3 28-30.9 37.8-40.2l-14.2-8.7c-22.7-13.9-46.8-27-70.4-40.1-53.7-29.3-97.4-19-119.7-11l-16.7 5.9c-16.5-18-43.6-16.3-63.5-11.4-71.8 20.6-138.4 70.8-209.8 157.9-52.5 68.2-85.1 127.2-102.5 185.4-13.4 39.2-17.5 96.8 15.2 131 27.8 29 64.6 22.7 90.6 12.3 56.3-27.8 107-87.5 132.2-156.3 6-20.7 12.7-49.6 2.3-71.7h0zM1246 167.9c-7.5 85.5-74 135.8-90.4 139.8-10 2-27-2.4-11.8-38.3 22.4-48.4 60.5-89.4 101.5-110.4 1 3.4 1 5.7.7 8.9h0zm394.4 10.8c-35.8 20.3-72.8 33.5-117.7 28.9-12.4 14-24.5 28.5-35.7 43.3 63 16 129.8-19.6 167-53.5 39.4-34.2 59.6-77.2 59.6-77.2s-29.5 33.8-73.2 58.5h0zM964.5 250h-46.9l-26.5 43H938zm558 320.7c-5 3.4-12.1.8-9.5-7.1 6.6-20 32.8-60.8 32.8-60.8l73.1-129.6h-50.1c-2.4 3.9-7.5 12.9-7.5 12.9-2.3-3.9-9.2-12.4-12.1-14.3-12.2-7.7-30.2-4.1-42.6 2.9-53.8 31.5-93.1 93.7-124.1 142.2 0 0-32.6 53.9-50.7 57.9-14.1 1.1-12.7-17.9-12.1-22.3 5.5-32 18.1-62.5 30.9-90.1 26-18 55.7-41.6 82.6-67.5 58.5-55.9 107.8-119.3 115.1-133.5 0 0-7.8 1.6-17 1.9-45 62.8-137.1 154.1-165.1 167.6 12.4-29.8 92.3-171.8 160.3-239.7l10.7-10.3c16.6-16.2 33.7-32.8 47.1-35.5 1.4-.1 3.2 0 4.8 3.3.6 12.6-4.1 21.9-9.5 32.5l-7.5 15.5s10.7-2 17.7-4.3c8.1-15.3 17.1-32.5 13.8-52.9-1.1-6.6-5.9-11.6-12.1-12.7-20.3-3.9-42.4 11.2-60.2 23.3l-.7.4c-91.5 71.7-168.7 174.9-236.2 316-4.9 3.7-23.8 8.2-27 6 6.7-13.7 15.1-32.2 19.3-52.2.7-5.7 1.4-11.6 1.4-17.3 0-12.3-3-23.9-14-31.9-12.9-6.4-28.9-3.4-39.7 1.4-48.3 20-84.4 69.5-110.4 110.3-14 25.9-28 53.6-31.8 85.4-2.7 24.9 2.8 40.9 17 48.9 14.6 7.4 32.9-.3 40.1-4 48.9-25.7 83.1-77.4 110-124.6 1.1-.1 15.8-.6 26.9-3.4.1 0 .2 0 .5.2-.6 2.1-6.4 19.3-6.4 19.3-17.1 50.1-25 84.1-8.8 104.3 23 28.5 61.2-1 92.2-39.9-6.7 46.6 17.5 53.9 35.9 50.4 21.2-5.7 44.7-28.3 55.7-39.9-3.5 13.6-2.6 37.9 16.7 40.3 13.2 2.4 23.1-4.7 34.5-10.9 41-22.3 90-96.7 102.8-118.2h-16.7c-18 27.1-41.1 62.9-70.1 80h0zm-367.8-5c-2.6-3.9-3.5-8.1-3.5-12.7-.5-28 29.7-78.3 51-105.6 8.9 19.5 29.1 32.1 41.3 37.4-15.2 33.8-67.2 106.1-88.8 80.9h0zm97.3-96c-1.4 1-26.9-7.6-31.9-31.2-4.2-20.3 9.8-36.2 23.4-44.2 5.8-4.6 14.6-6.1 21-3.9 6 4 7.6 11.2 7.6 18.9 0 4.7-.6 9.6-1.2 14l-.1 1c-4.3 15.9-10.8 31.5-18.8 45.4h0zm204.5 87l-4.8 4.3c-6.9 6.1-14 12.7-22.5 9.4-2.4-.9-4-4-4.4-6.4-.4-17.6 7.5-33.9 15.2-49.8l2-4.2c22.1-36.9 47.8-80.4 85.5-110.6 6.4-4.6 13.3-8.4 20.5-5.4 1.7 1.6 3.6 4.3 3.6 7 0 .9-.8 3.1-1.2 3.9-10.5 17-20.6 34.9-30.3 52.1-19.1 33.9-38.9 68.9-63.6 99.7h0z"/></svg>