<svg xmlns="http://www.w3.org/2000/svg" width="200" height="138.272" fill-rule="evenodd"><path d="M199.998 17.788l-35.58 19.407a7.1 7.1 0 0 1-7.817-.674c-3.1-3.5-4.58-8.5-5.8-12.533a48.21 48.21 0 0 0 7.952-2.846l41.24-21.144v17.8z" fill="#ed1b2f"/><path d="M118.804 33.153l-13.954 29.38c-1.572 3.29-3.234 8.49-7.413 10.917-8.5 5.93-29.38 9.03-29.38 9.03l-1.448.193 39.308-73.26h28.3l45.47 100.756h-27.54c-4.885 0-4.55-4.053-9.7-17.043-1.077-2.964-23.646-59.972-23.646-59.972z" fill="#006a4e"/><path d="M85.04 13.747a90.93 90.93 0 0 1 3.773 14.42c-26.55.54-48.786 14.15-65.633 33.962-4.617 6.08-10.107 13.207-6.2 21.294 5.628 11.152 28.033 8.962 42.453 7.008A180.45 180.45 0 0 0 97.843 79.38l10.377-4.043 6.47-3.1 12.94-6.6 3.5-1.752 22.6-12.095L200 26.347v22.44l-37.062 22.237L138.95 84.23s-34.5 16.576-52.83 21.967c-2.78.844-3.875 1.18-7.01 1.887-17.655 3.5-38.41 6.2-54.85-1.617-8.76-4.043-16.307-12.483-20.183-21.024A44.01 44.01 0 0 1 .96 74.527c0-1.348-.252-3.285-.252-4.45 0-19.474 14.79-34.23 28.806-45.147 3.177-2.394 6.496-4.594 9.94-6.587 2.2-1.18 5.9-2.68 9.266-4.3C55.29 11.18 63.29 8.4 71.158 7.8c5.693-.252 11.725.27 13.882 5.93z" fill="#009597"/><path d="M185.577 122.237v16.035H0v-16.035z" fill="#006a4e"/></svg>