<svg xmlns="http://www.w3.org/2000/svg" width="255.12" height="21.625"><path d="M212.582.15h19.653v3.975h-19.653zm30.66 8.2h3.975v12.873h-3.975zm-7.775-8.2h19.653v3.975h-19.653z" fill="#f51e37"/><path d="M77.015 12.57h10.93V8.756h-10.93v-4.43H89.55V.15h-16.5v21.07h16.5v-4.1H77.015zM16.643 8.575H3.98V.15H0v21.046h3.98v-8.423h12.668v8.424h3.975V.15h-3.98zM124.317.15h-3.975v21.07h16.44v-4.1h-12.46zm25.46-.15c-5.926 0-10.394 4.648-10.394 10.812a11.05 11.05 0 0 0 2.95 7.71c1.948 2.015 4.642 3.136 7.444 3.1 5.926 0 10.394-4.648 10.394-10.812S155.708 0 149.777 0zm6.237 10.812h0c0 4.042-2.515 6.566-6.237 6.566s-6.237-2.525-6.237-6.566h0c0-4.042 2.515-6.566 6.237-6.566s6.238 2.525 6.238 6.566zM174.2 0c-5.926 0-10.394 4.648-10.394 10.812a11.05 11.05 0 0 0 2.95 7.71 10.17 10.17 0 0 0 7.444 3.1c5.926 0 10.394-4.648 10.394-10.812S180.14 0 174.2 0zm6.237 10.812h0c0 4.042-2.515 6.566-6.237 6.566s-6.237-2.525-6.237-6.566h0c0-4.042 2.515-6.566 6.237-6.566s6.237 2.525 6.237 6.566zM200.554.15h-11.578v21.07h3.975v-6.267h7.607c5-.03 7.27-3.878 7.26-7.44S205.53.15 200.554.15zm3.167 7.4c.015.8-.254 1.598-.76 2.23a2.95 2.95 0 0 1-2.284 1h-7.728V4.327h7.728a2.95 2.95 0 0 1 2.284 1c.506.633.773 1.423.757 2.233zM61.44.15H49.86v21.07h3.975v-6.267h7.607c5-.03 7.27-3.878 7.26-7.44S66.416.15 61.44.15zm3.166 7.4c.015.8-.254 1.598-.76 2.23a2.94 2.94 0 0 1-2.284 1h-7.728V4.327h7.732a2.94 2.94 0 0 1 2.284 1c.506.632.775 1.42.76 2.23zM40.06.15h4.87L36 14.582v6.613h-4.053v-6.613L23.02.15h4.87l6.084 10.155z"/><path fill="#f51e37" d="M220.357 8.34h3.975v12.873h-3.975z"/><path d="M110.738 17.12a1.38 1.38 0 0 1-1.178-.687l-1.058-1.773c3.118-.945 5.197-3.886 5.048-7.14-.01-3.546-2.287-7.36-7.26-7.36H94.712v21.06h3.975v-6.38h5.193l2.06 3.473c.852 1.408 1.52 2.895 4.3 2.895h5.752V17.12zm-4.33-6.323H98.68v-6.47h7.728c.872-.022 1.71.344 2.284 1a3.65 3.65 0 0 1 0 4.462 2.94 2.94 0 0 1-2.284 1.005z"/><path d="M212.582.15h19.653v3.975h-19.653zm30.66 8.2h3.975v12.873h-3.975zm-7.775-8.2h19.653v3.975h-19.653z" fill="#f51e37"/></svg>