<svg xmlns="http://www.w3.org/2000/svg" width="350" height="61.901" fill="#444e55"><path d="M106.078 56.53h5.556v2.5a7.3 7.3 0 0 1-4.306 1.25c-3.52 0-5.6-1.9-5.6-4.584s1.9-4.584 5.556-4.584c1.755-.1 3.473.527 4.77 1.713l1.018-1.343a8.4 8.4 0 0 0-5.834-1.991c-4.723 0-7.594 2.732-7.594 6.2 0 3.426 2.917 6.2 7.64 6.2a9 9 0 0 0 6.158-2.084v-4.723h-7.363zm26.392-2.87c0-2-1.482-3.8-4.538-3.8h-9.12v11.714h1.9V57.27h4.723l5.047 4.306h2.825l-5.417-4.4c3.24-.092 4.584-1.62 4.584-3.52zM120.7 55.8v-4.35h7.177c1.62 0 2.547.833 2.547 2.223 0 1.3-.973 2.13-2.64 2.13zm24.03-6.3c-4.63 0-7.547 2.732-7.547 6.2s2.917 6.2 7.547 6.2c4.677 0 7.64-2.732 7.64-6.2s-2.963-6.2-7.64-6.2zm0 10.788c-3.52 0-5.5-2.084-5.5-4.584 0-2.547 2-4.584 5.5-4.584 3.566 0 5.556 2.037 5.556 4.584.001 2.5-2 4.585-5.555 4.585zm24.355-3.843c0 2.686-2.176 3.8-5.093 3.8-2.87 0-5.047-1.1-5.047-3.8V49.86H157v6.806c0 3.566 3.1 5.232 6.992 5.232s6.992-1.667 6.992-5.232V49.86h-1.9zm16.207-6.575h-9.032v11.714h1.9v-4.028h7.177c3.056 0 4.538-1.806 4.538-3.8 0-2.037-1.482-3.9-4.584-3.9zm-.093 6.112h-7.04v-4.538h7.084a2.28 2.28 0 0 1 2.547 2.315c0 1.25-.88 2.223-2.593 2.223zm26.76-6.112h-9.03v11.714h1.9v-4.028h7.177c3.056 0 4.538-1.806 4.538-3.8 0-2.037-1.482-3.9-4.584-3.9zm-.093 6.112h-7.038v-4.538h7.084a2.28 2.28 0 0 1 2.547 2.315c0 1.25-.88 2.223-2.593 2.223zm11.207-6.112h-1.944v11.714h12.224v-1.62h-10.28zm26.068 8.427a5.77 5.77 0 0 1-4.723 1.945c-3.658 0-5.6-2-5.6-4.537 0-2.593 1.945-4.538 5.6-4.538 1.688-.107 3.34.517 4.538 1.713l1.157-1.3a8 8 0 0 0-5.741-2.084c-4.677 0-7.594 2.685-7.594 6.2s2.825 6.2 7.594 6.2c2.206.108 4.357-.715 5.927-2.27zm4.216-2.17H350v-1.4h-96.633zM0 56.118h96.633v-1.4H0zM161.46.787a53.45 53.45 0 0 1-5.7.278c.278 2.5.37 9.307.37 12.686v2.917h-19.5V8.612c0-2.084.046-6.3.14-7.825a52.93 52.93 0 0 1-5.7.278c.278 2.5.37 9.307.37 12.686v11.714c0 3.426-.093 10.187-.37 12.687h5.7c-.092-1.482-.14-5.6-.14-7.594V21.02h19.493v4.445c0 3.426-.093 10.187-.37 12.687h5.7c-.093-1.482-.14-5.6-.14-7.594V8.612c0-2.084.046-6.3.14-7.825zm-56.03 19.586c0-2.223 2.037-2.963 4.12-2.963a10.23 10.23 0 0 1 5.973 1.945l1.667-4.214c-2.326-1.327-4.962-2.014-7.64-2-5.14 0-8.8 3.334-8.8 7.454 0 7.87 12.455 6.436 12.455 11.25 0 1.945-2 3-4.677 3a14.05 14.05 0 0 1-6.852-2.037l-1.617 4.12c1.945 1.343 5.7 2.176 8.334 2.176 5.186 0 9.585-3.056 9.585-8.1 0-7.594-12.547-6.76-12.547-10.65zM18.06 13.75v14.03c0 4.167-2.315 6.667-6.482 6.667-3.334 0-5.65-1.3-6.482-4.63L.004 31.485c1.158 4.815 5.28 7.64 10.88 7.64 3.982 0 6.946-1.158 9.122-3.334 2.176-2.13 3.24-4.677 3.24-9.353V8.612c0-2.084.046-6.3.14-7.825a52.84 52.84 0 0 1-5.695.278c.278 2.5.37 9.307.37 12.686zM45.6 33l.324-10.464c.185-5.6-2.778-9.4-9.075-9.4-3.03.003-6.004.82-8.612 2.36l1.1 4.214a12.2 12.2 0 0 1 6.714-2.315c3.7 0 5.232 1.805 5.14 5.464l-.046.787c-.695-.05-1.4-.14-2.084-.14-8.427 0-12.826 3.287-12.826 8.2 0 4.353 3 7.177 7.64 7.177 3.12.07 6.035-1.54 7.64-4.214a4.1 4.1 0 0 0 4.074 4.121 7.92 7.92 0 0 0 3.195-.741l.463-3.38a6.37 6.37 0 0 1-2.084.417c-1.2 0-1.62-.6-1.574-2.084zm-4.63-3.9A5.92 5.92 0 0 1 34.96 35c-2.917 0-4.03-1.528-4.03-3.52 0-2.686 2.084-4.816 8-4.816.74 0 1.4.05 2.13.092zm55.98-9.862a51.23 51.23 0 0 1 .278-5.649c-1.62.14-3.6.278-5.5.278.28 2.986.404 5.984.37 8.983v6.112c0 3.148-3.982 5.834-6.483 5.834-3.7 0-5-2.13-5-6.112V19.26c0-1.852.093-4.26.232-5.65-1.575.14-3.473.278-5.372.278.185 2.27.324 5.88.324 8.983v6.806c0 6.436 3 9.446 8.52 9.446 3.253-.222 6.2-1.997 7.918-4.77l.6 3.8h4.5a83.7 83.7 0 0 1-.37-8.751zM71.9 21.9c0-5.5-2.5-8.75-7.78-8.75-3.542.196-6.755 2.14-8.57 5.2l-.37-4.722c-1.574.14-2.917.278-4.77.278.23 2.27.324 5.88.324 8.983v6.3c0 3.1-.093 6.714-.324 8.983h5.417c-.18-1.8-.26-3.608-.232-5.417v-8.7c0-3.2 3.75-6.62 7.223-6.62 3.24 0 4.214 2.36 4.214 5.464v6.3a86.08 86.08 0 0 1-.37 8.983h5.463c-.092-1.343-.23-3.566-.23-5.417zm200.2-3.562l-.5-4.815a26.81 26.81 0 0 1-4.816.694c.386 2.512.557 5.053.5 7.594v7.362c0 3.1-.046 6.714-.278 8.983h5.37c-.18-1.8-.26-3.608-.232-5.417v-9.075c0-3.7 4.4-5.556 7.872-4.9l.648-5.6c-3.982.463-6.528 1.9-8.566 5.185zm41.394-5.185c-7.5 0-12.4 6.02-12.4 13.613 0 6.62 4.538 12.363 11.76 12.363 7.547 0 12.455-6.02 12.455-13.613 0-6.625-4.538-12.367-11.807-12.367zm-.417 21.716c-4.306 0-7.177-3-7.177-8.9 0-4.77 2.917-8.566 7.4-8.566 3.982 0 7.176 3.1 7.176 8.75 0 4.815-2.732 8.7-7.408 8.7zM286.75 20.373c0-2.223 2-2.963 4.12-2.963a10.23 10.23 0 0 1 5.973 1.945l1.62-4.214a14.97 14.97 0 0 0-7.593-1.991c-5.186 0-8.8 3.334-8.8 7.454 0 7.87 12.455 6.436 12.455 11.25 0 1.945-2.037 3-4.723 3a14.19 14.19 0 0 1-6.852-2.037l-1.575 4.12c1.945 1.343 5.7 2.176 8.334 2.176 5.186 0 9.538-3.056 9.538-8.1 0-7.594-12.5-6.76-12.5-10.65zm57.786 17.78H350c-.093-1.343-.232-3.565-.232-5.417V21.9c0-5.5-2.5-8.75-7.825-8.75a10.63 10.63 0 0 0-8.52 5.185l-.37-4.722c-1.62.14-2.917.278-4.77.278.23 2.27.324 5.88.324 8.983v6.3c0 3.1-.093 6.714-.324 8.983h5.37c-.14-1.343-.185-3.565-.185-5.417v-8.7c0-3.2 3.75-6.62 7.223-6.62 3.24 0 4.214 2.36 4.214 5.464v6.3a86.06 86.06 0 0 1-.37 8.983zM238.088 5.738c0-1.806.046-4.4.185-5.742-1.574.325-3.52.5-5.417.7.23 2.268.278 5.65.278 8.7l.093 5.464a10.07 10.07 0 0 0-5.65-1.713c-7.27 0-12.64 6.112-12.64 13.9 0 6.76 4.352 12.085 11.205 12.085a9.9 9.9 0 0 0 7.455-3.612l.37 2.64h4.445c-.23-2.408-.324-5.695-.324-8.75zm-4.862 25.466a6.99 6.99 0 0 1-6.2 3.7c-3.843 0-7.223-2.825-7.223-8.473 0-4.954 2.917-9.075 7.87-9.075a7.55 7.55 0 0 1 5.556 2.222zm20.558-18.058c-7.5 0-12.317 6.02-12.317 13.613 0 6.62 3.843 12.363 11.992 12.363a15.82 15.82 0 0 0 9.076-2.917h0l-1.667-3.288-.093-.23a12.3 12.3 0 0 1-6.853 2.176c-4.677 0-7.223-2.5-7.594-7.408l17.456-.5a14.61 14.61 0 0 0 .139-1.806c0-6.62-2.963-11.992-10.14-11.992zm-7.362 10.65c.695-3.75 3.2-6.575 7.084-6.575 3.658 0 5.325 2.13 5.88 6.2zm-34.726-1.9c0-5.5-2.547-8.75-7.826-8.75a10.73 10.73 0 0 0-8.566 5.185l-.37-4.722c-1.574.14-2.87.278-4.723.278.185 2.27.278 5.88.278 8.983v6.3c0 3.1-.092 6.714-.278 8.983h5.37c-.18-1.8-.258-3.608-.23-5.417v-8.7c0-3.2 3.75-6.62 7.27-6.62 3.2 0 4.214 2.36 4.214 5.464v6.3a86.06 86.06 0 0 1-.37 8.983h5.417c-.093-1.343-.185-3.566-.185-5.417zm-24.54 3.243c0-6.62-2.963-11.992-10.14-11.992-7.5 0-12.317 6.02-12.317 13.613 0 6.62 3.9 12.363 11.993 12.363a15.82 15.82 0 0 0 9.075-2.917l-1.76-3.473a12.5 12.5 0 0 1-6.853 2.13c-4.676 0-7.223-2.5-7.593-7.408l17.456-.5a8.98 8.98 0 0 0 .139-1.806zm-17.5-1.343c.695-3.75 3.2-6.575 7.084-6.575 3.658 0 5.325 2.13 5.88 6.2z"/></svg>