<svg xmlns="http://www.w3.org/2000/svg" width="890.86" height="432.404"><g transform="matrix(5.993307 0 0 -5.993307 -3315.1613 648.4819)"><path d="M585.618 47.203c-.84 0-5.368-.001-5.7-.002l2.8 7.663 2.9-7.66m1.706 11.674c-.354.936-1.025 1.336-2.25 1.358-.112.003-5.792-.005-5.792-.005l-8.404-22.894 4.1.002a1.98 1.98 0 0 1 .975.162c.798.364 1.2 1.3 1.303 1.602-.002-.004 1.142 3.188 1.22 3.396l8.457.005 1.72-5.155h5.532l-3.508 11.14-3.342 10.4m40-16.672c-3.338 0-5.953 2.9-5.953 6.577 0 3.656 2.56 6.413 5.952 6.413 3.363 0 5.805-2.697 5.805-6.413 0-3.75-2.495-6.577-5.804-6.577m-.165 18.207h-.002c-6.548-.01-11.3-4.928-11.3-11.7 0-6.625 4.858-11.623 11.302-11.623s11.496 5.105 11.496 11.623c0 6.556-5.05 11.7-11.496 11.7m26.313-9.637l-.214.06c.007-.001-2.13.65-2.135.652l-.32.117c-1.744.63-2.984 1.16-2.984 2.175v.075c.17 1.685 3.3 1.705 3.333 1.705 1.723 0 3.05-.264 4.73-.94l.037-.015.07-.02c.388-.08.724-.1 1.002-.028l.465.175c.666.37 1.332 2.315 1.588 3.134l.082.264-.206.2c-.08.074-.574.48-2.35 1.142-1.8.677-4.376.785-4.376.785l-1.265.005c-6.604 0-9.126-4.077-9.206-6.818-.057-2.73 1.496-4.135 3.845-5.406.983-.55 2.77-1.046 4.076-1.4-.006.002 1.346-.396 1.346-.396 2.462-.772 3.4-1.63 3.226-2.963-.078-.442-.9-1.17-2.8-1.17a12 12 0 0 0-4.087.694c-.652.257-1.323.6-2.035 1l-.035.02-.07.03c-.394.146-.746.2-1.048.187l-.52-.115c-.754-.282-1.814-2.2-2.234-3.026l-.165-.32.286-.226c.048-.04 1.224-.97 2.22-1.554 1.172-.65 2.495-1.12 4.05-1.436.627-.115 1.624-.26 3.186-.26 5.116 0 8.838 2.595 9.264 6.457.188 3.506-1.962 5.792-6.763 7.223m10.95 9.4c-.216.002-1.328-.02-1.972-.615-.295-.273-.45-.634-.45-1.045l-.004-3.62 6.984.002.003-17.598 5.72.005v17.595l4.496.002c.214-.001 1.327.022 1.97.617a1.38 1.38 0 0 1 .451 1.044v3.6l-17.196.002M566.273 42.5h-6.423l-.017 15.603c0 .65-.197 1.16-.585 1.523-.625.582-1.548.576-1.896.573l-3.374.005.01-22.876h14.32l.01 3.635c0 .463-.2 1.537-2.043 1.537m40.937 12.83c1.4.1 2.555-.005 3.66-.303.6-.198 1.124-.236 1.577-.1a164.61 164.61 0 0 0 .459.203c.637.397 1.096 2.405 1.312 3.565l.05.274-.232.166c-.06.043-.24.172-2.313.73a17.03 17.03 0 0 1-4.402.567l-.088-.001c-4.743 0-11.876-3.13-12.082-11.75v-.046c.206-8.62 7.34-11.747 12.085-11.747-.001 0 .087-.001.087-.001a16.9 16.9 0 0 1 4.4.566c2.073.558 2.254.687 2.314.73l.23.166-.05.274c-.216 1.162-.675 3.168-1.312 3.567h-.002l-.456.202c-.454.125-1 .087-1.6-.113-1.093-.296-2.26-.392-3.663-.3-3.588.35-5.748 2.793-5.908 6.7.16 3.87 2.32 6.3 5.924 6.663m91.364-18.005c.886.018 2.386.54 2.386 2.3l-.016 2.872-10.082-.005.016 3.837h8.325l-.015 5.292-8.297-.01-.001 3.3 7.64.007c.214-.001 1.352-.003 1.97.617.433.432.452 1.22.452 1.63v3.02l-15.864.002.008-22.868 13.48.018"/><path d="M649.81 80.107s.017 1.302-1.342 2.16c-2.192 1.38-1.06 2.266-1.132 2.25 0 0-2.232 1.85-6.058.465s-4.046-1.24-4.81-.692-2.368.255-2.112-.656.873-4.92 5.793-2.406 1.13-4.302 10.64-5.358 15.27-.584 8.964 1.64-8.048 2.453-8.048 2.453l-1.894.146" fill="#ca0039"/><path d="M646.503 88.077s.02.323-.63.74c-1.104.714-1.686-.026-1.686-.026s-.523-.457-.144-1.16c0 0 2.1.26 2.46.445m2.04 1.06s-.254-.444-.027-.6c.113-.078 1.264.246 1.355.295s-.5 1.637-1.328.306" fill="#fff"/><path d="M649.22 83.64c.456.166.85-.72 1.328-.54.504.19.134 1.08.68 1.285.505.19.838-.712 1.323-.532.514.2.187 1.106.674 1.28.508.184.803-.72 1.33-.53s.183 1.097.667 1.28c.5.184.85-.71 1.332-.535.46.17.2 1.116.674 1.288.5.18.82-.713 1.353-.52.432.157.194 1.107.643 1.276.456.172.873-.71 1.343-.534.443.166.18 1.108.653 1.283.495.185.88-.7 1.346-.532.46.167.114.934.718 1.23 0 0 .84.282.79.9-.01.102-.185 1.43-1.566 1.707-1.325.267-11.816-2.652-11.946-2.48-.97 1.917-2.206 1.383-2.395 1.343-.193-.046-1.36-.556-2.66-.053-2.546 1.16-4.58-1.788-5.97-1.4-1.29.36-2.27.157-2.807-.03-.496-.17-1.292-.817-2.987-.234-13.094 4.502-23.332.567-23.332.567-5.77-1.937-6.51-.001-6.51-.001S602 91.76 615.37 94.85c19.22 4.447 19.795 11.8 19.573 12.26-.32.675-.438-.118-1.072-.85-.528-.608-1.145-.306-1.145-.306-.605.292-1-.406-1-.406s-.78-1.21-1.47-.523c-.66.662-1.54-.837-1.867-.895-.39-.07-.58.124-1.112.363-.79.356-1.635-1.097-2.07-1.195-.667-.153-1.133.788-1.7.394-1.71-1.187-1.98-1.36-2.438-.892-.34.348-.4.726-1.53-.372-.974-.938-1.436-1.108-1.83-.516-.402.6-.296 1.417-1.963-.193-.797-.768-1.205-.783-1.662-.436-.342.258-.338 1.496-1.54.375-1.082-1-1.872-1.454-2.176-.555-.34 1.005-1.616-.183-1.915-.465s-.96-1.024-1.422-.255c-.463.763-1.564-.385-2.217-1.114-.51-.564-.92-.13-1.448.23-.6.42-2.422-2.13-2.588-2.283s-.292-.005-.708.35c-.64.546-2.365-2.478-2.64-2.677 0 0-.122-.262-.59.188-.665.638-4.22-4.06-5.56-9.385-1.713-6.823 1.017-12.05 1.017-12.05s.82-.025 1.17.536l.532 1.205c.43 1 1.133.684 1.133.684l-1.672-5c-.26-.662-.102-1.595.48-2.48.55-.887.933-1.486 1.376-1.902 1.36-1.29 1.222.234 1.258.425.157.818 1.056.194 1.758-.202 1.28-.72 1.138.874 1.417 1.397.193.368.826.387 1.508-.19.53-.446 1.06 1.066 1.06 1.066.66 3.224-.895 3.603-1.74 3.644l-1.705.08s.115.49.287.953l.08.32c1.858 4.665-1.25 5.568-2.18 5.49-1.023-.09-.95.57-.95.57s5.616 1.11 4.57-4.883l-.333-1.588 1.543-.18c1.332-.166 1.567-1.75 1.567-1.75s4.883-1.296 7.653-.777c0 0 1.244.296 1.584 1.07 0 0 1.795 4.256 7.035 4.435 0 0 .187-.554-.653-.835-1.008-.34-4.345-.61-5.04-4.476l-.003-.014c-.077-.632.094-1.985 1.463-2.61 1.163-.53 1.575-2.662 1.814-3.237.682-1.636 1.697-.07 1.697-.07s.645 1.318 1.194.59c.936-1.24 1.37-.617 1.58.17.23.85.57 1.22 1.545.188.417-.447 1.236-.102 1.317.668.17 1.684 1.306.346 1.47.278.193-.077 1.38.197.72 2.097 0 0-.9 1.813-4.945 2.598-.95.185-.8.877-.8.877l.896-.128c.263-.047 2.616-.306 2.87-.348 9.865-.98 17.35 2.387 17.576 2.627h.001c7.667-1.475 18.088-.97 20.045-.263s2.1 1.852 1.88 2.16c-.288.383-.758.536-1.082.685s-.272.462-.54.548-.745-.467-1.114-.348-.338.814-.65.915-.865-.423-1.152-.33-.344.818-.62.907-.863-.435-1.15-.342-.304.804-.62.906-.872-.427-1.153-.335-.31.804-.618.904-.87-.422-1.156-.33-.37.82-.637.907-.8-.346-1.23-.32c-2.995.283-4.14 2.175-4.34 1.62s.62-1.888 1.66-2.34c.82-.358 9.74-2.84 9.972-2.954s.788-.368.594-.693c-.313-.415-1.185-.004-1.402.18-.228.19-.178.26-.388.31-.476.12-.74-.76-1.244-.643-.462.108-.432 1.037-.896 1.145-.515.12-.753-.76-1.243-.643-.405.094-.46 1.045-.895 1.147-.506.118-.733-.764-1.254-.642-.45.105-.425 1.034-.893 1.143s-.8-.747-1.243-.643-.506 1.05-.906 1.143-.72-.39-1.267-.46c0 0-1.557-.426-4.02 2.163-2.473 2.59-3.487 3.1-4.892 2.04-2.3-1.72-3.72-.58-4.142-.073-.493.6.027 1.127.027 1.127s.732-1.13 1.647-1.157c1.477-.044 2.595 1.992 5.13 2.024 3.208.117 4.047-1.03 4.923-1.118.816-.082 1.085.05 1.648.377h-.001" fill="#005d34"/><g fill="#fff"><path d="M646.528 88.1s.02.323-.63.742c-1.105.715-1.687-.027-1.687-.027s-.522-.456-.143-1.16c0 0 2.1.26 2.46.445m2.042 1.048s-.254-.444-.026-.6c.1-.077 1.263.246 1.354.295s-.5 1.636-1.328.306m-22.8-5.954s1.556.844 1.887.596.02-1.7-.217-1.493l-1.67.897m.592 2.695s1.553.844 1.886.595.016-1.7-.216-1.488l-1.67.893"/><path d="M629.613 85.306s1.554.846 1.885.598.017-1.704-.216-1.492l-1.67.894m-2.608 3.346s1.556.846 1.888.598.015-1.697-.216-1.5l-1.672.893m-3.957-2.253s1.553.84 1.883.595.02-1.7-.216-1.492l-1.667.897m-.54-2.787s1.556.844 1.886.597.02-1.7-.213-1.493l-1.673.896m-3.473-.003s1.555.846 1.884.6.018-1.702-.217-1.5l-1.667.892m.545 2.948s1.557.85 1.9.6.015-1.7-.217-1.5l-1.672.9m.626 2.94s1.556.848 1.888.596.016-1.7-.216-1.5l-1.672.894m-4.04-3.08s1.556.848 1.886.598.018-1.7-.217-1.5l-1.67.9m.55 2.935s1.553.847 1.882.6c.335-.25.022-1.7-.215-1.5l-1.667.892m-3.563-.48s1.555.846 1.886.6.017-1.706-.216-1.495l-1.67.894m-.58-2.884s1.554.846 1.886.602c.333-.25.017-1.705-.216-1.493l-1.67.9m-.454-2.942s1.556.845 1.885.6.02-1.705-.215-1.5l-1.67.892m3.592.627s1.552.846 1.885.598.02-1.7-.214-1.492l-1.67.894m-7.247-1.806s1.553.845 1.885.597.015-1.702-.215-1.5l-1.67.894m.564 2.99s1.555.844 1.886.6.017-1.7-.217-1.494l-1.67.895m.583 3.065s1.55.843 1.884.596.017-1.702-.218-1.493l-1.666.897m-3.487-.816s1.55.84 1.883.596.017-1.702-.214-1.492l-1.67.896m-.604-2.97s1.556.846 1.885.597.016-1.7-.217-1.5l-1.668.894m-.723-2.79s1.555.84 1.886.598c.333-.248.017-1.705-.217-1.493l-1.67.895M601.9 83.8s1.553.845 1.883.596.02-1.702-.218-1.5l-1.665.895m-.8-2.804s1.55.847 1.882.6.02-1.7-.216-1.5l-1.666.9m-2.975 1.313s1.556.847 1.887.6.015-1.702-.217-1.495l-1.67.896m4.325 4.142s1.552.844 1.886.6c.33-.25.015-1.705-.218-1.493l-1.668.893m-3.578-1.093s1.555.844 1.888.6.016-1.7-.217-1.494l-1.67.895m-3.14-1.095s1.557.844 1.884.596.018-1.698-.216-1.5l-1.668.895m5.093 4.387s1.554.847 1.884.598.018-1.7-.218-1.5l-1.666.893m-3.18-.81s1.554.846 1.88.6.02-1.7-.214-1.492l-1.667.893m-3.226-1.193s1.557.844 1.887.596.018-1.7-.214-1.492l-1.673.896m6.715 4.878s1.557.846 1.885.6.017-1.705-.213-1.494l-1.672.895m-3.103-.94s1.554.848 1.884.6.018-1.7-.214-1.5l-1.67.892m-3.297-1.066s1.554.842 1.885.6.016-1.705-.217-1.494l-1.668.895m7.78 4.328s1.553.844 1.885.596.017-1.704-.216-1.492l-1.67.896m-3.388-.385s1.556.846 1.884.598.02-1.7-.213-1.492l-1.67.894m4.334 3.23s1.553.845 1.883.597.018-1.703-.212-1.5l-1.67.892m2.71.925s1.554.842 1.887.6c.33-.252.016-1.705-.215-1.492l-1.672.892m-5.595-1.937s1.555.844 1.885.598.016-1.698-.214-1.495l-1.67.897m-4.34-3.223s1.552.846 1.883.596.017-1.702-.217-1.5l-1.666.895m27.44-3.218s1.556.846 1.885.6.016-1.7-.217-1.5l-1.668.892"/></g></g></svg>