<svg xmlns="http://www.w3.org/2000/svg" width="350" height="257.724"><path d="M101.13 109.412h5.365l13.385 16.23 13.326-16.23h5.363v27.35h-6.2v-18.815l-12.227 15.518h-1.293l-12.35-15.067v18.363h-5.37zm59.492 22.244h19.006V109.4h6.73v20.9c0 5.1-1.747 6.462-7.18 6.462h-18.106c-5.434 0-7.117-1.353-7.117-6.462v-20.9h6.668zm41.13 5.1h6.595v-10.342h6.27l11.45 10.342h9.567l-13-10.342h3.755c4.4 0 6.4-1.487 6.4-5.237v-6.47c0-3.814-2.007-5.3-6.4-5.3h-24.64zm21.8-22.628c2 0 3.043.385 3.043 2.2v3.17c0 1.8-1.04 2.2-3.043 2.2h-15.2v-7.566zm23.473-4.717h29.353v4.852h-22.633v5.947h13.2v4.722h-13.2v6.725H276.7v5.105h-29.684zm53.287 13.32L286.528 109.4h8.928l9.186 8.855 8.66-8.855h7.7l-12.48 12.544 15.388 14.8h-9.113l-10.485-10.208-9.638 10.2h-7.9z" fill="#231f20"/><path d="M163.48 69.91c.134-1.252-3.43-9.574-4.04-10.23s-2.8-.77-3.618-1.784c-.336-3.98-.5-7.6-.545-11.127C155.1 30.682 154 9.65 153.136 1.78c-.065-.53-.468-1.72-.944-1.777s-1.07 1.068-1.832 2.2c-1.6 2.347-40.66 54.025-42.7 56.286l7.288-24.2c1.547-4.142 6.92-20.758 4.314-28.717C71.902 47.472 3.85 144.672 0 257.724c3.182-2 6.134-6.652 6.81-22.6 3.568-85.164 62.06-180.88 106.844-215.7.4 5.6-7.135 26.53-10.908 42.335-1.585 6.645 1.232 16.378 1.232 16.378 4.5.408 16.63-10.258 23.338-15.968l16.572-15.457c.342 12.02 1.734 30.02 4.665 31.6a4.55 4.55 0 0 0 2.651-.306c5.5-1.243 12.154-6.96 12.28-8.09" fill="#ed0e58"/><path d="M334.8 116.8h-1.724v-6.093h-3.406v-1.323h8.55v1.323h-3.42zm5.515-7.4h1.394l3.492 4.485 3.42-4.485H350v7.416h-1.594v-4.585a7.22 7.22 0 0 1 .058-.79c-.12.27-.265.53-.43.776l-2.788 3.707h-.347l-2.787-3.72a3.42 3.42 0 0 1-.445-.762c.03.262.045.525.045.8v4.585h-1.394z" fill="#231f20"/></svg>