<svg xmlns="http://www.w3.org/2000/svg" width="600" height="600"><defs><radialGradient id="A" cx="184.604" cy="139.948" fx="184.604" fy="139.948" r="300" gradientTransform="matrix(1.1354319,1.1268333,-1.0165344,1.0242913,98.86179,-279.0127)" gradientUnits="userSpaceOnUse"><stop offset="0" stop-color="#2277b6"/><stop offset=".104" stop-color="#4086c2"/><stop offset=".224" stop-color="#1b73b3"/><stop offset=".54" stop-color="#124783"/><stop offset=".784" stop-color="#003e73"/><stop offset="1" stop-color="#002448"/></radialGradient><linearGradient id="B" x1="269.253" y1="93.405" x2="406.65" y2="340.498" gradientUnits="userSpaceOnUse"><stop offset="0" stop-color="#dd4b44"/><stop offset=".203" stop-color="#de5448"/><stop offset=".345" stop-color="#db3d39"/><stop offset=".485" stop-color="#cc2c2e"/><stop offset=".749" stop-color="#ae2826"/><stop offset="1" stop-color="#8a211b"/></linearGradient></defs><g transform="translate(0 80)"><path d="M300-80C134.57-80 0 54.587 0 219.988 0 385.413 134.57 520 300 520s300-134.587 300-300.012C600 54.587 465.43-80 300-80" fill="url(#A)"/><path d="M299.6-58.47c-74.417 0-144.356 28.98-196.96 81.58-52.627 52.602-81.608 122.562-81.608 196.952 0 74.414 28.98 144.374 81.608 196.976 52.604 52.625 122.543 81.58 196.96 81.58s144.356-28.956 196.96-81.58c52.627-52.6 81.608-122.562 81.608-196.976 0-74.4-28.98-144.35-81.608-196.952-52.604-52.6-122.543-81.58-196.96-81.58m0 11.025c147.762 0 267.542 119.776 267.542 267.508 0 147.756-119.78 267.532-267.542 267.532S32.048 367.82 32.048 220.064c0-147.732 119.78-267.508 267.542-267.508" fill="#fff"/><path d="M299.78 67.754c-4.715 0-9.408.26-14.027.666-1.048 58.03-15.24 107.657-39.195 149.686h106.35C328.95 176.077 314.78 126.45 313.71 68.42c-4.572-.405-9.215-.666-13.93-.666zm-56.713 156.328c-18.79 31.17-43.054 58.053-71.416 80.96 12.264 18.645 28.458 34.457 47.46 46.244-.714-4.048-1.096-8.19-1.096-12.43 0-42.22 36.602-76.437 81.775-76.437 45.15 0 81.773 34.218 81.773 76.438 0 4.24-.38 8.382-1.094 12.43 18.955-11.763 35.172-27.574 47.412-46.195-28.385-22.907-52.652-49.816-71.465-81H243.066z" fill="url(#B)"/><path d="M321.425 69.313c74.393 10.525 131.616 74.414 131.616 151.685 0 24.765-5.906 48.125-16.336 68.842-67.51-50.673-108.54-122.062-115.28-220.526m59.033 281.962c.714-4.024 1.095-8.168 1.095-12.406 0-42.22-36.6-76.46-81.775-76.46-45.15 0-81.775 34.242-81.775 76.46 0 4.24.38 8.382 1.095 12.406-18.98-11.763-35.196-27.575-47.46-46.244 28.362-22.884 52.627-49.768 71.416-80.962h113.35c18.813 31.218 43.078 58.102 71.488 81-12.264 18.645-28.457 34.433-47.436 46.196m-25.695 12.763c-17.074 6.572-35.6 10.216-54.985 10.216s-37.91-3.643-54.985-10.216c-6.24-9.453-9.835-20.62-9.835-32.6 0-34.004 29.028-61.58 64.82-61.58 35.815 0 64.844 27.575 64.844 61.58 0 11.978-3.62 23.146-9.86 32.6M146.54 220.998c0-77.295 57.223-141.183 131.64-151.685C271.44 167.8 230.4 239.2 162.876 289.84c-10.43-20.693-16.336-44.077-16.336-68.842M299.78 67.765c4.715 0 9.36.238 13.93.667 1.072 58.03 15.24 107.632 39.197 149.684h-106.35c23.98-42.053 38.15-91.654 39.197-149.684a151.99 151.99 0 0 1 14.026-.667m0-11.025c-90.586 0-164.264 73.7-164.264 164.258 0 90.582 73.678 164.28 164.264 164.28s164.288-73.7 164.288-164.28c0-90.558-73.702-164.258-164.288-164.258" fill="#fff"/><path d="M305.23 349.704l-5.453-6.334-5.453 6.334-.214.595c1.072 2.167 2.93 4.834 5.167 6.644l.5.262.5-.262c2.262-1.8 4.096-4.477 5.2-6.644l-.238-.595m5.225-34.394c0-6.263-8.192-25.8-10.668-25.8l-.62.262c-2.977 2.43-10.05 19.693-10.05 25.527 0 4.667 9.43 16.978 9.43 23.67h0l1.238 1.238 1.238-1.238v-.048c.048-6.7 9.43-18.955 9.43-23.622M294.46 338.4c-4.43-11.668-12.05-18.05-20.003-18.05-5.977 0-10.86 4.858-10.86 10.858s5.838 9.86 10.86 10.858c1.627.323 3.494-.665 4.596-1.905.893-1.005 1.803-2.738 1.095-3.88-.247-.398-.967-.043-1.38-.262-1.518-.803-3.646-1.926-3.643-3.643.002-1.712 1.934-3.533 3.643-3.62 5.682-.3 9.86 3.43 13.264 10.74v.048l.024.048 1.214.714 1.334-1.357-.143-.548m30.286-18.056c-7.93 0-15.574 6.382-20.003 18.05l-.12.548 1.334 1.38 1.2-.738.024-.048.024-.024c3.38-7.334 7.578-11.058 13.264-10.763 1.704.088 3.617 1.913 3.62 3.62s-2.106 2.843-3.62 3.643c-.42.223-1.154-.143-1.405.262-.712 1.152.216 2.896 1.12 3.905 1.1 1.228 2.956 2.205 4.572 1.88 5.02-1.005 10.86-4.858 10.86-10.858s-4.858-10.858-10.86-10.858" fill="#c2a24e"/><g fill="#fff"><path d="M374.96 56.1l26.48-63.674c-4.358-1.953-8.74-3.74-13.216-5.453L361.767 50.6c4.477 1.667 8.882 3.5 13.193 5.5m-76.284-72.616H324.3a11.38 11.38 0 0 1 11.359 11.382c0 6.263-5.096 11.36-11.36 11.36h-25.623v-22.74zm0 55.792v-20.86h17.455l15.05 23.812c5.977 1.072 11.835 2.453 17.574 4.096l-18.05-28.765c10.36-2.762 18.884-11.882 18.884-22.693 0-13.002-12.3-23.574-25.3-23.574h-39.554v68.556c4.596-.357 9.216-.572 13.907-.572h.024zM132.652 51l18.765-20.598c4.24-4.643 11.454-4.977 16.074-.738 4.644 4.215 4.977 11.43.738 16.05l-18.765 20.622-16.812-15.335zm41.435 37.743l-15.622-14.216L177.8 53.23c8.763-9.596 8.763-25.027-.857-33.8-9.597-8.763-25.218-7.55-33.982 2.048l-28.695 31.6 50.008 45.577c3.12-3.453 6.43-6.74 9.8-9.93m261.19-57.756c10.3-2.43 29.267 16.407 32.9 29.17l9.716-7.215C469.865 30.11 437.955 7.3 422.8 21.586c-9 8.5-3.905 21.574 3.953 29.837l7.62 8.025c7.763 8.168 14.55 16.3 8.3 21.48-6.644 5.5-25.266-8.287-36.458-31.956l-10.002 7.572c2.38 6.215 7.787 15.24 15.026 22.884 8.216 8.644 17.17 14.287 25.194 15.86 6.3 1.238 12.573.286 16.717-3.548 10.335-9.596 6.572-23.55-9.668-40.648l-6.715-7.072c-7.477-7.882-4.43-12.36-1.524-13.05"/><path d="M219.373 27.353l1.2-29.456 19.384 22.24c-7.025 2.048-13.883 4.477-20.575 7.215m4.144-44.624a218.09 218.09 0 0 0-14.502 5.143l-5.167 78.105c4.644-2.834 9.406-5.453 14.288-7.882l.738-18.193c9.406-4.167 19.24-7.596 29.362-10.263l12.002 13.764a179.77 179.77 0 0 1 16.074-2.715l-52.794-57.96zm-57.3 395.886l-8.86 4.2 6.144 5.24 2.715-9.43zm-3.3 24.98l-3.3-2.476 2.786-9.168-8.74-7.43-8.692 4.143-2.953-2.715 25.67-12.12 3.143 2.667-7.906 27.098zm25.356-14.14L173.9 411.3l-3.096-2.048 14.383-21.812 3.096 2.024zm11.278 7.176l4.453 24.384.048.024 9.097-17.288 3.262 1.738-11.93 22.765-3.24-1.476-4.5-24.67-.048-.024-9.24 17.526-3.167-1.834 12.002-22.86 3.262 1.714zm44.426 19l-1.214 3.5-8.525-2.977-7.3 20.98-3.477-1.214 7.3-20.98-8.525-2.953 1.214-3.5 20.527 7.144zm56.474 19.186l11.788.2-.12 6.8c-.072 4.62-5.2 7.62-11.645 7.525-6.834-.12-13.907-4.93-13.764-13.644.095-7.334 6.05-13.263 14.288-13.144 6.12.095 9.287 3.38 10.764 4.834l-2.596 2.596c-1.262-1.238-3.215-3.643-7.858-3.715-6.8-.12-10.835 4.262-10.906 9.644-.095 5.048 3.8 9.62 10.3 9.74 4.453.07 7.668-1.93 7.692-4.12l.07-2.88-8.097-.143.07-3.7zm40.027-15.536l.524 3.667-17.17 2.453.976 6.7 8.644-1.262.524 3.7-8.644 1.214 1.12 7.787 17.8-2.572.524 3.667-21.456 3.072-3.643-25.432 20.813-2.977zm13.455.363l2.2 7.263 10.954-3.3c2.643-.8 3.74-2.643 3.024-5.024-.833-2.786-3.167-2.834-5.215-2.238l-10.954 3.3zm9.883-6.834c3.953-1.2 8.3-.3 9.835 4.7 1.595 5.334-1.476 8.096-3.477 8.882l8.025 8.644-3.882 1.405-7.977-8.763-9.168 2.762 3.096 10.335-3.548 1-7.382-24.598 14.478-4.358zm56.513-24.096l1.88 9.644 6.596-4.7-8.478-4.953zM443.5 398l-3.24 2.572-7.954-4.882-9.335 6.667 1.786 9.3-3.286 2.095-5.43-27.646 3.358-2.357 24.1 14.24zm-8.03-27.037l17.55 18.883-2.786 2.453-17.48-18.812 2.715-2.524zm10.2-10.068l24.742 1.714.048-.072-14.526-13.05 2.477-2.738 19.098 17.17-2.215 2.762-25.004-1.714-.048.048 14.717 13.24-2.596 2.643-19.17-17.24 2.477-2.762zm-43.523 34.53l-3.286 1.7-.572 18.193-15.074-10.24-3.286 1.7 11.216 23.122 3.38-1.5-7.787-16.43.048-.048 14.93 10.12.572-18.026.07-.024 8.74 15.978 3.215-1.8-12.17-22.717zm-248.942-33.123c-2.096-7.834-10.05-15.526-16.05-15.526l-3.596 1.143-2.143 3.572c-.3 2.286.595 5.2 2.5 7.715l2.74 3.667c2.12 2.834 4.167 5.786 3.74 8.12l-1.572 2.286-1.667.452c-3.715 0-10.002-6.62-13.097-16.12l-.048-.167-2.715 2.548-.048.048v.048c.62 2.38 2.238 6.215 4.953 9.858 2.858 3.8 6.12 6.453 9.168 7.453l2.88.476 3.43-1 2.596-4.12c.452-3.024-1.143-7.048-4.786-11.882l-2.405-3.238c-1.93-2.596-1.857-4.262-1.453-5.215l2.024-1.524.405-.024c4.43 0 10.668 7.334 12.288 13.002l.048.143.12-.07 2.62-1.5.095-.048-.024-.095zm112.928 73.592l-9.168-2.024.857-3.7 9.144 2.048-.833 3.667z"/></g></g></svg>