<svg xmlns="http://www.w3.org/2000/svg" height="82.225" width="500"><defs><clipPath id="A"><path d="M200.315 114.62H400.63v31.93H200.315v-31.93z"/></clipPath></defs><g clip-path="url(#A)" transform="matrix(2.486084 0 0 -2.486084 -496.49702 365.678)"><g fill="#181716"><path d="M255.275 117.15l-.578.35c-.362.222-.62.44-.772.655a1.24 1.24 0 0 0-.233.741c0 .42.146.758.437 1.02s.665.393 1.13.393c.443 0 .848-.127 1.22-.376v-.858c-.383.365-.794.548-1.235.548-.248 0-.45-.057-.6-.172a.52.52 0 0 1-.24-.44c0-.16.06-.308.178-.446s.306-.285.568-.438l.58-.345c.644-.4.967-.882.967-1.483 0-.425-.14-.772-.426-1.04s-.656-.4-1.1-.4a2.32 2.32 0 0 0-1.431.488v.963c.4-.523.884-.783 1.425-.783.238 0 .436.067.595.2s.238.3.238.5c0 .323-.236.63-.7.92m9.876 3.083h.758l-2.142-5.336h-.176l-1.73 4.32-1.75-4.32h-.18l-2.127 5.336h.766l1.46-3.663 1.477 3.663h.727l1.467-3.663 1.45 3.663zm2.228 0h.763v-5.3h-.763v5.3zm4.13-3.08l-.577.35c-.362.222-.622.44-.774.655s-.23.46-.23.74c0 .42.143.758.434 1.02s.667.393 1.13.393a2.14 2.14 0 0 0 1.221-.376v-.858c-.383.365-.792.548-1.234.548-.248 0-.45-.057-.6-.172a.52.52 0 0 1-.239-.44.67.67 0 0 1 .176-.446c.118-.138.308-.285.568-.438l.58-.345c.645-.4.968-.882.968-1.483 0-.425-.142-.772-.426-1.04s-.656-.4-1.1-.4a2.32 2.32 0 0 0-1.43.488v.963c.4-.523.885-.783 1.424-.783a.89.89 0 0 1 .594.2c.158.133.238.3.238.5 0 .323-.234.63-.7.92m4.434.004l-.577.35c-.364.222-.622.44-.774.655s-.23.46-.23.74a1.31 1.31 0 0 0 .434 1.02c.29.262.667.393 1.13.393a2.13 2.13 0 0 0 1.219-.376v-.858c-.38.365-.8.548-1.232.548-.248 0-.452-.057-.612-.172a.52.52 0 0 1-.24-.44.68.68 0 0 1 .178-.446c.12-.14.307-.285.567-.438l.578-.345c.647-.4.968-.882.968-1.483 0-.425-.142-.772-.426-1.04s-.655-.4-1.1-.4a2.32 2.32 0 0 0-1.432.488v.963c.4-.523.885-.783 1.425-.783.238 0 .435.067.594.2s.237.3.237.5c0 .323-.233.63-.7.92m8.973.022l-.862 1.92-.8-1.92h1.664zm-1.124 3.1h.534l2.378-5.335h-.777l-.707 1.57h-2.26l-.663-1.57h-.78l2.276 5.335zm7.104-.028h.764l-2.25-5.336h-.178l-2.275 5.336h.763l1.6-3.732 1.584 3.732zm4.412-3.062l-.862 1.92-.8-1.92h1.663zm-1.125 3.1h.534l2.38-5.335h-.78l-.705 1.57h-2.262l-.66-1.57h-.78l2.276 5.335zm8.585-.028h.72v-5.3h-.65l-3.55 4.1v-4.1h-.7v5.3h.613l3.577-4.125v4.125zm2.283 0h4.434v-.677h-1.848v-4.634h-.765v4.634h-1.82v.677zm4.433-3.218h1.9v-.738h-1.9v.738zm6.53.528h1.788v-2.256a4.86 4.86 0 0 0-1.946-.424c-.878 0-1.58.256-2.107.77a2.55 2.55 0 0 0-.788 1.902c0 .794.272 1.456.817 1.984s1.23.792 2.05.792a3.48 3.48 0 0 0 .85-.1c.267-.067.6-.187 1.02-.362v-.77c-.633.37-1.26.556-1.884.556a2 2 0 0 1-1.466-.594c-.396-.394-.597-.884-.597-1.46 0-.606.2-1.1.596-1.483s.907-.575 1.533-.575c.303 0 .666.07 1.088.2l.072.023v1.112h-1.025v.678zm6.27-.372l-.862 1.92-.8-1.92h1.664zm-1.124 3.1h.534l2.38-5.335h-.78l-.707 1.57h-2.26l-.662-1.57h-.78l2.276 5.335zm5.074-.668H326v-1.684h.287c.382 0 .647.033.787.1a.74.74 0 0 1 .333.3c.08.133.12.284.12.456a.83.83 0 0 1-.133.456c-.088.138-.214.23-.372.287s-.426.084-.796.084m-1-4.668v5.3h1.328c.538 0 .965-.133 1.28-.4s.47-.626.47-1.08c0-.3-.077-.578-.233-.802s-.376-.396-.666-.506a2.41 2.41 0 0 0 .503-.456c.163-.193.4-.528.686-1.006l.444-.68.282-.38h-.904l-.233.35a1.01 1.01 0 0 1-.045.064l-.15.2-.488.8c-.16.22-.303.392-.432.52a1.63 1.63 0 0 1-.354.28c-.106.057-.282.085-.53.085H326v-2.307h-.764zm6.964 4.633h-.952v-3.956h.975c.383 0 .678.025.887.078a2.06 2.06 0 0 1 .528.198c.14.08.27.18.386.295.377.38.565.862.565 1.443 0 .57-.194 1.037-.58 1.397a1.82 1.82 0 0 1-.49.331c-.186.087-.36.144-.524.172s-.43.042-.796.042m-1.714-4.634v5.3h1.793c.725 0 1.297-.108 1.72-.325s.756-.536 1.005-.958a2.65 2.65 0 0 0 .375-1.377 2.58 2.58 0 0 0-.208-1.02 2.59 2.59 0 0 0-1.49-1.432 2.68 2.68 0 0 0-.552-.157c-.17-.028-.5-.04-.96-.04h-1.684zm6.71 5.3h3v-.677h-2.248v-1.623h2.17v-.677h-2.17v-1.657h2.318v-.678h-3.08v5.3zm9.12-3.08l-.58.35c-.362.222-.62.44-.774.655s-.23.46-.23.74a1.31 1.31 0 0 0 .436 1.02c.29.262.667.393 1.13.393a2.14 2.14 0 0 0 1.221-.376v-.858c-.382.365-.792.548-1.234.548-.248 0-.45-.057-.6-.172a.52.52 0 0 1-.239-.44c0-.16.058-.308.178-.446s.304-.285.567-.438l.578-.345c.646-.4.968-.882.968-1.483 0-.425-.142-.772-.427-1.04s-.655-.4-1.1-.4c-.524 0-1 .163-1.43.488v.963c.4-.523.885-.783 1.425-.783a.9.9 0 0 1 .595.2.62.62 0 0 1 .237.5c0 .323-.233.63-.7.92m3.112 3.084h.764v-5.3h-.764v5.3zm7.028 0h.72v-5.3h-.65l-3.55 4.1v-4.1h-.7v5.3h.613l3.58-4.125v4.125zm7.313-4.077v-.833c-.557-.306-1.2-.46-1.93-.46-.593 0-1.096.12-1.507.358s-.74.567-.98.986a2.67 2.67 0 0 0-.361 1.359c0 .773.274 1.425.825 1.953s1.23.792 2.036.792c.558 0 1.177-.146 1.858-.434v-.816c-.62.353-1.226.53-1.817.53-.607 0-1.113-.193-1.512-.577s-.602-.866-.602-1.446.198-1.064.593-1.438.9-.565 1.515-.565c.643 0 1.27.197 1.883.6m1.803 4.068h3v-.677h-2.245v-1.623h2.168v-.677h-2.168v-1.657h2.315v-.678h-3.08v5.3zm8.788 0h.763v-5.3h-.763v5.3zm6.004-1.44c0 .233-.08.423-.24.574s-.36.226-.604.226a.86.86 0 0 1-.606-.222.75.75 0 0 1-.235-.57.76.76 0 0 1 .248-.57c.167-.157.366-.236.6-.236a.81.81 0 0 1 .59.235.75.75 0 0 1 .245.563m.07-2.44v.076a.76.76 0 0 1-.261.598c-.174.155-.4.233-.68.233-.272 0-.495-.08-.667-.234a.78.78 0 0 1-.259-.604.77.77 0 0 1 .265-.604c.175-.154.402-.235.683-.235.268 0 .5.072.66.215a.69.69 0 0 1 .257.555m-2.508 2.466a1.4 1.4 0 0 0 .468 1.06 1.62 1.62 0 0 0 1.144.435 1.57 1.57 0 0 0 1.123-.431c.307-.287.458-.642.458-1.063 0-.473-.22-.865-.66-1.174a1.37 1.37 0 0 0 .738-1.258 1.4 1.4 0 0 0-.479-1.092c-.32-.287-.723-.43-1.2-.43s-.887.146-1.214.44a1.41 1.41 0 0 0-.489 1.091c0 .54.248.957.748 1.25-.224.183-.385.364-.482.546a1.34 1.34 0 0 0-.147.628m5.52-1.833c-.022-.12-.032-.25-.032-.398 0-.3.086-.544.26-.736a.86.86 0 0 1 .667-.288c.245 0 .446.082.605.247a.86.86 0 0 1 .237.622.81.81 0 0 1-.251.62c-.17.158-.393.24-.67.24a1.06 1.06 0 0 1-.384-.066c-.114-.044-.26-.122-.432-.24m1.254 3.27l.076.053.46-.582a4.31 4.31 0 0 1-1-.86c-.257-.312-.473-.676-.62-1.096a1.81 1.81 0 0 0 .841.221c.42 0 .77-.15 1.06-.445a1.51 1.51 0 0 0 .43-1.092c0-.445-.156-.82-.468-1.132a1.55 1.55 0 0 0-1.136-.463c-.5 0-.905.176-1.213.526s-.462.812-.462 1.38a3.57 3.57 0 0 0 .24 1.272c.16.422.386.82.683 1.2s.67.712 1.12 1.027"/><path d="M389.076 119.6h-.037c-.3 0-.524-.18-.694-.54s-.256-.845-.256-1.46c0-.63.084-1.124.25-1.48s.397-.537.692-.537.524.18.694.537.255.844.255 1.46-.082 1.108-.246 1.474-.382.547-.66.547m-.006.72c.485 0 .888-.256 1.206-.767s.476-1.16.476-1.948c0-.806-.16-1.462-.476-1.968s-.73-.757-1.236-.757c-.515 0-.928.248-1.24.743s-.466 1.152-.466 1.97c0 .806.16 1.463.48 1.97s.74.76 1.254.76m-82.078 6.4c-3.884-.87-8.88-1.13-12.486.532-3.078 1.348-4.98 4.565-5.372 7.712-.4 3.864 1.046 7.25 4.136 9.525 3.615 2.585 9.342 2.5 13.278.702v-3.932c-2.978 1.367-7.458 2.172-10.314 0-2.053-1.576-2.7-4.072-2.175-6.57.413-1.966 2.104-3.744 3.987-4.394 1.335-.426 2.974-.565 4.46-.377v3.206l-1.964-.005v3.862h6.446l.003-10.26zm-47.653-.255v16.063h7.133v3.756h-19.326v-3.756h7.13V126.46h5.063zm20.065 19.82h-5.8l-8.125-19.82h5.336l1.526 3.9h8.878l1.628-3.9h5.334l-8.786 19.82zm-5.657-12.325l2.855 7.4 3.1-7.4h-5.944zm52.714 3.785h-11.253l.001 8.536h-3.02v-19.818h3.02l-.001 8.613h11.253l-.01-8.613h3.028v19.818h-3.028l.01-8.536zm36.393-5.695c-.2-.513-1.53-3.357-5.038-3.357-3.517 0-4.042 2.722-4.042 4.343v10.585h-3.017l-.003-10.174c0-6.866 5.17-7.4 6.754-7.4 2.6 0 4.35 1.12 5.347 2.045l-.003-1.636h3.027v17.164h-3.023l-.003-11.57zm37.377 9.762c-.08.088-1.942 2.162-4.352 2.162-2.125 0-4.195-2.04-5.382-3.468l.003 3.164h-3.026V126.46h3.022l.003 10.257c.783 1.313 2.956 4.316 4.763 4.316 1.514 0 3.106-1.7 3.122-1.727l1.847 2.502zM335.4 137.73c.77 2.417 2.5 3.385 4.722 3.385 3.6 0 4.62-2.174 4.894-3.385H335.4zm4.73 6.24c-4.73 0-8.297-3.527-8.297-8.898 0-3.693 2.498-8.995 9.2-8.995 4.246 0 6.827 2.324 6.935 2.423l.18.164v3.522l-.935-.9c-.026-.025-2.566-2.412-5.96-2.412-3.7 0-6.282 2.156-6.282 6.142v.034h13.502v.553c0 4.244-2.6 8.36-8.34 8.36m31.82-6.243c.77 2.417 2.5 3.385 4.722 3.385 3.6 0 4.62-2.174 4.894-3.385h-9.617zm4.73 6.24c-4.73 0-8.297-3.527-8.297-8.898 0-3.693 2.498-8.995 9.2-8.995 4.246 0 6.827 2.324 6.935 2.423l.18.164v3.522l-.935-.9c-.026-.025-2.566-2.412-5.96-2.412-3.7 0-6.282 2.156-6.282 6.142v.034h13.502v.553c0 4.244-2.6 8.36-8.34 8.36"/><path d="M200.315 125.093l-.001 21.138 36.505.001v-21.14l-18.25-10.472-18.255 10.474z" fill-rule="evenodd"/></g><path d="M201.237 145.304l-.001-19.67 17.325-9.96h.025l17.303 9.96v19.66l-34.652.01z" fill="#fff"/><g fill-rule="evenodd"><path d="M202.473 144.144V133.86h32.18v10.286l-32.18-.002z" fill="#268151"/><path d="M202.473 132.743v-6.494l16.098-9.245 16.083 9.24v6.498h-32.18z" fill="#e3001e"/></g><g fill="#fff"><path d="M221.194 120.115l-.001 11.385c0 .033-.026.06-.06.06h-1.16a.06.06 0 0 1-.06-.06v-10.7l-1.344-.735-1.35.735v10.7a.06.06 0 0 1-.06.06H216c-.016 0-.03-.007-.043-.018s-.017-.026-.017-.042v-11.385a.06.06 0 0 1 .03-.052l2.57-1.475c.018-.01.04-.01.06.001l2.565 1.474c.018.01.03.03.03.052m-7.137 1.045c.018-.01.038-.01.056 0a.06.06 0 0 1 .029.052v1.233c0 .023-.012.044-.03.054l-2.46 1.342v2.98l2.2-.564c.018.001.043.027.043.06l.001 1.217c0 .023-.027.05-.057.057l-2.197.487v2.365h2.436c.03 0 .057.027.057.06v1c0 .033-.026.06-.057.06h-3.615c-.03 0-.057-.027-.057-.06v-8.206c0-.022.01-.042.03-.053l3.614-2.082zm12.9 2.275v1.113a.06.06 0 0 1-.03.052c-.02.012-.04.01-.06.001l-2.414-1.318v3.276l2.25.575c.026.007.045.03.045.06v1.1c0 .018-.01.035-.023.047s-.024.013-.037.013l-2.234-.5v2.6h2.44a.06.06 0 0 1 .06.06v1a.06.06 0 0 1-.059.06h-3.6a.06.06 0 0 1-.06-.06v-10.142c0-.022.012-.042.03-.052s.042-.01.06 0l3.6 2.077c.018.01.03.03.03.052m-19.606 1.563l.997-.576c.02-.01.04-.01.06 0s.03.03.03.052v7.022c0 .033-.028.06-.06.06h-.998a.06.06 0 0 1-.059-.06v-2.476l-2.403.528v1.948c0 .033-.026.06-.06.06h-.986a.06.06 0 0 1-.06-.06l.001-4.44c0-.022.012-.042.03-.053l.985-.56c.018-.01.042-.01.06 0a.06.06 0 0 1 .03.052v2.036l2.403-.614v-2.867c0-.022.01-.04.03-.052m22.587 5.438h2.093a.17.17 0 0 0 .17-.17v-.53c0-.122-.023-.188-.18-.225l-2.083-.457v1.38zm-1.1-5.92c.018-.01.042-.01.06 0l1.03.585.007 2.855.603.158 1.77-1.585c.017-.024.052-.032.078-.016l.902.524c.015.008.025.023.028.04s.002.026-.003.037l-1.55 1.314 1.096.278c.364.094.42.263.417.634l-.003 1.804c-.045.262-.236.412-.5.412-.015 0-.03 0-.04-.001h-3.86c-.03 0-.06-.036-.06-.07v-6.916a.06.06 0 0 1 .03-.052"/><g fill-rule="evenodd"><path d="M210.146 135.158v6.1h3.34v1.625h-9.052v-1.625h3.34v-6.1h2.37zm22.12.142c-1.818-.34-4.158-.44-5.847.207-1.442.526-2.33 1.778-2.515 3.004-.193 1.505.488 2.823 1.938 3.7 1.7 1.006 4.373.972 6.215.273v-1.68c-1.393.532-3.492.993-4.83.147-.96-.612-1.257-1.585-1.017-2.557.193-.766.985-1.46 1.866-1.712a6.07 6.07 0 0 1 2.1-.147v1.248l-.92-.003v1.504h3.018l.002-3.995zm-14.19 5.666l-1.437-2.72h2.783l-1.346 2.72zm-2.1-4.3l-.798-1.517h-2.417l3.925 7.723h2.712l3.997-7.723h-2.423l-.838 1.517h-4.157z"/></g></g></g></svg>