<svg xmlns="http://www.w3.org/2000/svg" width="350" height="88.991"><path d="M0 83.7V65.84h2.635v17.6a2.79 2.79 0 0 0 2.789 3.123c1.952 0 2.8-1.3 2.8-3.1V65.84h2.5v17.68a5.03 5.03 0 0 1-1.48 3.944 5.04 5.04 0 0 1-3.96 1.438C2.2 88.9 0 87.242 0 83.7zm16.425-17.847h2.8l5.8 16.076V65.853h2.566v22.74h-2.524l-6.15-17.46h-.1v17.46h-2.382zm17.025 0h2.65v22.74h-2.65zm8.588 0H47.5c3.193 0 4.657 2.064 4.657 5.675 0 2.9-1.143 4.88-3.026 5.257v.125c2.287.516 3.22 2.65 3.22 5.368 0 4.56-1.952 6.316-4.7 6.316h-5.574zm4.657 10c1.66 0 2.9-1.185 2.9-4.057 0-2.635-1.018-3.695-2.524-3.695h-2.384v7.752zm.418 10.457c1.687 0 2.58-1.394 2.58-4.183s-1.2-4.043-2.97-4.043h-2.035v8.226zm14.014-20.536h3.514l4.56 22.8h-2.58l-1.394-6.735h-5.02l-1.27 6.8H56.47zm3.68 13.846l-2.022-10.816H62.7L60.65 79.63zm9.37-13.777h2.65v22.74h-2.65zm8.603 0h2.65v20.44h6.414v2.3H82.78zm12.06 12.354h5.48v2.105h-5.48zm10.417-12.354h5.006c3.6 0 5.4 2.287 5.4 6.316 0 3.22-1.185 5.284-3.026 5.9l3.25 10.527h-2.68l-3.026-9.927h-2.273v9.927h-2.65zm4.95 10.78c1.882 0 2.8-1.506 2.8-4.183 0-2.245-.67-4.308-2.9-4.308h-2.2v8.547zm10.443 6.844v-12.55a5.14 5.14 0 0 1 1.56-3.97 5.15 5.15 0 0 1 4.018-1.43c3.1 0 5.494 1.63 5.494 5.13v12.73a5.16 5.16 0 0 1-5.577 5.577c-3.3-.065-5.494-1.85-5.494-5.5zm8.463 0V70.622c-.13-1.528-1.42-2.694-2.954-2.668s-2.784 1.236-2.86 2.768v12.8c-.075 1.087.462 2.125 1.392 2.7a2.92 2.92 0 0 0 3.03 0c.93-.566 1.468-1.604 1.392-2.7zm8.157-17.624h5.4c3 0 5.3 1.52 5.3 4.782V83.42c0 3.514-2.3 5.173-5.354 5.173h-5.34zm5.173 20.468a2.7 2.7 0 0 0 2.872-2.928V70.845c.058-.77-.23-1.528-.783-2.067s-1.32-.803-2.1-.722h-2.524V86.32zm14.277-20.537h3.514l4.56 22.8h-2.65l-1.3-6.735h-4.978l-1.394 6.735h-2.454zm3.667 13.846l-2.008-10.816h-.1l-2.036 10.82zm9.245-13.777h3.193l3.444 9.76h.07l3.542-9.76h3.026v22.74h-2.355V70.468h-.07l-3.346 9.44h-1.757l-3.3-9.412v18.1h-2.37zM188.4 83.798V70.706c0-3.165 2.2-5.2 5.577-5.2s5.1 1.924 5.1 4.615v2.58h-2.37v-2.2a2.55 2.55 0 0 0-2.789-2.789 2.68 2.68 0 0 0-2.167.83c-.56.592-.818 1.405-.705 2.2v12.73a2.7 2.7 0 0 0 2.928 3.054 2.57 2.57 0 0 0 2.012-.712 2.56 2.56 0 0 0 .777-1.988v-2.24h2.315v2.356a4.77 4.77 0 0 1-5.173 4.908c-3.274.043-5.505-1.77-5.505-5.06zm15.74-.32V70.93a5.13 5.13 0 0 1 5.577-5.4c3.1 0 5.48 1.63 5.48 5.13V83.4c.134 1.516-.4 3.014-1.487 4.1s-2.574 1.62-4.1 1.487c-3.277-.066-5.48-1.85-5.48-5.5zm8.45 0V70.622a2.9 2.9 0 1 0-5.8.1v12.8a2.9 2.9 0 1 0 5.8 0zm7.265-5.27h5.494v2.105h-5.494zm8.728-12.367h2.566l2.105 16.62h.1l2.482-16.62h2.62l2.48 16.6h.07l2.078-16.592h2.356l-3.138 22.9h-2.454l-2.7-17.387h-.1l-2.65 17.387h-2.457zm21.697.013h9.02v2.26h-6.372v7.46h5.1v2.273h-5.1v8.477h6.414v2.273h-9.063zm11.934 17.4l2.482-.1c.2 2.078.934 3.64 2.8 3.64s2.5-1.66 2.5-3.193a6.69 6.69 0 0 0-1.98-4.308l-2.72-3.012a8.7 8.7 0 0 1-2.719-5.577 4.7 4.7 0 0 1 4.95-5.1c2.5 0 4.5 1.394 4.713 5.326h-2.356c-.25-2.2-1-3.263-2.524-3.263s-2.33.92-2.33 2.8a6.89 6.89 0 0 0 2.231 4.085l2.37 2.677c1.712 1.653 2.713 3.9 2.8 6.288 0 3.18-1.785 5.48-5.006 5.48s-4.97-2.12-5.2-5.73zm17.15-15.17h-4.35v-2.23h11.294v2.23h-4.294v20.5h-2.65zm11.74-2.23h8.993v2.23h-6.358v7.557h5.047v2.3h-5.047v10.653h-2.635zm13.33 0h2.65v22.74h-2.65zm8.603 0h9.035v2.26h-6.386v7.46h5.1v2.273h-5.1v8.477h6.414v2.273h-9.063zm14.32 0h2.635v20.44h6.414v2.3h-9.05zm11.964 0h5.382c3 0 5.3 1.52 5.3 4.782V83.42c0 3.514-2.3 5.173-5.354 5.173h-5.328zm5.16 20.468a2.7 2.7 0 0 0 2.872-2.928V70.845c.058-.77-.23-1.528-.783-2.067s-1.32-.803-2.1-.722h-2.524V86.32z" fill="#3b3836"/><path d="M206.052 11.782l-1.9-11.754L186.964 7h-.083l.32 1.283s4.364-1.687 5.828-.07a2.47 2.47 0 0 1 .614 1.088c.4 1.3 1 3.974 2.09 9.886.167.873-.03 1.775-.544 2.5l-.07.07-7.724 7.808c-.307-1.98-.21-1.394 0 0h0l-4.74-29.56-17.262 7.04.307 1.27s4.378-1.687 5.842 0c.295.298.507.668.613 1.074.4 1.3 1 3.974 2.09 9.886a3.15 3.15 0 0 1-.711 2.677l-7.627 7.71L161.18.18l-17.26 7.042.32 1.283s4.364-1.687 5.828 0c.683.767 1.157.432 6.846 34.523v.1c.084.64.46 4.866-3.988 8.645l1.394 1.6s13.776-9.02 12.4-18.7l-.125-.78 8.784-8.812 3.04 17.764v.112c.1.7.418 4.88-3.988 8.63l1.325 1.6s13.757-8.968 12.363-18.725a1.83 1.83 0 0 0-.1-.711h0l15.7-15.658c1.53-1.74 2.36-3.985 2.33-6.302z" fill="#e1251b"/></svg>